<svg width="108" height="115" viewBox="0 0 108 115" fill="none" xmlns="http://www.w3.org/2000/svg">
<g opacity="0.5" filter="url(#filter0_f_1024_10953)">
<path d="M57.3816 93.1507L80.3056 82.7194C84.6193 80.7565 87.3883 76.4543 87.3883 71.715V44.8007C87.3883 40.5169 85.1213 36.5528 81.4291 34.3805L61.7109 22.7791C58.0936 20.6508 53.6314 20.5507 49.9223 22.5148L27.3251 34.4805C23.3678 36.576 20.8928 40.6872 20.8928 45.1651V72.1328C20.8928 76.6555 23.4171 80.8 27.4357 82.8752L46.8269 92.8887C50.1191 94.5887 54.0091 94.6853 57.3816 93.1507Z" stroke="url(#paint0_linear_1024_10953)" stroke-width="4"/>
</g>
<path opacity="0.35" d="M57.3816 93.1507L80.3056 82.7194C84.6193 80.7565 87.3883 76.4543 87.3883 71.715V44.8007C87.3883 40.5169 85.1213 36.5528 81.4291 34.3805L61.7109 22.7791C58.0936 20.6508 53.6314 20.5507 49.9223 22.5148L27.3251 34.4805C23.3678 36.576 20.8928 40.6872 20.8928 45.1651V72.1328C20.8928 76.6555 23.4171 80.8 27.4357 82.8752L46.8269 92.8887C50.1191 94.5887 54.0091 94.6853 57.3816 93.1507Z" stroke="url(#paint1_linear_1024_10953)" stroke-width="4"/>
<path d="M49.5402 68.8527H42.8783C42.142 68.8527 41.5468 68.2561 41.5468 67.5212V62.1923C41.5468 61.456 42.1435 60.8608 42.8783 60.8608H49.5388" stroke="#3C6370" stroke-width="2.11576" stroke-linecap="round" stroke-linejoin="round"/>
<path fill-rule="evenodd" clip-rule="evenodd" d="M57.5363 46.2055V68.8527H64.1967C64.933 68.8527 65.5282 68.256 65.5282 67.5212V46.2055C65.5282 45.4693 64.9316 44.874 64.1967 44.874H58.8678C58.1329 44.874 57.5363 45.4707 57.5363 46.2055V46.2055Z" stroke="#3C6370" stroke-width="2.11576" stroke-linecap="round" stroke-linejoin="round"/>
<path d="M57.5294 68.8527H49.5361V54.1989C49.5361 53.4626 50.1327 52.8674 50.8676 52.8674H57.528" stroke="#3C6370" stroke-width="2.11576" stroke-linecap="round" stroke-linejoin="round"/>
<defs>
<filter id="filter0_f_1024_10953" x="0.757696" y="0.974127" width="106.766" height="113.397" filterUnits="userSpaceOnUse" color-interpolation-filters="sRGB">
<feFlood flood-opacity="0" result="BackgroundImageFix"/>
<feBlend mode="normal" in="SourceGraphic" in2="BackgroundImageFix" result="shape"/>
<feGaussianBlur stdDeviation="9.06756" result="effect1_foregroundBlur_1024_10953"/>
</filter>
<linearGradient id="paint0_linear_1024_10953" x1="71.6712" y1="91.9245" x2="14.8478" y2="27.847" gradientUnits="userSpaceOnUse">
<stop stop-color="#8FC2CE"/>
<stop offset="1" stop-color="#465356" stop-opacity="0"/>
</linearGradient>
<linearGradient id="paint1_linear_1024_10953" x1="71.6712" y1="91.9245" x2="20.8928" y2="-30.7899" gradientUnits="userSpaceOnUse">
<stop stop-color="#8FC2CE"/>
<stop offset="1" stop-color="#465356" stop-opacity="0"/>
</linearGradient>
</defs>
</svg>
