<svg width="358" height="77" viewBox="0 0 358 77" fill="none" xmlns="http://www.w3.org/2000/svg">
<rect width="358" height="77" rx="16" fill="url(#paint0_linear_1021_7405)"/>
<path fill-rule="evenodd" clip-rule="evenodd" d="M39.2041 42.5434L36.8828 31.5859H55.9759C56.9604 31.5859 57.6817 32.5099 57.4428 33.4656L55.4043 41.6194C55.0943 42.8579 54.0418 43.7683 52.7716 43.8953L42.4644 44.9266C40.928 45.0794 39.5231 44.0526 39.2041 42.5434Z" stroke="white" stroke-width="2.26831" stroke-linecap="round" stroke-linejoin="round"/>
<path d="M36.8829 31.5854L35.9 27.0488H33.293" stroke="white" stroke-width="2.26831" stroke-linecap="round" stroke-linejoin="round"/>
<path d="M53.8732 50.1362C53.5677 50.1362 53.3197 50.3842 53.3228 50.6897C53.3228 50.9952 53.5708 51.2432 53.8762 51.2432C54.1817 51.2432 54.4297 50.9952 54.4297 50.6897C54.4282 50.3842 54.1802 50.1362 53.8732 50.1362" stroke="white" stroke-width="2.26831" stroke-linecap="round" stroke-linejoin="round"/>
<path d="M41.1513 50.1355C40.8458 50.1355 40.5978 50.3835 40.6009 50.6889C40.5978 50.9959 40.8474 51.2439 41.1528 51.2439C41.4583 51.2439 41.7063 50.9959 41.7063 50.6905C41.7063 50.3835 41.4583 50.1355 41.1513 50.1355" stroke="white" stroke-width="2.26831" stroke-linecap="round" stroke-linejoin="round"/>
<path d="M88.093 39.0665H90.013V44.5265C89.3196 45.0998 88.513 45.5398 87.593 45.8465C86.673 46.1532 85.713 46.3065 84.713 46.3065C83.2996 46.3065 82.0263 45.9998 80.893 45.3865C79.7596 44.7598 78.8663 43.9065 78.213 42.8265C77.573 41.7332 77.253 40.5065 77.253 39.1465C77.253 37.7865 77.573 36.5598 78.213 35.4665C78.8663 34.3732 79.7596 33.5198 80.893 32.9065C82.0396 32.2932 83.3263 31.9865 84.753 31.9865C85.873 31.9865 86.8863 32.1732 87.793 32.5465C88.713 32.9065 89.493 33.4398 90.133 34.1465L88.893 35.3865C87.773 34.3065 86.4196 33.7665 84.833 33.7665C83.7663 33.7665 82.8063 33.9998 81.953 34.4665C81.113 34.9198 80.453 35.5598 79.973 36.3865C79.493 37.1998 79.253 38.1198 79.253 39.1465C79.253 40.1598 79.493 41.0798 79.973 41.9065C80.453 42.7198 81.113 43.3598 81.953 43.8265C82.8063 44.2932 83.7596 44.5265 84.813 44.5265C86.0663 44.5265 87.1596 44.2265 88.093 43.6265V39.0665ZM103.142 40.9065C103.142 41.0532 103.129 41.2465 103.102 41.4865H94.5022C94.6222 42.4198 95.0289 43.1732 95.7222 43.7465C96.4289 44.3065 97.3022 44.5865 98.3422 44.5865C99.6089 44.5865 100.629 44.1598 101.402 43.3065L102.462 44.5465C101.982 45.1065 101.382 45.5332 100.662 45.8265C99.9555 46.1198 99.1622 46.2665 98.2822 46.2665C97.1622 46.2665 96.1689 46.0398 95.3022 45.5865C94.4355 45.1198 93.7622 44.4732 93.2822 43.6465C92.8155 42.8198 92.5822 41.8865 92.5822 40.8465C92.5822 39.8198 92.8089 38.8932 93.2622 38.0665C93.7289 37.2398 94.3622 36.5998 95.1622 36.1465C95.9755 35.6798 96.8889 35.4465 97.9022 35.4465C98.9155 35.4465 99.8155 35.6798 100.602 36.1465C101.402 36.5998 102.022 37.2398 102.462 38.0665C102.916 38.8932 103.142 39.8398 103.142 40.9065ZM97.9022 37.0665C96.9822 37.0665 96.2089 37.3465 95.5822 37.9065C94.9689 38.4665 94.6089 39.1998 94.5022 40.1065H101.302C101.196 39.2132 100.829 38.4865 100.202 37.9265C99.5889 37.3532 98.8222 37.0665 97.9022 37.0665ZM111.468 35.4465C112.815 35.4465 113.882 35.8398 114.668 36.6265C115.468 37.3998 115.868 38.5398 115.868 40.0465V46.1465H113.948V40.2665C113.948 39.2398 113.702 38.4665 113.208 37.9465C112.715 37.4265 112.008 37.1665 111.088 37.1665C110.048 37.1665 109.228 37.4732 108.628 38.0865C108.028 38.6865 107.728 39.5532 107.728 40.6865V46.1465H105.808V35.5465H107.648V37.1465C108.035 36.5998 108.555 36.1798 109.208 35.8865C109.875 35.5932 110.628 35.4465 111.468 35.4465ZM129.06 40.9065C129.06 41.0532 129.047 41.2465 129.02 41.4865H120.42C120.54 42.4198 120.947 43.1732 121.64 43.7465C122.347 44.3065 123.22 44.5865 124.26 44.5865C125.527 44.5865 126.547 44.1598 127.32 43.3065L128.38 44.5465C127.9 45.1065 127.3 45.5332 126.58 45.8265C125.873 46.1198 125.08 46.2665 124.2 46.2665C123.08 46.2665 122.087 46.0398 121.22 45.5865C120.353 45.1198 119.68 44.4732 119.2 43.6465C118.733 42.8198 118.5 41.8865 118.5 40.8465C118.5 39.8198 118.727 38.8932 119.18 38.0665C119.647 37.2398 120.28 36.5998 121.08 36.1465C121.893 35.6798 122.807 35.4465 123.82 35.4465C124.833 35.4465 125.733 35.6798 126.52 36.1465C127.32 36.5998 127.94 37.2398 128.38 38.0665C128.833 38.8932 129.06 39.8398 129.06 40.9065ZM123.82 37.0665C122.9 37.0665 122.127 37.3465 121.5 37.9065C120.887 38.4665 120.527 39.1998 120.42 40.1065H127.22C127.113 39.2132 126.747 38.4865 126.12 37.9265C125.507 37.3532 124.74 37.0665 123.82 37.0665ZM133.566 37.3265C133.9 36.7132 134.393 36.2465 135.046 35.9265C135.7 35.6065 136.493 35.4465 137.426 35.4465V37.3065C137.32 37.2932 137.173 37.2865 136.986 37.2865C135.946 37.2865 135.126 37.5998 134.526 38.2265C133.94 38.8398 133.646 39.7198 133.646 40.8665V46.1465H131.726V35.5465H133.566V37.3265ZM143.633 35.4465C145.1 35.4465 146.22 35.8065 146.993 36.5265C147.78 37.2465 148.173 38.3198 148.173 39.7465V46.1465H146.353V44.7465C146.033 45.2398 145.573 45.6198 144.973 45.8865C144.386 46.1398 143.686 46.2665 142.873 46.2665C141.686 46.2665 140.733 45.9798 140.013 45.4065C139.306 44.8332 138.953 44.0798 138.953 43.1465C138.953 42.2132 139.293 41.4665 139.973 40.9065C140.653 40.3332 141.733 40.0465 143.213 40.0465H146.253V39.6665C146.253 38.8398 146.013 38.2065 145.533 37.7665C145.053 37.3265 144.346 37.1065 143.413 37.1065C142.786 37.1065 142.173 37.2132 141.573 37.4265C140.973 37.6265 140.466 37.8998 140.053 38.2465L139.253 36.8065C139.8 36.3665 140.453 36.0332 141.213 35.8065C141.973 35.5665 142.78 35.4465 143.633 35.4465ZM143.193 44.7865C143.926 44.7865 144.56 44.6265 145.093 44.3065C145.626 43.9732 146.013 43.5065 146.253 42.9065V41.4265H143.293C141.666 41.4265 140.853 41.9732 140.853 43.0665C140.853 43.5998 141.06 44.0198 141.473 44.3265C141.886 44.6332 142.46 44.7865 143.193 44.7865ZM157.686 45.5265C157.406 45.7665 157.06 45.9532 156.646 46.0865C156.233 46.2065 155.806 46.2665 155.366 46.2665C154.3 46.2665 153.473 45.9798 152.886 45.4065C152.3 44.8332 152.006 44.0132 152.006 42.9465V37.1265H150.206V35.5465H152.006V33.2265H153.926V35.5465H156.966V37.1265H153.926V42.8665C153.926 43.4398 154.066 43.8798 154.346 44.1865C154.64 44.4932 155.053 44.6465 155.586 44.6465C156.173 44.6465 156.673 44.4798 157.086 44.1465L157.686 45.5265ZM169.236 40.9065C169.236 41.0532 169.223 41.2465 169.196 41.4865H160.596C160.716 42.4198 161.123 43.1732 161.816 43.7465C162.523 44.3065 163.396 44.5865 164.436 44.5865C165.703 44.5865 166.723 44.1598 167.496 43.3065L168.556 44.5465C168.076 45.1065 167.476 45.5332 166.756 45.8265C166.049 46.1198 165.256 46.2665 164.376 46.2665C163.256 46.2665 162.263 46.0398 161.396 45.5865C160.529 45.1198 159.856 44.4732 159.376 43.6465C158.909 42.8198 158.676 41.8865 158.676 40.8465C158.676 39.8198 158.903 38.8932 159.356 38.0665C159.823 37.2398 160.456 36.5998 161.256 36.1465C162.069 35.6798 162.983 35.4465 163.996 35.4465C165.009 35.4465 165.909 35.6798 166.696 36.1465C167.496 36.5998 168.116 37.2398 168.556 38.0665C169.009 38.8932 169.236 39.8398 169.236 40.9065ZM163.996 37.0665C163.076 37.0665 162.303 37.3465 161.676 37.9065C161.063 38.4665 160.703 39.1998 160.596 40.1065H167.396C167.289 39.2132 166.923 38.4865 166.296 37.9265C165.683 37.3532 164.916 37.0665 163.996 37.0665ZM182.893 35.4465C183.92 35.4465 184.84 35.6732 185.653 36.1265C186.466 36.5798 187.1 37.2132 187.553 38.0265C188.02 38.8398 188.253 39.7798 188.253 40.8465C188.253 41.9132 188.02 42.8598 187.553 43.6865C187.1 44.4998 186.466 45.1332 185.653 45.5865C184.84 46.0398 183.92 46.2665 182.893 46.2665C182.133 46.2665 181.433 46.1198 180.793 45.8265C180.166 45.5332 179.633 45.1065 179.193 44.5465V50.0265H177.273V35.5465H179.113V37.2265C179.54 36.6398 180.08 36.1998 180.733 35.9065C181.386 35.5998 182.106 35.4465 182.893 35.4465ZM182.733 44.5865C183.413 44.5865 184.02 44.4332 184.553 44.1265C185.1 43.8065 185.526 43.3665 185.833 42.8065C186.153 42.2332 186.313 41.5798 186.313 40.8465C186.313 40.1132 186.153 39.4665 185.833 38.9065C185.526 38.3332 185.1 37.8932 184.553 37.5865C184.02 37.2798 183.413 37.1265 182.733 37.1265C182.066 37.1265 181.46 37.2865 180.913 37.6065C180.38 37.9132 179.953 38.3465 179.633 38.9065C179.326 39.4665 179.173 40.1132 179.173 40.8465C179.173 41.5798 179.326 42.2332 179.633 42.8065C179.94 43.3665 180.366 43.8065 180.913 44.1265C181.46 44.4332 182.066 44.5865 182.733 44.5865ZM200.786 35.5465V46.1465H198.966V44.5465C198.579 45.0932 198.066 45.5198 197.426 45.8265C196.799 46.1198 196.113 46.2665 195.366 46.2665C193.953 46.2665 192.839 45.8798 192.026 45.1065C191.213 44.3198 190.806 43.1665 190.806 41.6465V35.5465H192.726V41.4265C192.726 42.4532 192.973 43.2332 193.466 43.7665C193.959 44.2865 194.666 44.5465 195.586 44.5465C196.599 44.5465 197.399 44.2398 197.986 43.6265C198.573 43.0132 198.866 42.1465 198.866 41.0265V35.5465H200.786ZM206.281 37.3265C206.614 36.7132 207.108 36.2465 207.761 35.9265C208.414 35.6065 209.208 35.4465 210.141 35.4465V37.3065C210.034 37.2932 209.888 37.2865 209.701 37.2865C208.661 37.2865 207.841 37.5998 207.241 38.2265C206.654 38.8398 206.361 39.7198 206.361 40.8665V46.1465H204.441V35.5465H206.281V37.3265ZM217.03 46.2665C215.95 46.2665 214.983 46.0332 214.13 45.5665C213.29 45.0998 212.63 44.4598 212.15 43.6465C211.67 42.8198 211.43 41.8865 211.43 40.8465C211.43 39.8065 211.67 38.8798 212.15 38.0665C212.63 37.2398 213.29 36.5998 214.13 36.1465C214.983 35.6798 215.95 35.4465 217.03 35.4465C217.99 35.4465 218.843 35.6398 219.59 36.0265C220.35 36.4132 220.937 36.9732 221.35 37.7065L219.89 38.6465C219.557 38.1398 219.143 37.7598 218.65 37.5065C218.157 37.2532 217.61 37.1265 217.01 37.1265C216.317 37.1265 215.69 37.2798 215.13 37.5865C214.583 37.8932 214.15 38.3332 213.83 38.9065C213.523 39.4665 213.37 40.1132 213.37 40.8465C213.37 41.5932 213.523 42.2532 213.83 42.8265C214.15 43.3865 214.583 43.8198 215.13 44.1265C215.69 44.4332 216.317 44.5865 217.01 44.5865C217.61 44.5865 218.157 44.4598 218.65 44.2065C219.143 43.9532 219.557 43.5732 219.89 43.0665L221.35 43.9865C220.937 44.7198 220.35 45.2865 219.59 45.6865C218.843 46.0732 217.99 46.2665 217.03 46.2665ZM229.359 35.4465C230.706 35.4465 231.772 35.8398 232.559 36.6265C233.359 37.3998 233.759 38.5398 233.759 40.0465V46.1465H231.839V40.2665C231.839 39.2398 231.592 38.4665 231.099 37.9465C230.606 37.4265 229.899 37.1665 228.979 37.1665C227.939 37.1665 227.119 37.4732 226.519 38.0865C225.919 38.6865 225.619 39.5532 225.619 40.6865V46.1465H223.699V31.3065H225.619V37.0465C226.019 36.5398 226.539 36.1465 227.179 35.8665C227.832 35.5865 228.559 35.4465 229.359 35.4465ZM241.172 35.4465C242.639 35.4465 243.759 35.8065 244.532 36.5265C245.319 37.2465 245.712 38.3198 245.712 39.7465V46.1465H243.892V44.7465C243.572 45.2398 243.112 45.6198 242.512 45.8865C241.926 46.1398 241.226 46.2665 240.412 46.2665C239.226 46.2665 238.272 45.9798 237.552 45.4065C236.846 44.8332 236.492 44.0798 236.492 43.1465C236.492 42.2132 236.832 41.4665 237.512 40.9065C238.192 40.3332 239.272 40.0465 240.752 40.0465H243.792V39.6665C243.792 38.8398 243.552 38.2065 243.072 37.7665C242.592 37.3265 241.886 37.1065 240.952 37.1065C240.326 37.1065 239.712 37.2132 239.112 37.4265C238.512 37.6265 238.006 37.8998 237.592 38.2465L236.792 36.8065C237.339 36.3665 237.992 36.0332 238.752 35.8065C239.512 35.5665 240.319 35.4465 241.172 35.4465ZM240.732 44.7865C241.466 44.7865 242.099 44.6265 242.632 44.3065C243.166 43.9732 243.552 43.5065 243.792 42.9065V41.4265H240.832C239.206 41.4265 238.392 41.9732 238.392 43.0665C238.392 43.5998 238.599 44.0198 239.012 44.3265C239.426 44.6332 239.999 44.7865 240.732 44.7865ZM252.305 46.2665C251.439 46.2665 250.605 46.1532 249.805 45.9265C249.005 45.6865 248.379 45.3865 247.925 45.0265L248.725 43.5065C249.192 43.8398 249.759 44.1065 250.425 44.3065C251.092 44.5065 251.765 44.6065 252.445 44.6065C254.125 44.6065 254.965 44.1265 254.965 43.1665C254.965 42.8465 254.852 42.5932 254.625 42.4065C254.399 42.2198 254.112 42.0865 253.765 42.0065C253.432 41.9132 252.952 41.8132 252.325 41.7065C251.472 41.5732 250.772 41.4198 250.225 41.2465C249.692 41.0732 249.232 40.7798 248.845 40.3665C248.459 39.9532 248.265 39.3732 248.265 38.6265C248.265 37.6665 248.665 36.8998 249.465 36.3265C250.265 35.7398 251.339 35.4465 252.685 35.4465C253.392 35.4465 254.099 35.5332 254.805 35.7065C255.512 35.8798 256.092 36.1132 256.545 36.4065L255.725 37.9265C254.859 37.3665 253.839 37.0865 252.665 37.0865C251.852 37.0865 251.232 37.2198 250.805 37.4865C250.379 37.7532 250.165 38.1065 250.165 38.5465C250.165 38.8932 250.285 39.1665 250.525 39.3665C250.765 39.5665 251.059 39.7132 251.405 39.8065C251.765 39.8998 252.265 40.0065 252.905 40.1265C253.759 40.2732 254.445 40.4332 254.965 40.6065C255.499 40.7665 255.952 41.0465 256.325 41.4465C256.699 41.8465 256.885 42.4065 256.885 43.1265C256.885 44.0865 256.472 44.8532 255.645 45.4265C254.832 45.9865 253.719 46.2665 252.305 46.2665ZM268.865 40.9065C268.865 41.0532 268.852 41.2465 268.825 41.4865H260.225C260.345 42.4198 260.752 43.1732 261.445 43.7465C262.152 44.3065 263.025 44.5865 264.065 44.5865C265.332 44.5865 266.352 44.1598 267.125 43.3065L268.185 44.5465C267.705 45.1065 267.105 45.5332 266.385 45.8265C265.678 46.1198 264.885 46.2665 264.005 46.2665C262.885 46.2665 261.892 46.0398 261.025 45.5865C260.158 45.1198 259.485 44.4732 259.005 43.6465C258.538 42.8198 258.305 41.8865 258.305 40.8465C258.305 39.8198 258.532 38.8932 258.985 38.0665C259.452 37.2398 260.085 36.5998 260.885 36.1465C261.698 35.6798 262.612 35.4465 263.625 35.4465C264.638 35.4465 265.538 35.6798 266.325 36.1465C267.125 36.5998 267.745 37.2398 268.185 38.0665C268.638 38.8932 268.865 39.8398 268.865 40.9065ZM263.625 37.0665C262.705 37.0665 261.932 37.3465 261.305 37.9065C260.692 38.4665 260.332 39.1998 260.225 40.1065H267.025C266.918 39.2132 266.552 38.4865 265.925 37.9265C265.312 37.3532 264.545 37.0665 263.625 37.0665ZM281.442 46.2665C280.389 46.2665 279.442 46.0332 278.602 45.5665C277.762 45.0998 277.102 44.4598 276.622 43.6465C276.155 42.8198 275.922 41.8865 275.922 40.8465C275.922 39.8065 276.155 38.8798 276.622 38.0665C277.102 37.2398 277.762 36.5998 278.602 36.1465C279.442 35.6798 280.389 35.4465 281.442 35.4465C282.495 35.4465 283.435 35.6798 284.262 36.1465C285.102 36.5998 285.755 37.2398 286.222 38.0665C286.702 38.8798 286.942 39.8065 286.942 40.8465C286.942 41.8865 286.702 42.8198 286.222 43.6465C285.755 44.4598 285.102 45.0998 284.262 45.5665C283.435 46.0332 282.495 46.2665 281.442 46.2665ZM281.442 44.5865C282.122 44.5865 282.729 44.4332 283.262 44.1265C283.809 43.8065 284.235 43.3665 284.542 42.8065C284.849 42.2332 285.002 41.5798 285.002 40.8465C285.002 40.1132 284.849 39.4665 284.542 38.9065C284.235 38.3332 283.809 37.8932 283.262 37.5865C282.729 37.2798 282.122 37.1265 281.442 37.1265C280.762 37.1265 280.149 37.2798 279.602 37.5865C279.069 37.8932 278.642 38.3332 278.322 38.9065C278.015 39.4665 277.862 40.1132 277.862 40.8465C277.862 41.5798 278.015 42.2332 278.322 42.8065C278.642 43.3665 279.069 43.8065 279.602 44.1265C280.149 44.4332 280.762 44.5865 281.442 44.5865ZM291.437 37.3265C291.771 36.7132 292.264 36.2465 292.917 35.9265C293.571 35.6065 294.364 35.4465 295.297 35.4465V37.3065C295.191 37.2932 295.044 37.2865 294.857 37.2865C293.817 37.2865 292.997 37.5998 292.397 38.2265C291.811 38.8398 291.517 39.7198 291.517 40.8665V46.1465H289.597V35.5465H291.437V37.3265ZM307.566 31.3065V46.1465H305.726V44.4665C305.299 45.0532 304.759 45.4998 304.106 45.8065C303.453 46.1132 302.733 46.2665 301.946 46.2665C300.919 46.2665 299.999 46.0398 299.186 45.5865C298.373 45.1332 297.733 44.4998 297.266 43.6865C296.813 42.8598 296.586 41.9132 296.586 40.8465C296.586 39.7798 296.813 38.8398 297.266 38.0265C297.733 37.2132 298.373 36.5798 299.186 36.1265C299.999 35.6732 300.919 35.4465 301.946 35.4465C302.706 35.4465 303.406 35.5932 304.046 35.8865C304.686 36.1665 305.219 36.5865 305.646 37.1465V31.3065H307.566ZM302.106 44.5865C302.773 44.5865 303.379 44.4332 303.926 44.1265C304.473 43.8065 304.899 43.3665 305.206 42.8065C305.513 42.2332 305.666 41.5798 305.666 40.8465C305.666 40.1132 305.513 39.4665 305.206 38.9065C304.899 38.3332 304.473 37.8932 303.926 37.5865C303.379 37.2798 302.773 37.1265 302.106 37.1265C301.426 37.1265 300.813 37.2798 300.266 37.5865C299.733 37.8932 299.306 38.3332 298.986 38.9065C298.679 39.4665 298.526 40.1132 298.526 40.8465C298.526 41.5798 298.679 42.2332 298.986 42.8065C299.306 43.3665 299.733 43.8065 300.266 44.1265C300.813 44.4332 301.426 44.5865 302.106 44.5865ZM320.779 40.9065C320.779 41.0532 320.766 41.2465 320.739 41.4865H312.139C312.259 42.4198 312.666 43.1732 313.359 43.7465C314.066 44.3065 314.939 44.5865 315.979 44.5865C317.246 44.5865 318.266 44.1598 319.039 43.3065L320.099 44.5465C319.619 45.1065 319.019 45.5332 318.299 45.8265C317.592 46.1198 316.799 46.2665 315.919 46.2665C314.799 46.2665 313.806 46.0398 312.939 45.5865C312.072 45.1198 311.399 44.4732 310.919 43.6465C310.452 42.8198 310.219 41.8865 310.219 40.8465C310.219 39.8198 310.446 38.8932 310.899 38.0665C311.366 37.2398 311.999 36.5998 312.799 36.1465C313.612 35.6798 314.526 35.4465 315.539 35.4465C316.552 35.4465 317.452 35.6798 318.239 36.1465C319.039 36.5998 319.659 37.2398 320.099 38.0665C320.552 38.8932 320.779 39.8398 320.779 40.9065ZM315.539 37.0665C314.619 37.0665 313.846 37.3465 313.219 37.9065C312.606 38.4665 312.246 39.1998 312.139 40.1065H318.939C318.832 39.2132 318.466 38.4865 317.839 37.9265C317.226 37.3532 316.459 37.0665 315.539 37.0665ZM325.285 37.3265C325.618 36.7132 326.112 36.2465 326.765 35.9265C327.418 35.6065 328.212 35.4465 329.145 35.4465V37.3065C329.038 37.2932 328.892 37.2865 328.705 37.2865C327.665 37.2865 326.845 37.5998 326.245 38.2265C325.658 38.8398 325.365 39.7198 325.365 40.8665V46.1465H323.445V35.5465H325.285V37.3265Z" fill="white"/>
<defs>
<linearGradient id="paint0_linear_1021_7405" x1="7.76011" y1="10" x2="357.82" y2="41.0305" gradientUnits="userSpaceOnUse">
<stop stop-color="#5A3895"/>
<stop offset="1" stop-color="#3C49A6"/>
</linearGradient>
</defs>
</svg>
