<svg width="281" height="277" viewBox="0 0 281 277" fill="none" xmlns="http://www.w3.org/2000/svg">
<g filter="url(#filter0_f_1155_12753)">
<path d="M167.596 228.044L108.782 229.329C99.6121 229.529 95.027 229.629 90.9595 228.309C87.3628 227.142 84.0743 225.182 81.3366 222.574C78.2405 219.624 76.1471 215.544 71.9602 207.383L71.9602 207.383L47.1583 159.04C43.44 151.792 41.5808 148.168 40.9245 144.373C40.3436 141.014 40.4491 137.572 41.2346 134.254C42.122 130.506 44.1996 127.003 48.3547 119.996L78.3192 69.4703C82.2777 62.7955 84.2569 59.4582 86.9665 56.9569C89.3656 54.7423 92.1715 53.0141 95.2287 51.868C98.6816 50.5736 102.553 50.3077 110.295 49.7758L110.295 49.7758L166.705 45.9007C175.917 45.2678 180.524 44.9514 184.67 46.0942C188.337 47.1047 191.728 48.9304 194.589 51.4351C197.826 54.2679 200.098 58.2876 204.641 66.3271L232.639 115.873C236.828 123.287 238.922 126.993 239.717 130.92C240.42 134.395 240.383 137.978 239.609 141.438C238.734 145.347 236.564 149.01 232.224 156.336L201.467 208.25C197.292 215.296 195.205 218.819 192.325 221.405C189.777 223.693 186.789 225.439 183.544 226.536C179.878 227.776 175.784 227.866 167.596 228.044Z" stroke="url(#paint0_linear_1155_12753)" stroke-width="5"/>
</g>
<path d="M167.596 228.044L108.782 229.329C99.6121 229.529 95.027 229.629 90.9595 228.309C87.3628 227.142 84.0743 225.182 81.3366 222.574C78.2405 219.624 76.1471 215.544 71.9602 207.383L71.9602 207.383L47.1583 159.04C43.44 151.792 41.5808 148.168 40.9245 144.373C40.3436 141.014 40.4491 137.572 41.2346 134.254C42.122 130.506 44.1996 127.003 48.3547 119.996L78.3192 69.4703C82.2777 62.7955 84.2569 59.4582 86.9665 56.9569C89.3656 54.7423 92.1715 53.0141 95.2287 51.868C98.6816 50.5736 102.553 50.3077 110.295 49.7758L110.295 49.7758L166.705 45.9007C175.917 45.2678 180.524 44.9514 184.67 46.0942C188.337 47.1047 191.728 48.9304 194.589 51.4351C197.826 54.2679 200.098 58.2876 204.641 66.3271L232.639 115.873C236.828 123.287 238.922 126.993 239.717 130.92C240.42 134.395 240.383 137.978 239.609 141.438C238.734 145.347 236.564 149.01 232.224 156.336L201.467 208.25C197.292 215.296 195.205 218.819 192.325 221.405C189.777 223.693 186.789 225.439 183.544 226.536C179.878 227.776 175.784 227.866 167.596 228.044Z" stroke="url(#paint1_linear_1155_12753)" stroke-width="5"/>
<path d="M113.161 129.176H168.072" stroke="#73A8F9" stroke-width="4.5759" stroke-linecap="round" stroke-linejoin="round"/>
<path fill-rule="evenodd" clip-rule="evenodd" d="M161.971 113.923H119.263C115.892 113.923 113.161 116.654 113.161 120.025V159.682C113.161 163.053 115.892 165.784 119.263 165.784H161.971C165.342 165.784 168.072 163.053 168.072 159.682V120.025C168.072 116.654 165.342 113.923 161.971 113.923Z" stroke="#73A8F9" stroke-width="4.5759" stroke-linecap="round" stroke-linejoin="round"/>
<path d="M131.464 129.176V165.784" stroke="#73A8F9" stroke-width="4.5759" stroke-linecap="round" stroke-linejoin="round"/>
<path d="M149.768 129.176V165.784" stroke="#73A8F9" stroke-width="4.5759" stroke-linecap="round" stroke-linejoin="round"/>
<path d="M113.161 147.48H168.072" stroke="#73A8F9" stroke-width="4.5759" stroke-linecap="round" stroke-linejoin="round"/>
<defs>
<filter id="filter0_f_1155_12753" x="0.185768" y="4.96152" width="280.402" height="264.857" filterUnits="userSpaceOnUse" color-interpolation-filters="sRGB">
<feFlood flood-opacity="0" result="BackgroundImageFix"/>
<feBlend mode="normal" in="SourceGraphic" in2="BackgroundImageFix" result="shape"/>
<feGaussianBlur stdDeviation="18.9348" result="effect1_foregroundBlur_1155_12753"/>
</filter>
<linearGradient id="paint0_linear_1155_12753" x1="89.999" y1="49.5" x2="83.499" y2="248" gradientUnits="userSpaceOnUse">
<stop stop-color="#C5EAFF" stop-opacity="0"/>
<stop offset="1" stop-color="#75ACFF"/>
</linearGradient>
<linearGradient id="paint1_linear_1155_12753" x1="94.999" y1="52.5" x2="105.999" y2="256.5" gradientUnits="userSpaceOnUse">
<stop stop-color="#59B9EE" stop-opacity="0.25"/>
<stop offset="1" stop-color="#6CA1F1"/>
</linearGradient>
</defs>
</svg>
