<svg width="286" height="292" viewBox="0 0 286 292" fill="none" xmlns="http://www.w3.org/2000/svg">
<g filter="url(#filter0_f_1024_10966)">
<path d="M130.275 52.3647L56.893 97.5495C52.4724 100.271 49.9691 105.257 50.4268 110.429L58.1097 197.239C58.564 202.373 61.8596 206.818 66.6398 208.744L146.88 241.076C151.022 242.745 155.717 242.291 159.463 239.86L229.556 194.375C233.812 191.612 236.194 186.724 235.747 181.669L228.038 94.5595C227.587 89.4663 224.339 85.0475 219.612 83.0976L142.688 51.3653C138.629 49.691 134.014 50.0626 130.275 52.3647Z" stroke="url(#paint0_linear_1024_10966)" stroke-width="6.21816"/>
</g>
<path d="M130.272 52.3647L56.8897 97.5495C52.4692 100.271 49.9659 105.257 50.4236 110.429L58.1065 197.239C58.5608 202.373 61.8564 206.818 66.6365 208.744L146.877 241.076C151.019 242.745 155.714 242.291 159.46 239.86L229.552 194.375C233.809 191.612 236.191 186.724 235.744 181.669L228.034 94.5595C227.584 89.4663 224.335 85.0475 219.609 83.0976L142.684 51.3653C138.626 49.691 134.01 50.0626 130.272 52.3647Z" stroke="url(#paint1_linear_1024_10966)" stroke-width="6"/>
<path fill-rule="evenodd" clip-rule="evenodd" d="M119.014 131.557C119.014 125.614 123.833 120.796 129.776 120.796H161.68C167.623 120.796 172.442 125.614 172.442 131.557V163.462C172.442 169.405 167.623 174.223 161.68 174.223H129.776C123.833 174.223 119.014 169.405 119.014 163.462V131.557ZM129.776 116.796C121.624 116.796 115.014 123.405 115.014 131.557V163.462C115.014 171.614 121.624 178.223 129.776 178.223H161.68C169.832 178.223 176.442 171.614 176.442 163.462V131.557C176.442 123.405 169.832 116.796 161.68 116.796H129.776ZM145.734 130.368C142.022 130.368 138.961 133.46 138.961 137.177C138.961 140.873 142.001 143.915 145.734 143.915C149.446 143.915 152.508 140.824 152.508 137.107C152.508 133.41 149.467 130.368 145.734 130.368ZM134.961 137.177C134.961 131.278 139.786 126.368 145.734 126.368C151.662 126.368 156.508 131.187 156.508 137.107C156.508 143.005 151.683 147.915 145.734 147.915C139.807 147.915 134.961 143.096 134.961 137.177ZM138.682 155.889C134.885 155.889 131.774 159.002 131.774 162.794V164.523C131.774 164.553 131.784 164.583 131.813 164.612C131.842 164.641 131.872 164.651 131.902 164.651H159.55C159.58 164.651 159.611 164.641 159.64 164.612C159.669 164.582 159.678 164.553 159.678 164.526V162.797C159.678 159.001 156.566 155.889 152.774 155.889H138.682ZM127.774 162.794C127.774 156.792 132.677 151.889 138.682 151.889H152.774C158.776 151.889 163.678 156.793 163.678 162.797V164.526C163.678 166.801 161.824 168.651 159.55 168.651H131.902C129.627 168.651 127.774 166.799 127.774 164.523V162.794Z" fill="url(#paint2_linear_1024_10966)"/>
<defs>
<filter id="filter0_f_1024_10966" x="0.627903" y="0.584293" width="284.918" height="291.23" filterUnits="userSpaceOnUse" color-interpolation-filters="sRGB">
<feFlood flood-opacity="0" result="BackgroundImageFix"/>
<feBlend mode="normal" in="SourceGraphic" in2="BackgroundImageFix" result="shape"/>
<feGaussianBlur stdDeviation="23.3181" result="effect1_foregroundBlur_1024_10966"/>
</filter>
<linearGradient id="paint0_linear_1024_10966" x1="172.936" y1="251.672" x2="102.204" y2="110.986" gradientUnits="userSpaceOnUse">
<stop stop-color="#E9A867"/>
<stop offset="1" stop-color="#E77565" stop-opacity="0"/>
</linearGradient>
<linearGradient id="paint1_linear_1024_10966" x1="182.26" y1="283.54" x2="53.2329" y2="83.7816" gradientUnits="userSpaceOnUse">
<stop stop-color="#A2817B"/>
<stop offset="1" stop-color="#B45F54" stop-opacity="0"/>
</linearGradient>
<linearGradient id="paint2_linear_1024_10966" x1="185.658" y1="197.686" x2="96.5882" y2="73.1456" gradientUnits="userSpaceOnUse">
<stop stop-color="#836771"/>
<stop offset="1" stop-color="#D89A75" stop-opacity="0.51"/>
</linearGradient>
</defs>
</svg>
