<svg width="201" height="211" viewBox="0 0 201 211" fill="none" xmlns="http://www.w3.org/2000/svg">
<path d="M83.7351 173.538L119.251 174.313C128.034 174.505 132.425 174.601 136.321 173.337C139.766 172.219 142.916 170.342 145.538 167.844C148.503 165.019 150.508 161.11 154.518 153.294L169.181 124.713L169.181 124.713C172.743 117.771 174.523 114.3 175.152 110.665C175.708 107.448 175.607 104.151 174.855 100.974C174.005 97.3841 172.015 94.0288 168.035 87.3183L149.528 56.1118C145.737 49.7189 143.842 46.5225 141.246 44.1269C138.949 42.0058 136.261 40.3506 133.333 39.2529C130.026 38.0132 126.318 37.7585 118.903 37.2491L118.903 37.2491L84.9954 34.9198C76.1719 34.3136 71.7602 34.0106 67.7885 35.1051C64.2769 36.0729 61.0294 37.8215 58.2884 40.2204C55.1883 42.9336 53.0127 46.7836 48.6615 54.4835L32.0113 83.9483C27.9991 91.0484 25.993 94.5985 25.2322 98.3596C24.5591 101.687 24.5943 105.12 25.3355 108.433C26.1733 112.178 28.2518 115.686 32.4088 122.702L51.2947 154.579L51.2948 154.579C55.293 161.327 57.2921 164.701 60.0501 167.178C62.4911 169.37 65.3526 171.042 68.4605 172.093C71.972 173.281 75.893 173.366 83.7351 173.538Z" stroke="url(#paint0_linear_1155_12769)" stroke-width="5"/>
<path fill-rule="evenodd" clip-rule="evenodd" d="M89.0159 129.861H115.833C120.276 129.861 123.878 126.259 123.878 121.816V95.9955C123.878 93.8618 123.031 91.8155 121.522 90.3067L115.162 83.9465C113.653 82.4378 111.607 81.5901 109.473 81.5901H89.0159C84.5726 81.5901 80.9707 85.1921 80.9707 89.6353V121.816C80.9707 126.259 84.5726 129.861 89.0159 129.861Z" stroke="#EFBBD1" stroke-width="3.02252" stroke-linecap="round" stroke-linejoin="round"/>
<path d="M113.152 119.134H91.6982" stroke="#EFBBD1" stroke-width="3.02252" stroke-linecap="round" stroke-linejoin="round"/>
<path d="M113.152 109.748H91.6982" stroke="#EFBBD1" stroke-width="3.02252" stroke-linecap="round" stroke-linejoin="round"/>
<path d="M99.7434 100.362H91.6982" stroke="#EFBBD1" stroke-width="3.02252" stroke-linecap="round" stroke-linejoin="round"/>
<path d="M123.879 96.3396H114.493C111.531 96.3396 109.13 93.9383 109.13 90.9762V81.5901" stroke="#EFBBD1" stroke-width="3.02252" stroke-linecap="round" stroke-linejoin="round"/>
<defs>
<linearGradient id="paint0_linear_1155_12769" x1="54.6898" y1="26.3467" x2="199.999" y2="210" gradientUnits="userSpaceOnUse">
<stop stop-color="#E6B69C" stop-opacity="0.44"/>
<stop offset="1" stop-color="#EFA0E6"/>
</linearGradient>
</defs>
</svg>
