<svg width="149" height="33" viewBox="0 0 149 33" fill="none" xmlns="http://www.w3.org/2000/svg">
<path fill-rule="evenodd" clip-rule="evenodd" d="M44.8901 7.65652H62.9195V11.2418H48.9783V16.5164H60.8174V19.8824H48.9783V27.8138H44.8901V7.65652ZM66.4918 6.41846H70.3092V27.8138H66.4918V6.41846ZM96.2712 10.3691C96.5808 10.4723 96.9247 10.5239 97.303 10.5239C97.6899 10.5239 98.0338 10.4723 98.3347 10.3691C98.6442 10.2573 98.9064 10.1112 99.1214 9.93062C99.3363 9.74147 99.4997 9.52653 99.6115 9.28579C99.7318 9.03646 99.792 8.77423 99.792 8.4991C99.792 8.21538 99.7318 7.95315 99.6115 7.71241C99.4997 7.46308 99.3363 7.24814 99.1214 7.06759C98.9064 6.88703 98.6442 6.74517 98.3347 6.642C98.0338 6.53023 97.6899 6.47435 97.303 6.47435C96.9247 6.47435 96.5808 6.53023 96.2712 6.642C95.9703 6.74517 95.7124 6.88703 95.4975 7.06759C95.2825 7.24814 95.1149 7.46308 94.9945 7.71241C94.8827 7.95315 94.8268 8.21538 94.8268 8.4991C94.8268 8.77423 94.8827 9.03646 94.9945 9.28579C95.1149 9.52653 95.2825 9.74147 95.4975 9.93062C95.7124 10.1112 95.9703 10.2573 96.2712 10.3691ZM99.2117 12.6002H95.3943V26.2961C95.0086 23.9439 93.7475 22.0001 92.0951 20.5178C91.8919 20.3356 91.6825 20.1599 91.4674 19.9906C91.4693 19.9353 91.4709 19.8797 91.4721 19.8238C91.5276 17.2841 90.8195 15.2098 89.5407 13.6189C88.2782 12.0483 86.5578 11.0694 84.7736 10.5176C81.2877 9.43957 77.1838 9.87576 74.572 11.1698L74.5631 11.1738V15.0364C74.9913 14.7166 75.4629 14.4351 75.9824 14.199L76.0104 14.1863L76.038 14.1725C77.8587 13.2624 81.0891 12.8757 83.7863 13.7098C85.0999 14.1161 86.1883 14.7817 86.9363 15.7123C87.4044 16.2946 87.7792 17.0296 87.978 17.9667C87.0121 17.5637 86.0151 17.2552 85.0261 17.041C82.5246 16.4995 79.8795 16.5213 77.7646 17.3369C76.6925 17.7503 75.6995 18.3915 74.9702 19.3261C74.227 20.2784 73.8282 21.447 73.8282 22.767C73.8282 24.9285 75.2341 26.5307 76.8479 27.4903C78.477 28.459 80.5674 28.9523 82.6245 28.8794C84.6884 28.8062 86.8697 28.1554 88.5757 26.6524C89.4431 25.8882 90.1483 24.9378 90.6461 23.8051C91.6152 24.9447 92.1755 26.2859 92.1755 27.8182H95.5169C95.5169 27.8182 95.5169 27.8181 95.5169 27.8181H99.2117V12.6002ZM107.642 12.6002H103.825V27.8181H107.642V18.7647C108.339 17.8362 109.241 17.1183 110.35 16.611C111.468 16.0952 112.762 15.7641 114.232 15.618L113.11 12.123C112.182 12.3638 111.249 12.712 110.312 13.1676C109.375 13.6233 108.485 14.165 107.642 14.7926V12.6002ZM115.304 20.1576C115.304 19.1258 115.514 18.1414 115.936 17.2043C116.357 16.2585 116.963 15.4245 117.754 14.7023C118.545 13.9801 119.512 13.4041 120.656 12.9742C121.808 12.5443 123.115 12.3294 124.576 12.3294C126.029 12.3294 127.336 12.5486 128.497 12.9871C129.666 13.417 130.655 14.0102 131.463 14.7668C132.28 15.5234 132.903 16.4133 133.333 17.4364C133.772 18.4595 133.991 19.5557 133.991 20.725C133.991 20.8712 133.986 21.0302 133.978 21.2022C133.978 21.3655 133.969 21.516 133.952 21.6536H119.56C119.723 22.1092 119.985 22.5262 120.346 22.9045C120.716 23.2828 121.176 23.6095 121.726 23.8847C122.276 24.1598 122.913 24.3747 123.635 24.5295C124.357 24.6757 125.157 24.7487 126.034 24.7487C126.911 24.7487 127.783 24.6585 128.652 24.4779C129.52 24.2888 130.35 24.0523 131.141 23.7686L132.43 26.6832C131.932 26.9154 131.424 27.1217 130.909 27.3022C130.401 27.4742 129.868 27.6204 129.309 27.7407C128.759 27.8525 128.179 27.9385 127.568 27.9987C126.966 28.0588 126.33 28.0889 125.66 28.0889C123.949 28.0889 122.448 27.8826 121.159 27.4699C119.869 27.0572 118.79 26.4941 117.922 25.7805C117.053 25.0668 116.4 24.2286 115.961 23.2656C115.523 22.3027 115.304 21.2667 115.304 20.1576ZM129.941 18.6745C129.804 18.2532 129.589 17.862 129.296 17.5009C129.013 17.1312 128.656 16.8131 128.226 16.5465C127.796 16.2714 127.297 16.0565 126.73 15.9017C126.163 15.747 125.539 15.6696 124.86 15.6696C124.138 15.6696 123.48 15.7513 122.887 15.9146C122.294 16.078 121.773 16.2972 121.326 16.5723C120.879 16.8475 120.505 17.1656 120.204 17.5267C119.912 17.8878 119.697 18.2704 119.56 18.6745H129.941ZM84.3191 20.3068C85.5613 20.5757 86.7845 21.0216 87.8809 21.62C87.5744 22.7624 87.0174 23.572 86.3668 24.1452C85.3697 25.0237 83.9895 25.4875 82.506 25.5401C81.0157 25.5929 79.573 25.2232 78.5557 24.6183C77.5232 24.0044 77.1696 23.3223 77.1696 22.767C77.1696 22.1506 77.3442 21.7151 77.6044 21.3818C77.8784 21.0306 78.3188 20.7044 78.9668 20.4545C80.292 19.9435 82.2337 19.8553 84.3191 20.3068Z" fill="#17194B"/>
<g clip-path="url(#clip0_1155_13641)">
<path fill-rule="evenodd" clip-rule="evenodd" d="M-11.7057 37.4485C-6.09474 21.3041 2.13415 12.1257 8.65248 8.38169C14.8159 4.84155 19.9545 5.62747 22.1516 7.80756C22.5124 7.77562 22.8726 7.74886 23.232 7.72725L23.2255 7.73339C23.3053 7.72838 23.3851 7.72363 23.4649 7.71912C25.4279 7.60833 27.3829 7.68842 29.2824 7.98385C28.8804 6.53882 28.2626 5.2403 27.4684 4.14842C24.263 -0.313629 15.9669 -1.22084 8.07958 4.06948C0.0725756 9.44007 -6.94365 19.9221 -13.035 37.4487L-11.7057 37.4485ZM23.6229 18.0047C23.2557 19.0529 22.7451 20.0784 22.0893 21.0393C19.7498 24.4674 15.6527 26.6393 11.8525 26.9287C10.0046 27.0694 8.48104 26.728 7.51149 26.0527C6.5849 25.4072 6.23511 24.5294 6.3459 23.499L6.35369 23.4969C6.38377 23.2557 6.43516 23.0069 6.51047 22.7521C6.99825 21.2826 8.48679 19.4714 10.8953 18.0032C13.6868 16.3017 17.3274 15.7023 21.4064 15.9701C29.4514 16.4982 37.1675 22.2004 36.3935 36.2293L41.9113 34.3571C41.9621 33.4369 41.9815 32.5473 41.9711 31.6875L42.3798 31.5488C43.2982 14.9018 33.819 8.91324 23.8173 9.04267C18.887 9.10647 13.6962 10.3612 9.46359 12.9819C6.27797 14.9543 3.34757 17.9967 1.8435 21.4785C1.359 22.5527 1.02222 23.6938 0.872648 24.893L0.88192 24.8905L0.880322 24.9029L0.871764 24.9052C0.49284 27.9431 1.62762 30.0418 3.39677 31.2741C5.14164 32.4896 7.56712 32.9309 10.147 32.7344C15.2024 32.3495 21.8758 29.3678 26.1741 23.0696C26.8601 22.0645 27.4406 21.0495 27.9227 20.0354C26.8155 18.9779 25.4118 18.3391 23.9408 18.0611C23.8344 18.041 23.7284 18.0222 23.6229 18.0047Z" fill="#17194B"/>
</g>
<defs>
<clipPath id="clip0_1155_13641">
<rect width="35.0873" height="32.2469" fill="white" transform="translate(0 0.441406)"/>
</clipPath>
</defs>
</svg>
