<svg width="145" height="139" viewBox="0 0 145 139" fill="none" xmlns="http://www.w3.org/2000/svg">
<g opacity="0.5" filter="url(#filter0_f_1024_10937)">
<path d="M59.2127 108.086L87.9274 108.713C93.3079 108.83 98.283 105.865 100.74 101.077L112.973 77.2315C115.179 72.9326 115.021 67.8022 112.557 63.6464L98.0906 39.2534C95.7338 35.2794 91.5743 32.7174 86.9648 32.4008L59.3615 30.5046C53.9599 30.1335 48.8254 32.8981 46.1617 37.6119L32.3903 61.9823C29.9149 66.3628 29.9699 71.7324 32.5346 76.0612L47.4275 101.198C49.9025 105.376 54.3583 107.98 59.2127 108.086Z" stroke="url(#paint0_linear_1024_10937)" stroke-width="4"/>
</g>
<path opacity="0.5" d="M59.2127 108.086L87.9274 108.713C93.3079 108.83 98.283 105.865 100.74 101.077L112.973 77.2315C115.179 72.9326 115.021 67.8022 112.557 63.6464L98.0906 39.2534C95.7338 35.2794 91.5743 32.7174 86.9648 32.4008L59.3615 30.5046C53.9599 30.1335 48.8254 32.8981 46.1617 37.6119L32.3903 61.9823C29.9149 66.3628 29.9699 71.7324 32.5346 76.0612L47.4275 101.198C49.9025 105.376 54.3583 107.98 59.2127 108.086Z" stroke="url(#paint1_linear_1024_10937)" stroke-width="4"/>
<path fill-rule="evenodd" clip-rule="evenodd" d="M84.5158 83.6585H60.9614C59.3341 83.6585 58.016 82.3404 58.016 80.7131V60.0952C58.016 58.4679 59.3341 57.1498 60.9614 57.1498H84.5158C86.1432 57.1498 87.4612 58.4679 87.4612 60.0952V80.7131C87.4612 82.3404 86.1417 83.6585 84.5158 83.6585Z" stroke="#635181" stroke-width="2.20906" stroke-linecap="round" stroke-linejoin="round"/>
<path d="M68.9441 63.9034C70.0944 65.0537 70.0944 66.9186 68.9441 68.0688C67.7939 69.2191 65.929 69.2191 64.7787 68.0688C63.6285 66.9186 63.6285 65.0537 64.7787 63.9034C65.929 62.7531 67.7939 62.7531 68.9441 63.9034" stroke="#635181" stroke-width="2.20906" stroke-linecap="round" stroke-linejoin="round"/>
<path d="M87.4609 76.295L81.2476 71.3246C80.6129 70.8166 79.6851 70.9196 79.177 71.5544L74.264 77.6956C73.756 78.3303 72.8296 78.4334 72.1934 77.9253L69.4424 75.7236C68.8165 75.2229 67.9049 75.3142 67.3909 75.9313L60.9523 83.6585" stroke="#635181" stroke-width="2.20906" stroke-linecap="round" stroke-linejoin="round"/>
<defs>
<filter id="filter0_f_1024_10937" x="0.461494" y="0.361214" width="144.171" height="138.465" filterUnits="userSpaceOnUse" color-interpolation-filters="sRGB">
<feFlood flood-opacity="0" result="BackgroundImageFix"/>
<feBlend mode="normal" in="SourceGraphic" in2="BackgroundImageFix" result="shape"/>
<feGaussianBlur stdDeviation="14.0551" result="effect1_foregroundBlur_1024_10937"/>
</filter>
<linearGradient id="paint0_linear_1024_10937" x1="62.2097" y1="128.078" x2="65.7235" y2="24.7731" gradientUnits="userSpaceOnUse">
<stop stop-color="#BE88C5"/>
<stop offset="1" stop-color="#BE88C5" stop-opacity="0"/>
</linearGradient>
<linearGradient id="paint1_linear_1024_10937" x1="62.2097" y1="128.078" x2="64.318" y2="2.285" gradientUnits="userSpaceOnUse">
<stop stop-color="#BE88C5"/>
<stop offset="1" stop-color="#BE88C5" stop-opacity="0"/>
</linearGradient>
</defs>
</svg>
