<svg width="32" height="32" viewBox="0 0 32 32" fill="none" xmlns="http://www.w3.org/2000/svg">
<path d="M18.3571 13.6428C19.6588 14.9446 19.6588 17.0551 18.3571 18.3569C17.0553 19.6586 14.9448 19.6586 13.643 18.3569C12.3413 17.0551 12.3413 14.9446 13.643 13.6428C14.9448 12.3411 17.0553 12.3411 18.3571 13.6428" stroke="#ABAAC4" stroke-width="2" stroke-linecap="round" stroke-linejoin="round"/>
<path fill-rule="evenodd" clip-rule="evenodd" d="M19.7987 5.49327L20.576 5.75194C21.288 5.98927 21.7693 6.65594 21.7693 7.40661V8.52261C21.7693 9.47194 22.5267 10.2466 23.476 10.2666L24.5933 10.2906C25.24 10.3039 25.8267 10.6759 26.116 11.2546L26.4827 11.9879C26.8187 12.6599 26.6867 13.4706 26.156 14.0013L25.3667 14.7906C24.696 15.4613 24.684 16.5453 25.34 17.2306L26.1133 18.0386C26.5613 18.5066 26.7133 19.1826 26.508 19.7973L26.2493 20.5746C26.012 21.2866 25.3453 21.7679 24.5947 21.7679H23.4787C22.5293 21.7679 21.7547 22.5253 21.7347 23.4746L21.7107 24.5919C21.6973 25.2386 21.3253 25.8253 20.7467 26.1146L20.0133 26.4813C19.3413 26.8173 18.5307 26.6853 18 26.1546L17.2107 25.3653C16.54 24.6946 15.456 24.6826 14.7707 25.3386L13.9627 26.1119C13.4947 26.5599 12.8187 26.7119 12.204 26.5066L11.4267 26.2479C10.7147 26.0106 10.2333 25.3439 10.2333 24.5933V23.4773C10.2333 22.5279 9.47599 21.7533 8.52666 21.7333L7.40932 21.7093C6.76266 21.6959 6.17599 21.3239 5.88666 20.7453L5.51999 20.0119C5.18399 19.3399 5.31599 18.5293 5.84666 17.9986L6.63599 17.2093C7.30666 16.5386 7.31866 15.4546 6.66266 14.7693L5.88932 13.9613C5.43999 13.4919 5.28799 12.8146 5.49332 12.2013L5.75199 11.4239C5.98932 10.7119 6.65599 10.2306 7.40666 10.2306H8.52266C9.47199 10.2306 10.2467 9.47327 10.2667 8.52394L10.2907 7.40661C10.3067 6.75994 10.6773 6.17327 11.256 5.88394L11.9893 5.51727C12.6613 5.18127 13.472 5.31327 14.0027 5.84394L14.792 6.63327C15.4627 7.30394 16.5467 7.31594 17.232 6.65994L18.04 5.88661C18.508 5.43994 19.1853 5.28794 19.7987 5.49327V5.49327Z" stroke="#ABAAC4" stroke-width="2" stroke-linecap="round" stroke-linejoin="round"/>
</svg>
