<svg width="166" height="302" viewBox="0 0 166 302" fill="none" xmlns="http://www.w3.org/2000/svg">
<path d="M122.5 10.2493L123.75 10.2493L123.75 7.74927L122.5 7.74927L122.5 10.2493ZM88.5001 26.142L87.2501 26.142L88.5001 26.142ZM89.75 189.408L89.75 188.158L87.25 188.158L87.25 189.408L89.75 189.408ZM87.25 180.769L87.25 182.019L89.75 182.019L89.75 180.769L87.25 180.769ZM89.75 175.586L89.75 174.336L87.25 174.336L87.25 175.586L89.75 175.586ZM87.25 166.948L87.25 168.198L89.75 168.198L89.75 166.948L87.25 166.948ZM89.75 161.765L89.75 160.515L87.25 160.515L87.25 161.765L89.75 161.765ZM87.25 153.126L87.25 154.376L89.75 154.376L89.75 153.126L87.25 153.126ZM89.75 147.943L89.75 146.693L87.25 146.693L87.25 147.943L89.75 147.943ZM87.25 139.305L87.25 140.555L89.75 140.555L89.75 139.305L87.25 139.305ZM89.75 134.122L89.75 132.872L87.25 132.872L87.25 134.122L89.75 134.122ZM87.25 125.484L87.25 126.734L89.75 126.734L89.75 125.484L87.25 125.484ZM89.75 120.301L89.75 119.051L87.25 119.051L87.25 120.301L89.75 120.301ZM87.25 111.662L87.25 112.912L89.75 112.912L89.75 111.662L87.25 111.662ZM89.75 106.479L89.75 105.229L87.25 105.229L87.25 106.479L89.75 106.479ZM87.25 97.8407L87.25 99.0907L89.75 99.0907L89.75 97.8407L87.25 97.8407ZM89.75 92.6577L89.75 91.4077L87.25 91.4077L87.25 92.6577L89.75 92.6577ZM87.25 84.0193L87.25 85.2693L89.75 85.2693L89.75 84.0193L87.25 84.0193ZM89.75 78.8363L89.75 77.5863L87.25 77.5863L87.25 78.8363L89.75 78.8363ZM87.25 70.1979L87.25 71.4479L89.75 71.4479L89.75 70.1979L87.25 70.1979ZM89.75 65.0148L89.7501 63.7648L87.2501 63.7648L87.25 65.0148L89.75 65.0148ZM87.2501 56.3764L87.2501 57.6264L89.7501 57.6264L89.7501 56.3764L87.2501 56.3764ZM89.7501 51.1934L89.7501 49.9434L87.2501 49.9434L87.2501 51.1934L89.7501 51.1934ZM87.2501 42.555L87.2501 43.805L89.7501 43.805L89.7501 42.555L87.2501 42.555ZM89.7501 37.372L89.7501 36.122L87.2501 36.122L87.2501 37.372L89.7501 37.372ZM87.2501 28.7336L87.2501 29.9836L89.7501 29.9836L89.7501 28.7336L87.2501 28.7336ZM89.9201 23.8076L90.1021 22.5709L87.6287 22.2071L87.4468 23.4438L89.9201 23.8076ZM90.8692 15.1842L90.1238 16.1876L92.1307 17.6784L92.8761 16.675L90.8692 15.1842ZM96.1759 13.3752L97.1794 12.6298L95.6886 10.6229L94.6851 11.3683L96.1759 13.3752ZM102.945 7.94585L101.708 8.12776L102.072 10.6011L103.309 10.4192L102.945 7.94585ZM108.804 10.2492L110.054 10.2492L110.054 7.74921L108.804 7.7492L108.804 10.2492ZM119.339 7.74925L118.089 7.74925L118.089 10.2492L119.339 10.2493L119.339 7.74925ZM89.75 191.999L89.75 189.408L87.25 189.408L87.25 191.999L89.75 191.999ZM89.75 180.769L89.75 175.586L87.25 175.586L87.25 180.769L89.75 180.769ZM89.75 166.948L89.75 161.765L87.25 161.765L87.25 166.948L89.75 166.948ZM89.75 153.126L89.75 147.943L87.25 147.943L87.25 153.126L89.75 153.126ZM89.75 139.305L89.75 134.122L87.25 134.122L87.25 139.305L89.75 139.305ZM89.75 125.484L89.75 120.301L87.25 120.301L87.25 125.484L89.75 125.484ZM89.75 111.662L89.75 106.479L87.25 106.479L87.25 111.662L89.75 111.662ZM89.75 97.8407L89.75 92.6577L87.25 92.6577L87.25 97.8407L89.75 97.8407ZM89.75 84.0193L89.75 78.8363L87.25 78.8363L87.25 84.0193L89.75 84.0193ZM89.75 70.1979L89.75 65.0148L87.25 65.0148L87.25 70.1979L89.75 70.1979ZM89.7501 56.3764L89.7501 51.1934L87.2501 51.1934L87.2501 56.3764L89.7501 56.3764ZM89.7501 42.555L89.7501 37.372L87.2501 37.372L87.2501 42.555L89.7501 42.555ZM89.7501 28.7336L89.7501 26.142L87.2501 26.142L87.2501 28.7336L89.7501 28.7336ZM89.7501 26.142C89.7501 25.3483 89.8082 24.5689 89.9201 23.8076L87.4468 23.4438C87.3171 24.3251 87.2501 25.2261 87.2501 26.142L89.7501 26.142ZM92.8761 16.675C93.8083 15.4202 94.9211 14.3073 96.1759 13.3752L94.6851 11.3683C93.234 12.4463 91.9472 13.733 90.8692 15.1842L92.8761 16.675ZM103.309 10.4192C104.07 10.3073 104.849 10.2492 105.643 10.2492L105.643 7.74918C104.727 7.74918 103.826 7.81622 102.945 7.94585L103.309 10.4192ZM105.643 10.2492L108.804 10.2492L108.804 7.7492L105.643 7.74918L105.643 10.2492ZM119.339 10.2493L122.5 10.2493L122.5 7.74927L119.339 7.74925L119.339 10.2493Z" fill="url(#paint0_radial_1146_6900)"/>
<path d="M14 281.25L12.75 281.25L12.75 283.75L14 283.75L14 281.25ZM89.0001 272.5L87.7501 272.5L89.0001 272.5ZM79.0001 282.5L79.0001 281.25L79.0001 282.5ZM16.4375 283.75L17.6875 283.75L17.6875 281.25L16.4375 281.25L16.4375 283.75ZM24.5625 281.25L23.3125 281.25L23.3125 283.75L24.5625 283.75L24.5625 281.25ZM29.4375 283.75L30.6875 283.75L30.6875 281.25L29.4375 281.25L29.4375 283.75ZM37.5625 281.25L36.3125 281.25L36.3125 283.75L37.5625 283.75L37.5625 281.25ZM42.4375 283.75L43.6875 283.75L43.6875 281.25L42.4375 281.25L42.4375 283.75ZM50.5626 281.25L49.3125 281.25L49.3125 283.75L50.5625 283.75L50.5626 281.25ZM55.4375 283.75L56.6875 283.75L56.6876 281.25L55.4376 281.25L55.4375 283.75ZM63.5626 281.25L62.3126 281.25L62.3126 283.75L63.5626 283.75L63.5626 281.25ZM68.4376 283.75L69.6876 283.75L69.6876 281.25L68.4376 281.25L68.4376 283.75ZM76.5626 281.25L75.3126 281.25L75.3126 283.75L76.5626 283.75L76.5626 281.25ZM82.2663 283.269L83.4626 282.906L82.7377 280.513L81.5414 280.876L82.2663 283.269ZM87.3756 275.042L87.0132 276.238L89.4058 276.963L89.7682 275.767L87.3756 275.042ZM90.2501 270.138L90.2501 268.888L87.7501 268.888L87.7501 270.138L90.2501 270.138ZM87.7501 262.263L87.7501 263.513L90.2501 263.513L90.2501 262.263L87.7501 262.263ZM90.2501 257.538L90.2501 256.288L87.7501 256.288L87.7501 257.538L90.2501 257.538ZM87.7501 249.663L87.7501 250.913L90.2501 250.913L90.2501 249.663L87.7501 249.663ZM90.2501 244.938L90.2501 243.688L87.7501 243.688L87.7501 244.938L90.2501 244.938ZM87.7501 237.063L87.7501 238.313L90.2501 238.313L90.2501 237.063L87.7501 237.063ZM90.2501 232.338L90.2501 231.088L87.7501 231.088L87.7501 232.338L90.2501 232.338ZM87.7501 224.463L87.7501 225.713L90.2501 225.713L90.2501 224.463L87.7501 224.463ZM90.2501 219.738L90.2501 218.488L87.7501 218.488L87.7501 219.738L90.2501 219.738ZM87.7501 211.863L87.7501 213.113L90.2501 213.113L90.2501 211.863L87.7501 211.863ZM14 283.75L16.4375 283.75L16.4375 281.25L14 281.25L14 283.75ZM24.5625 283.75L29.4375 283.75L29.4375 281.25L24.5625 281.25L24.5625 283.75ZM37.5625 283.75L42.4375 283.75L42.4375 281.25L37.5625 281.25L37.5625 283.75ZM50.5625 283.75L55.4375 283.75L55.4376 281.25L50.5626 281.25L50.5625 283.75ZM63.5626 283.75L68.4376 283.75L68.4376 281.25L63.5626 281.25L63.5626 283.75ZM76.5626 283.75L79.0001 283.75L79.0001 281.25L76.5626 281.25L76.5626 283.75ZM79.0001 283.75C80.1341 283.75 81.2311 283.582 82.2663 283.269L81.5414 280.876C80.7387 281.119 79.8858 281.25 79.0001 281.25L79.0001 283.75ZM89.7682 275.767C90.0819 274.731 90.2501 273.634 90.2501 272.5L87.7501 272.5C87.7501 273.386 87.6189 274.239 87.3756 275.042L89.7682 275.767ZM90.2501 272.5L90.2501 270.138L87.7501 270.138L87.7501 272.5L90.2501 272.5ZM90.2501 262.263L90.2501 257.538L87.7501 257.538L87.7501 262.263L90.2501 262.263ZM90.2501 249.663L90.2501 244.938L87.7501 244.938L87.7501 249.663L90.2501 249.663ZM90.2501 237.063L90.2501 232.338L87.7501 232.338L87.7501 237.063L90.2501 237.063ZM90.2501 224.463L90.2501 219.738L87.7501 219.738L87.7501 224.463L90.2501 224.463ZM90.2501 211.863L90.2501 209.501L87.7501 209.501L87.7501 211.863L90.2501 211.863Z" fill="#F877A7" fill-opacity="0.4"/>
<g filter="url(#filter0_dd_1146_6900)">
<circle cx="88.5725" cy="195.571" r="8.57143" fill="#FA4993"/>
</g>
<g filter="url(#filter1_dd_1146_6900)">
<circle cx="88.5725" cy="195.571" r="13.7143" stroke="#FA4993" stroke-width="1.71429" shape-rendering="crispEdges"/>
</g>
<defs>
<filter id="filter0_dd_1146_6900" x="62.8582" y="173.286" width="51.4286" height="51.4283" filterUnits="userSpaceOnUse" color-interpolation-filters="sRGB">
<feFlood flood-opacity="0" result="BackgroundImageFix"/>
<feColorMatrix in="SourceAlpha" type="matrix" values="0 0 0 0 0 0 0 0 0 0 0 0 0 0 0 0 0 0 127 0" result="hardAlpha"/>
<feOffset dy="3.42857"/>
<feGaussianBlur stdDeviation="6.42857"/>
<feComposite in2="hardAlpha" operator="out"/>
<feColorMatrix type="matrix" values="0 0 0 0 0.254167 0 0 0 0 0.0963715 0 0 0 0 0.200516 0 0 0 0.25 0"/>
<feBlend mode="normal" in2="BackgroundImageFix" result="effect1_dropShadow_1146_6900"/>
<feColorMatrix in="SourceAlpha" type="matrix" values="0 0 0 0 0 0 0 0 0 0 0 0 0 0 0 0 0 0 127 0" result="hardAlpha"/>
<feOffset dy="3.42857"/>
<feGaussianBlur stdDeviation="8.57143"/>
<feComposite in2="hardAlpha" operator="out"/>
<feColorMatrix type="matrix" values="0 0 0 0 0.708333 0 0 0 0 0.174132 0 0 0 0 0.526705 0 0 0 0.25 0"/>
<feBlend mode="normal" in2="effect1_dropShadow_1146_6900" result="effect2_dropShadow_1146_6900"/>
<feBlend mode="normal" in="SourceGraphic" in2="effect2_dropShadow_1146_6900" result="shape"/>
</filter>
<filter id="filter1_dd_1146_6900" x="56.8582" y="167.286" width="63.4286" height="63.4283" filterUnits="userSpaceOnUse" color-interpolation-filters="sRGB">
<feFlood flood-opacity="0" result="BackgroundImageFix"/>
<feColorMatrix in="SourceAlpha" type="matrix" values="0 0 0 0 0 0 0 0 0 0 0 0 0 0 0 0 0 0 127 0" result="hardAlpha"/>
<feOffset dy="3.42857"/>
<feGaussianBlur stdDeviation="6.42857"/>
<feComposite in2="hardAlpha" operator="out"/>
<feColorMatrix type="matrix" values="0 0 0 0 0.254167 0 0 0 0 0.0963715 0 0 0 0 0.200516 0 0 0 0.25 0"/>
<feBlend mode="normal" in2="BackgroundImageFix" result="effect1_dropShadow_1146_6900"/>
<feColorMatrix in="SourceAlpha" type="matrix" values="0 0 0 0 0 0 0 0 0 0 0 0 0 0 0 0 0 0 127 0" result="hardAlpha"/>
<feOffset dy="3.42857"/>
<feGaussianBlur stdDeviation="8.57143"/>
<feComposite in2="hardAlpha" operator="out"/>
<feColorMatrix type="matrix" values="0 0 0 0 0.708333 0 0 0 0 0.174132 0 0 0 0 0.526705 0 0 0 0.25 0"/>
<feBlend mode="normal" in2="effect1_dropShadow_1146_6900" result="effect2_dropShadow_1146_6900"/>
<feBlend mode="normal" in="SourceGraphic" in2="effect2_dropShadow_1146_6900" result="shape"/>
</filter>
<radialGradient id="paint0_radial_1146_6900" cx="0" cy="0" r="1" gradientUnits="userSpaceOnUse" gradientTransform="translate(154.5 -0.000597865) rotate(121.383) scale(175.705 213.143)">
<stop stop-color="#FD639D"/>
<stop offset="1" stop-color="#FA4993" stop-opacity="0"/>
</radialGradient>
</defs>
</svg>
