<svg width="223" height="78" viewBox="0 0 223 78" fill="none" xmlns="http://www.w3.org/2000/svg">
<path d="M0 17.1429C0 7.67512 7.67512 0 17.1429 0H55.7143H87.7922H205.714C215.182 0 222.857 7.67512 222.857 17.1429V60C222.857 69.4677 215.182 77.1429 205.714 77.1429H17.1429C7.67513 77.1429 0 69.4677 0 60V17.1429Z" fill="white" fill-opacity="0.6"/>
<path d="M0 17.1429C0 7.67512 7.67512 0 17.1429 0H55.7143H87.7922H205.714C215.182 0 222.857 7.67512 222.857 17.1429V60C222.857 69.4677 215.182 77.1429 205.714 77.1429H17.1429C7.67513 77.1429 0 69.4677 0 60V17.1429Z" fill="url(#paint0_linear_1146_6907)" fill-opacity="0.4"/>
<path d="M0.857143 17.1429C0.857143 8.14851 8.14851 0.857143 17.1429 0.857143H55.7143H87.7922H205.714C214.709 0.857143 222 8.14851 222 17.1429V60C222 68.9943 214.709 76.2857 205.714 76.2857H17.1429C8.14852 76.2857 0.857143 68.9944 0.857143 60V17.1429Z" stroke="url(#paint1_linear_1146_6907)" stroke-opacity="0.15" stroke-width="1.71429"/>
<path d="M37.7119 44.8566C37.4655 44.8566 37.2655 45.0566 37.2673 45.303C37.2673 45.5494 37.4673 45.7494 37.7137 45.7494C37.9601 45.7494 38.1601 45.5494 38.1601 45.303C38.1601 45.0566 37.9601 44.8566 37.7119 44.8566" stroke="#FD639D" stroke-width="2.67857" stroke-linecap="round" stroke-linejoin="round"/>
<path fill-rule="evenodd" clip-rule="evenodd" d="M29.5247 52.739L22.6889 45.9033C22.0193 45.2337 21.6425 44.3247 21.6425 43.3783V32.0497C21.6425 31.1033 22.0193 30.1944 22.6889 29.5247L29.5247 22.689C30.1943 22.0194 31.1032 21.6426 32.0497 21.6426H43.3764C44.3229 21.6426 45.2318 22.0194 45.9014 22.689L52.7372 29.5247C53.4086 30.1944 53.7854 31.1033 53.7854 32.0497V43.3765C53.7854 44.3229 53.4086 45.2319 52.7389 45.9015L44.8568 53.7854H32.0497C31.1032 53.7854 30.1943 53.4086 29.5247 52.739V52.739Z" stroke="#FD639D" stroke-width="2.67857" stroke-linecap="round" stroke-linejoin="round"/>
<path d="M37.7137 38.6063V29.6777" stroke="#FD639D" stroke-width="2.67857" stroke-linecap="round" stroke-linejoin="round"/>
<path d="M76.8432 26.6709H74.5664V30.5H73.2831V19.9026H76.8225C79.3062 19.9026 80.3825 21.3515 80.3825 23.2557C80.3825 25.1599 79.3062 26.6709 76.8432 26.6709ZM74.5664 21.041V25.5325H76.8432C78.5404 25.5325 79.1199 24.5597 79.1199 23.2557C79.1199 21.9517 78.5404 21.041 76.8225 21.041H74.5664ZM91.4599 25.2013C91.4599 28.5544 89.4936 30.6449 86.7821 30.6449C84.0707 30.6449 82.1043 28.5544 82.1043 25.2013C82.1043 21.8482 84.0707 19.7577 86.7821 19.7577C89.4936 19.7577 91.4599 21.8482 91.4599 25.2013ZM90.218 25.2013C90.218 22.4485 88.707 20.9582 86.7821 20.9582C84.8572 20.9582 83.3462 22.4485 83.3462 25.2013C83.3462 27.9541 84.8572 29.4444 86.7821 29.4444C88.707 29.4444 90.218 27.9541 90.218 25.2013ZM102.311 30.5V29.4237H102.249C102 29.9412 101.276 30.6863 99.8891 30.6863C98.3782 30.6863 97.1777 29.7963 97.1777 28.2439C97.1777 26.4432 98.7715 26.0913 100.262 25.905C101.359 25.7601 102.311 25.8015 102.311 25.2841V25.2634C102.311 23.9387 101.607 23.5248 100.655 23.5248C99.4752 23.5248 98.8335 24.1457 98.5645 24.7252L97.4054 24.3113C98.0263 22.8624 99.3924 22.4485 100.593 22.4485C101.607 22.4485 103.532 22.7382 103.532 25.2634V30.5H102.311ZM102.311 27.623V26.5053C102.104 26.7537 100.717 26.8985 100.2 26.9606C99.2475 27.0848 98.3989 27.3746 98.3989 28.306C98.3989 29.1546 99.1026 29.5893 100.075 29.5893C101.524 29.5893 102.311 28.6165 102.311 27.623ZM106.982 19.9026V30.5H105.761V19.9026H106.982ZM112.551 30.6656C110.254 30.6656 108.846 29.0304 108.846 26.5881C108.846 24.1457 110.274 22.4485 112.427 22.4485C114.083 22.4485 115.842 23.4627 115.842 26.4225V26.9399H110.083C110.207 28.6579 111.113 29.5686 112.551 29.5686C113.524 29.5686 114.228 29.1546 114.538 28.3267L115.718 28.6579C115.345 29.8584 114.166 30.6656 112.551 30.6656ZM112.427 23.5455C111.206 23.5455 110.305 24.3941 110.109 25.8843H114.6C114.6 24.539 113.752 23.5455 112.427 23.5455ZM122.116 22.7175L121.702 23.8559C121.578 23.7938 121.371 23.6903 121.019 23.6903C119.715 23.6903 118.97 24.9322 118.949 26.0085V30.5H117.728V22.5519H118.949V23.918H119.032C119.26 23.1522 120.129 22.4278 121.061 22.4278C121.475 22.4278 121.868 22.5726 122.116 22.7175ZM127.194 22.5519V23.6903H125.497V28.2232C125.497 29.2581 126.014 29.4237 126.552 29.4237C126.821 29.4237 126.987 29.3823 127.09 29.3616L127.339 30.4586C127.173 30.5207 126.883 30.6035 126.428 30.6035C125.393 30.6035 124.275 29.9412 124.275 28.5544V23.6903H123.075V22.5519H124.275V20.8547H125.497V22.5519H127.194Z" fill="#421F1F"/>
<path d="M78.9641 54.9277H73.9625V38.7199H79.1857C83.9024 38.7199 86.6881 41.7589 86.6881 46.7922C86.6881 51.8571 83.9024 54.9277 78.9641 54.9277ZM79.0591 40.461H75.9251V53.1867H78.8375C82.8578 53.1867 84.7888 50.7492 84.7888 46.7922C84.7888 42.8669 82.8578 40.461 79.0591 40.461ZM94.8237 55.181C91.3099 55.181 89.1573 52.6802 89.1573 48.9448C89.1573 45.2094 91.3415 42.6136 94.6337 42.6136C97.1662 42.6136 99.857 44.1647 99.857 48.6915V49.4829H91.0487C91.2387 52.1104 92.6236 53.5032 94.8237 53.5032C96.3115 53.5032 97.3878 52.8701 97.8626 51.6039L99.667 52.1104C99.0972 53.9464 97.2928 55.181 94.8237 55.181ZM94.6337 44.2914C92.7661 44.2914 91.389 45.5893 91.0883 47.8685H97.9576C97.9576 45.8109 96.6597 44.2914 94.6337 44.2914ZM104.609 38.7199V54.9277H102.742V38.7199H104.609ZM115.311 54.9277V53.2816H115.216C114.836 54.073 113.728 55.2126 111.607 55.2126C109.296 55.2126 107.46 53.8514 107.46 51.4772C107.46 48.7232 109.898 48.185 112.177 47.9001C113.855 47.6785 115.311 47.7419 115.311 46.9505V46.9188C115.311 44.8928 114.235 44.2597 112.778 44.2597C110.974 44.2597 109.993 45.2094 109.581 46.0958L107.809 45.4626C108.758 43.2467 110.847 42.6136 112.684 42.6136C114.235 42.6136 117.179 43.0568 117.179 46.9188V54.9277H115.311ZM115.311 50.5276V48.8182C114.994 49.198 112.873 49.4196 112.082 49.5146C110.626 49.7045 109.328 50.1477 109.328 51.5722C109.328 52.8701 110.404 53.5349 111.892 53.5349C114.108 53.5349 115.311 52.0471 115.311 50.5276ZM123.047 56.1307L123.474 55.0069L118.963 42.7719H120.989L124.337 52.4586H124.471L127.827 42.7719H129.853L124.63 56.8904C123.933 58.7581 122.73 59.6445 121.053 59.6445C120.419 59.6445 119.881 59.5178 119.691 59.4229L120.166 57.7768C121.496 58.0933 122.35 57.935 123.047 56.1307ZM140.454 38.7199V54.9277H138.586V38.7199H140.454ZM144.792 41.0308C143.969 41.0308 143.463 40.461 143.463 39.7646C143.463 39.1315 143.969 38.4984 144.792 38.4984C145.615 38.4984 146.122 39.1315 146.122 39.7646C146.122 40.461 145.615 41.0308 144.792 41.0308ZM145.742 42.7719V54.9277H143.874V42.7719H145.742ZM156.824 54.9277L152.463 49.1347L151.031 50.6779V54.9277H149.163V38.7199H151.031V48.2484H151.252L156.191 42.7719H158.501L153.721 47.9476L159.008 54.9277H156.824ZM165.576 55.181C162.063 55.181 159.91 52.6802 159.91 48.9448C159.91 45.2094 162.094 42.6136 165.387 42.6136C167.919 42.6136 170.61 44.1647 170.61 48.6915V49.4829H161.802C161.991 52.1104 163.376 53.5032 165.576 53.5032C167.064 53.5032 168.141 52.8701 168.615 51.6039L170.42 52.1104C169.85 53.9464 168.046 55.181 165.576 55.181ZM165.387 44.2914C163.519 44.2914 162.142 45.5893 161.841 47.8685H168.71C168.71 45.8109 167.413 44.2914 165.387 44.2914ZM175.362 38.7199V54.9277H173.494V38.7199H175.362ZM181.917 56.1307L182.344 55.0069L177.833 42.7719H179.859L183.207 52.4586H183.341L186.697 42.7719H188.723L183.5 56.8904C182.803 58.7581 181.6 59.6445 179.923 59.6445C179.289 59.6445 178.751 59.5178 178.561 59.4229L179.036 57.7768C180.366 58.0933 181.22 57.935 181.917 56.1307Z" fill="#FD639D"/>
<defs>
<linearGradient id="paint0_linear_1146_6907" x1="-204.5" y1="-78.5" x2="148.586" y2="234.511" gradientUnits="userSpaceOnUse">
<stop stop-color="#C77090"/>
<stop offset="0.587808" stop-color="#523C8F" stop-opacity="0.12"/>
<stop offset="1" stop-color="#62ECFF" stop-opacity="0"/>
</linearGradient>
<linearGradient id="paint1_linear_1146_6907" x1="10.1548" y1="0.892904" x2="125.181" y2="161.221" gradientUnits="userSpaceOnUse">
<stop stop-color="#BC6D8F"/>
<stop offset="0.585513" stop-color="#C77090" stop-opacity="0.42"/>
<stop offset="1" stop-color="#5174F0" stop-opacity="0"/>
</linearGradient>
</defs>
</svg>
