<svg width="379" height="219" viewBox="0 0 379 219" fill="none" xmlns="http://www.w3.org/2000/svg">
<path d="M0 16.998C0 8.16149 7.16344 0.998047 16 0.998047H363C371.837 0.998047 379 8.16149 379 16.998V202.998C379 211.835 371.837 218.998 363 218.998H16C7.16344 218.998 0 211.835 0 202.998V16.998Z" fill="url(#paint0_linear_1146_7046)" fill-opacity="0.65"/>
<path d="M0 16.998C0 8.16149 7.16344 0.998047 16 0.998047H363C371.837 0.998047 379 8.16149 379 16.998V202.998C379 211.835 371.837 218.998 363 218.998H16C7.16344 218.998 0 211.835 0 202.998V16.998Z" fill="white" fill-opacity="0.4"/>
<rect x="12" y="16.998" width="352.727" height="54" rx="11.7391" fill="#7B84D1" fill-opacity="0.1"/>
<rect x="23" y="27.998" width="33" height="33" rx="11" fill="white" fill-opacity="0.56"/>
<path d="M44.0834 41.7487L41.2142 44.0404C40.27 44.792 38.7209 44.792 37.7767 44.0404L34.9167 41.7487M44.0834 52.2904H34.9167C32.1667 52.2904 30.3334 50.9154 30.3334 47.707V41.2904C30.3334 38.082 32.1667 36.707 34.9167 36.707H44.0834C46.8334 36.707 48.6667 38.082 48.6667 41.2904V47.707C48.6667 50.9154 46.8334 52.2904 44.0834 52.2904Z" stroke="#0A0819" stroke-width="1.375" stroke-miterlimit="10" stroke-linecap="round" stroke-linejoin="round"/>
<path d="M70.3421 41.498H67.2237V31.3928H70.4803C73.4211 31.3928 75.1579 33.2875 75.1579 36.4257C75.1579 39.5836 73.4211 41.498 70.3421 41.498ZM70.4013 32.4783H68.4474V40.4125H70.2632C72.7697 40.4125 73.9737 38.8928 73.9737 36.4257C73.9737 33.9783 72.7697 32.4783 70.4013 32.4783ZM81.87 41.498V40.4717H81.8108C81.5739 40.9652 80.8832 41.6757 79.5608 41.6757C78.12 41.6757 76.9753 40.827 76.9753 39.3467C76.9753 37.6296 78.495 37.2941 79.9161 37.1165C80.9621 36.9783 81.87 37.0178 81.87 36.5244V36.5046C81.87 35.2415 81.1989 34.8467 80.2911 34.8467C79.1661 34.8467 78.5542 35.4388 78.2976 35.9915L77.1924 35.5967C77.7845 34.2152 79.0871 33.8204 80.2318 33.8204C81.1989 33.8204 83.0345 34.0967 83.0345 36.5046V41.498H81.87ZM81.87 38.7546V37.6888C81.6726 37.9257 80.3503 38.0638 79.8568 38.123C78.9489 38.2415 78.1397 38.5178 78.1397 39.4059C78.1397 40.2152 78.8108 40.6296 79.7384 40.6296C81.12 40.6296 81.87 39.702 81.87 38.7546ZM86.9711 42.248L87.2375 41.5474L84.425 33.9191H85.6882L87.7754 39.9586H87.8592L89.9513 33.9191H91.2145L87.9579 42.7217C87.5237 43.8862 86.7737 44.4388 85.7277 44.4388C85.3329 44.4388 84.9974 44.3599 84.879 44.3007L85.175 43.2744C86.004 43.4717 86.5369 43.373 86.9711 42.248ZM100.432 31.3928V41.498H99.2678V33.1691H99.1889C99.0507 33.4454 98.2218 33.9191 97.0573 33.9191V32.8928C98.6363 32.8928 99.2876 31.5112 99.406 31.3928H100.432ZM104.556 34.8665C104.063 34.8665 103.668 34.4717 103.668 33.9783C103.668 33.4849 104.083 33.1099 104.556 33.1099C105.05 33.1099 105.445 33.5046 105.445 33.9783C105.445 34.4717 105.05 34.8665 104.556 34.8665ZM104.556 39.9783C104.063 39.9783 103.668 39.5836 103.668 39.0902C103.668 38.5967 104.083 38.2217 104.556 38.2217C105.05 38.2217 105.445 38.6165 105.445 39.0902C105.445 39.5836 105.05 39.9783 104.556 39.9783ZM112.57 41.498H111.287L114.998 31.3928H116.261L119.972 41.498H118.689L117.736 38.7941H113.523L112.57 41.498ZM115.57 32.9915L113.907 37.7086H117.352L115.689 32.9915H115.57ZM126.103 38.498V33.9191H127.267V41.498H126.103V40.4323H126.024C125.649 41.0046 124.918 41.5967 123.774 41.5967C122.668 41.5967 121.326 40.7283 121.326 38.7349V33.9191H122.491V38.7349C122.491 39.8402 123.182 40.4717 124.149 40.4717C125.017 40.4717 126.103 39.9191 126.103 38.498ZM132.855 33.9191V35.0046H131.237V39.327C131.237 40.3138 131.73 40.4717 132.244 40.4717C132.5 40.4717 132.658 40.4323 132.757 40.4125L132.994 41.4586C132.836 41.5178 132.559 41.5967 132.125 41.5967C131.138 41.5967 130.073 40.9652 130.073 39.6428V35.0046H128.928V33.9191H130.073V32.3007H131.237V33.9191H132.855ZM137.879 41.6559C135.826 41.6559 134.445 40.0967 134.445 37.748C134.445 35.3796 135.826 33.8204 137.879 33.8204C139.931 33.8204 141.313 35.3796 141.313 37.748C141.313 40.0967 139.931 41.6559 137.879 41.6559ZM137.879 40.6099C139.438 40.6099 140.149 39.2678 140.149 37.748C140.149 36.2283 139.438 34.8665 137.879 34.8665C136.32 34.8665 135.609 36.2283 135.609 37.748C135.609 39.2678 136.32 40.6099 137.879 40.6099ZM148.836 36.7415V41.498H147.651V36.5441C147.651 35.3994 147.119 34.9454 146.27 34.9454C145.382 34.9454 144.533 35.7349 144.533 36.9783V41.498H143.369V33.9191H144.533V35.202H144.612C144.829 34.5507 145.619 33.8204 146.586 33.8204C147.533 33.8204 148.204 34.4323 148.54 35.1823H148.619C148.836 34.5507 149.704 33.8204 150.809 33.8204C152.072 33.8204 153.099 34.6888 153.099 36.5441V41.498H151.934V36.5046C151.934 35.3204 151.086 34.9454 150.454 34.9454C149.428 34.9454 148.836 35.6757 148.836 36.7415ZM160.045 41.498V40.4717H159.986C159.749 40.9652 159.058 41.6757 157.736 41.6757C156.295 41.6757 155.151 40.827 155.151 39.3467C155.151 37.6296 156.67 37.2941 158.091 37.1165C159.137 36.9783 160.045 37.0178 160.045 36.5244V36.5046C160.045 35.2415 159.374 34.8467 158.466 34.8467C157.341 34.8467 156.729 35.4388 156.473 35.9915L155.368 35.5967C155.96 34.2152 157.262 33.8204 158.407 33.8204C159.374 33.8204 161.21 34.0967 161.21 36.5046V41.498H160.045ZM160.045 38.7546V37.6888C159.848 37.9257 158.526 38.0638 158.032 38.123C157.124 38.2415 156.315 38.5178 156.315 39.4059C156.315 40.2152 156.986 40.6296 157.914 40.6296C159.295 40.6296 160.045 39.702 160.045 38.7546ZM166.709 33.9191V35.0046H165.091V39.327C165.091 40.3138 165.584 40.4717 166.097 40.4717C166.354 40.4717 166.512 40.4323 166.611 40.4125L166.847 41.4586C166.69 41.5178 166.413 41.5967 165.979 41.5967C164.992 41.5967 163.926 40.9652 163.926 39.6428V35.0046H162.782V33.9191H163.926V32.3007H165.091V33.9191H166.709ZM169.321 32.8336C168.808 32.8336 168.492 32.4783 168.492 32.0441C168.492 31.6494 168.808 31.2546 169.321 31.2546C169.834 31.2546 170.15 31.6494 170.15 32.0441C170.15 32.4783 169.834 32.8336 169.321 32.8336ZM169.913 33.9191V41.498H168.749V33.9191H169.913ZM178.383 36.1888H177.219C177.041 35.498 176.429 34.8665 175.403 34.8665C174.041 34.8665 173.133 35.9915 173.133 37.7086C173.133 39.4652 174.021 40.6099 175.403 40.6099C176.311 40.6099 177.001 40.1165 177.219 39.2875H178.383C178.186 40.6296 177.08 41.6559 175.403 41.6559C173.291 41.6559 171.969 40.0375 171.969 37.7086C171.969 35.4388 173.33 33.8204 175.383 33.8204C176.982 33.8204 178.186 34.7678 178.383 36.1888ZM190.885 40.4125V41.498H184.707V31.3928H190.806V32.4783H185.931V35.8928H190.292V36.9783H185.931V40.4125H190.885ZM198.598 36.7415V41.498H197.414V36.5441C197.414 35.3994 196.881 34.9454 196.033 34.9454C195.144 34.9454 194.296 35.7349 194.296 36.9783V41.498H193.131V33.9191H194.296V35.202H194.375C194.592 34.5507 195.381 33.8204 196.348 33.8204C197.296 33.8204 197.967 34.4323 198.302 35.1823H198.381C198.598 34.5507 199.467 33.8204 200.572 33.8204C201.835 33.8204 202.861 34.6888 202.861 36.5441V41.498H201.697V36.5046C201.697 35.3204 200.848 34.9454 200.217 34.9454C199.19 34.9454 198.598 35.6757 198.598 36.7415ZM209.808 41.498V40.4717H209.749C209.512 40.9652 208.821 41.6757 207.499 41.6757C206.058 41.6757 204.913 40.827 204.913 39.3467C204.913 37.6296 206.433 37.2941 207.854 37.1165C208.9 36.9783 209.808 37.0178 209.808 36.5244V36.5046C209.808 35.2415 209.137 34.8467 208.229 34.8467C207.104 34.8467 206.492 35.4388 206.236 35.9915L205.13 35.5967C205.722 34.2152 207.025 33.8204 208.17 33.8204C209.137 33.8204 210.972 34.0967 210.972 36.5046V41.498H209.808ZM209.808 38.7546V37.6888C209.611 37.9257 208.288 38.0638 207.795 38.123C206.887 38.2415 206.078 38.5178 206.078 39.4059C206.078 40.2152 206.749 40.6296 207.676 40.6296C209.058 40.6296 209.808 39.702 209.808 38.7546ZM213.948 32.8336C213.435 32.8336 213.119 32.4783 213.119 32.0441C213.119 31.6494 213.435 31.2546 213.948 31.2546C214.461 31.2546 214.777 31.6494 214.777 32.0441C214.777 32.4783 214.461 32.8336 213.948 32.8336ZM214.54 33.9191V41.498H213.376V33.9191H214.54ZM218.115 31.3928V41.498H216.951V31.3928H218.115Z" fill="#0A0819"/>
<rect x="66" y="50.498" width="90" height="10" rx="5" fill="#0A0819" fill-opacity="0.1"/>
<rect x="162" y="50.498" width="45" height="10" rx="5" fill="#0A0819" fill-opacity="0.1"/>
<rect x="213" y="50.498" width="66" height="10" rx="5" fill="#0A0819" fill-opacity="0.1"/>
<rect x="285" y="50.498" width="66" height="10" rx="5" fill="#0A0819" fill-opacity="0.1"/>
<g opacity="0.6">
<rect x="12" y="82.998" width="352.727" height="54" rx="11.7391" fill="#7B84D1" fill-opacity="0.1"/>
<rect x="23" y="93.998" width="33" height="33" rx="11" fill="white" fill-opacity="0.56"/>
<path d="M44.0834 107.749L41.2142 110.04C40.27 110.792 38.7209 110.792 37.7767 110.04L34.9167 107.749M44.0834 118.29H34.9167C32.1667 118.29 30.3334 116.915 30.3334 113.707V107.29C30.3334 104.082 32.1667 102.707 34.9167 102.707H44.0834C46.8334 102.707 48.6667 104.082 48.6667 107.29V113.707C48.6667 116.915 46.8334 118.29 44.0834 118.29Z" stroke="#0A0819" stroke-width="1.375" stroke-miterlimit="10" stroke-linecap="round" stroke-linejoin="round"/>
<path d="M70.3421 107.498H67.2237V97.3928H70.4803C73.4211 97.3928 75.1579 99.2875 75.1579 102.426C75.1579 105.584 73.4211 107.498 70.3421 107.498ZM70.4013 98.4783H68.4474V106.413H70.2632C72.7697 106.413 73.9737 104.893 73.9737 102.426C73.9737 99.9783 72.7697 98.4783 70.4013 98.4783ZM81.87 107.498V106.472H81.8108C81.5739 106.965 80.8832 107.676 79.5608 107.676C78.12 107.676 76.9753 106.827 76.9753 105.347C76.9753 103.63 78.495 103.294 79.9161 103.116C80.9621 102.978 81.87 103.018 81.87 102.524V102.505C81.87 101.241 81.1989 100.847 80.2911 100.847C79.1661 100.847 78.5542 101.439 78.2976 101.991L77.1924 101.597C77.7845 100.215 79.0871 99.8204 80.2318 99.8204C81.1989 99.8204 83.0345 100.097 83.0345 102.505V107.498H81.87ZM81.87 104.755V103.689C81.6726 103.926 80.3503 104.064 79.8568 104.123C78.9489 104.241 78.1397 104.518 78.1397 105.406C78.1397 106.215 78.8108 106.63 79.7384 106.63C81.12 106.63 81.87 105.702 81.87 104.755ZM86.9711 108.248L87.2375 107.547L84.425 99.9191H85.6882L87.7754 105.959H87.8592L89.9513 99.9191H91.2145L87.9579 108.722C87.5237 109.886 86.7737 110.439 85.7277 110.439C85.3329 110.439 84.9974 110.36 84.879 110.301L85.175 109.274C86.004 109.472 86.5369 109.373 86.9711 108.248ZM99.5047 102.939V101.814H100.077C101.34 101.814 102.051 101.005 102.051 100.038C102.051 98.9125 101.281 98.2217 100.195 98.2217C99.1099 98.2217 98.3994 98.9323 98.3994 99.9191H97.2349C97.2349 98.4388 98.281 97.2546 100.215 97.2546C101.972 97.2546 103.255 98.2217 103.255 100.057C103.255 100.773 102.83 101.809 101.765 102.327C103.102 102.781 103.472 103.862 103.472 104.755C103.472 106.57 101.972 107.636 100.176 107.636C98.3994 107.636 97.1363 106.709 97.1363 104.972H98.3994C98.3994 105.978 99.031 106.59 100.156 106.59C101.281 106.59 102.189 105.978 102.189 104.755C102.189 103.551 101.301 102.939 100.077 102.939H99.5047ZM106.632 100.866C106.139 100.866 105.744 100.472 105.744 99.9783C105.744 99.4849 106.159 99.1099 106.632 99.1099C107.126 99.1099 107.521 99.5046 107.521 99.9783C107.521 100.472 107.126 100.866 106.632 100.866ZM106.632 105.978C106.139 105.978 105.744 105.584 105.744 105.09C105.744 104.597 106.159 104.222 106.632 104.222C107.126 104.222 107.521 104.616 107.521 105.09C107.521 105.584 107.126 105.978 106.632 105.978ZM114.646 107.498H113.363L117.074 97.3928H118.337L122.048 107.498H120.765L119.812 104.794H115.599L114.646 107.498ZM117.646 98.9915L115.984 103.709H119.428L117.765 98.9915H117.646ZM128.179 104.498V99.9191H129.343V107.498H128.179V106.432H128.1C127.725 107.005 126.995 107.597 125.85 107.597C124.745 107.597 123.402 106.728 123.402 104.735V99.9191H124.567V104.735C124.567 105.84 125.258 106.472 126.225 106.472C127.093 106.472 128.179 105.919 128.179 104.498ZM134.932 99.9191V101.005H133.313V105.327C133.313 106.314 133.807 106.472 134.32 106.472C134.576 106.472 134.734 106.432 134.833 106.413L135.07 107.459C134.912 107.518 134.636 107.597 134.201 107.597C133.214 107.597 132.149 106.965 132.149 105.643V101.005H131.004V99.9191H132.149V98.3007H133.313V99.9191H134.932ZM139.955 107.656C137.902 107.656 136.521 106.097 136.521 103.748C136.521 101.38 137.902 99.8204 139.955 99.8204C142.008 99.8204 143.389 101.38 143.389 103.748C143.389 106.097 142.008 107.656 139.955 107.656ZM139.955 106.61C141.514 106.61 142.225 105.268 142.225 103.748C142.225 102.228 141.514 100.866 139.955 100.866C138.396 100.866 137.685 102.228 137.685 103.748C137.685 105.268 138.396 106.61 139.955 106.61ZM150.912 102.741V107.498H149.727V102.544C149.727 101.399 149.195 100.945 148.346 100.945C147.458 100.945 146.609 101.735 146.609 102.978V107.498H145.445V99.9191H146.609V101.202H146.688C146.905 100.551 147.695 99.8204 148.662 99.8204C149.609 99.8204 150.28 100.432 150.616 101.182H150.695C150.912 100.551 151.78 99.8204 152.885 99.8204C154.149 99.8204 155.175 100.689 155.175 102.544V107.498H154.01V102.505C154.01 101.32 153.162 100.945 152.53 100.945C151.504 100.945 150.912 101.676 150.912 102.741ZM162.121 107.498V106.472H162.062C161.825 106.965 161.134 107.676 159.812 107.676C158.371 107.676 157.227 106.827 157.227 105.347C157.227 103.63 158.746 103.294 160.167 103.116C161.213 102.978 162.121 103.018 162.121 102.524V102.505C162.121 101.241 161.45 100.847 160.542 100.847C159.417 100.847 158.806 101.439 158.549 101.991L157.444 101.597C158.036 100.215 159.338 99.8204 160.483 99.8204C161.45 99.8204 163.286 100.097 163.286 102.505V107.498H162.121ZM162.121 104.755V103.689C161.924 103.926 160.602 104.064 160.108 104.123C159.2 104.241 158.391 104.518 158.391 105.406C158.391 106.215 159.062 106.63 159.99 106.63C161.371 106.63 162.121 105.702 162.121 104.755ZM168.785 99.9191V101.005H167.167V105.327C167.167 106.314 167.66 106.472 168.173 106.472C168.43 106.472 168.588 106.432 168.687 106.413L168.923 107.459C168.766 107.518 168.489 107.597 168.055 107.597C167.068 107.597 166.002 106.965 166.002 105.643V101.005H164.858V99.9191H166.002V98.3007H167.167V99.9191H168.785ZM171.397 98.8336C170.884 98.8336 170.568 98.4783 170.568 98.0441C170.568 97.6494 170.884 97.2546 171.397 97.2546C171.91 97.2546 172.226 97.6494 172.226 98.0441C172.226 98.4783 171.91 98.8336 171.397 98.8336ZM171.989 99.9191V107.498H170.825V99.9191H171.989ZM180.459 102.189H179.295C179.117 101.498 178.505 100.866 177.479 100.866C176.117 100.866 175.209 101.991 175.209 103.709C175.209 105.465 176.097 106.61 177.479 106.61C178.387 106.61 179.078 106.116 179.295 105.288H180.459C180.262 106.63 179.156 107.656 177.479 107.656C175.367 107.656 174.045 106.038 174.045 103.709C174.045 101.439 175.406 99.8204 177.459 99.8204C179.058 99.8204 180.262 100.768 180.459 102.189ZM192.961 106.413V107.498H186.783V97.3928H192.882V98.4783H188.007V101.893H192.369V102.978H188.007V106.413H192.961ZM200.674 102.741V107.498H199.49V102.544C199.49 101.399 198.957 100.945 198.109 100.945C197.22 100.945 196.372 101.735 196.372 102.978V107.498H195.207V99.9191H196.372V101.202H196.451C196.668 100.551 197.457 99.8204 198.424 99.8204C199.372 99.8204 200.043 100.432 200.378 101.182H200.457C200.674 100.551 201.543 99.8204 202.648 99.8204C203.911 99.8204 204.938 100.689 204.938 102.544V107.498H203.773V102.505C203.773 101.32 202.924 100.945 202.293 100.945C201.266 100.945 200.674 101.676 200.674 102.741ZM211.884 107.498V106.472H211.825C211.588 106.965 210.897 107.676 209.575 107.676C208.134 107.676 206.989 106.827 206.989 105.347C206.989 103.63 208.509 103.294 209.93 103.116C210.976 102.978 211.884 103.018 211.884 102.524V102.505C211.884 101.241 211.213 100.847 210.305 100.847C209.18 100.847 208.568 101.439 208.312 101.991L207.206 101.597C207.798 100.215 209.101 99.8204 210.246 99.8204C211.213 99.8204 213.049 100.097 213.049 102.505V107.498H211.884ZM211.884 104.755V103.689C211.687 103.926 210.364 104.064 209.871 104.123C208.963 104.241 208.154 104.518 208.154 105.406C208.154 106.215 208.825 106.63 209.752 106.63C211.134 106.63 211.884 105.702 211.884 104.755ZM216.024 98.8336C215.511 98.8336 215.195 98.4783 215.195 98.0441C215.195 97.6494 215.511 97.2546 216.024 97.2546C216.537 97.2546 216.853 97.6494 216.853 98.0441C216.853 98.4783 216.537 98.8336 216.024 98.8336ZM216.616 99.9191V107.498H215.452V99.9191H216.616ZM220.191 97.3928V107.498H219.027V97.3928H220.191Z" fill="#0A0819"/>
<rect x="66" y="116.498" width="90" height="10" rx="5" fill="#0A0819" fill-opacity="0.1"/>
<rect x="162" y="116.498" width="66" height="10" rx="5" fill="#0A0819" fill-opacity="0.1"/>
<rect x="234" y="116.498" width="45" height="10" rx="5" fill="#0A0819" fill-opacity="0.1"/>
<rect x="285" y="116.498" width="66" height="10" rx="5" fill="#0A0819" fill-opacity="0.1"/>
</g>
<g opacity="0.3">
<rect x="12" y="148.998" width="352.727" height="54" rx="11.7391" fill="#7B84D1" fill-opacity="0.1"/>
<rect x="23" y="159.998" width="33" height="33" rx="11" fill="white" fill-opacity="0.56"/>
<path d="M44.0834 173.749L41.2142 176.04C40.27 176.792 38.7209 176.792 37.7767 176.04L34.9167 173.749M44.0834 184.29H34.9167C32.1667 184.29 30.3334 182.915 30.3334 179.707V173.29C30.3334 170.082 32.1667 168.707 34.9167 168.707H44.0834C46.8334 168.707 48.6667 170.082 48.6667 173.29V179.707C48.6667 182.915 46.8334 184.29 44.0834 184.29Z" stroke="#0A0819" stroke-width="1.375" stroke-miterlimit="10" stroke-linecap="round" stroke-linejoin="round"/>
<path d="M70.3421 173.498H67.2237V163.393H70.4803C73.4211 163.393 75.1579 165.288 75.1579 168.426C75.1579 171.584 73.4211 173.498 70.3421 173.498ZM70.4013 164.478H68.4474V172.413H70.2632C72.7697 172.413 73.9737 170.893 73.9737 168.426C73.9737 165.978 72.7697 164.478 70.4013 164.478ZM81.87 173.498V172.472H81.8108C81.5739 172.965 80.8832 173.676 79.5608 173.676C78.12 173.676 76.9753 172.827 76.9753 171.347C76.9753 169.63 78.495 169.294 79.9161 169.116C80.9621 168.978 81.87 169.018 81.87 168.524V168.505C81.87 167.241 81.1989 166.847 80.2911 166.847C79.1661 166.847 78.5542 167.439 78.2976 167.991L77.1924 167.597C77.7845 166.215 79.0871 165.82 80.2318 165.82C81.1989 165.82 83.0345 166.097 83.0345 168.505V173.498H81.87ZM81.87 170.755V169.689C81.6726 169.926 80.3503 170.064 79.8568 170.123C78.9489 170.241 78.1397 170.518 78.1397 171.406C78.1397 172.215 78.8108 172.63 79.7384 172.63C81.12 172.63 81.87 171.702 81.87 170.755ZM86.9711 174.248L87.2375 173.547L84.425 165.919H85.6882L87.7754 171.959H87.8592L89.9513 165.919H91.2145L87.9579 174.722C87.5237 175.886 86.7737 176.439 85.7277 176.439C85.3329 176.439 84.9974 176.36 84.879 176.301L85.175 175.274C86.004 175.472 86.5369 175.373 86.9711 174.248ZM103.136 163.393V164.656L99.1099 173.498H97.7678L101.952 164.538H96.8205V163.393H103.136ZM105.574 166.866C105.081 166.866 104.686 166.472 104.686 165.978C104.686 165.485 105.1 165.11 105.574 165.11C106.068 165.11 106.462 165.505 106.462 165.978C106.462 166.472 106.068 166.866 105.574 166.866ZM105.574 171.978C105.081 171.978 104.686 171.584 104.686 171.09C104.686 170.597 105.1 170.222 105.574 170.222C106.068 170.222 106.462 170.616 106.462 171.09C106.462 171.584 106.068 171.978 105.574 171.978ZM113.588 173.498H112.305L116.016 163.393H117.279L120.989 173.498H119.706L118.754 170.794H114.54L113.588 173.498ZM116.588 164.991L114.925 169.709H118.369L116.706 164.991H116.588ZM127.12 170.498V165.919H128.285V173.498H127.12V172.432H127.041C126.666 173.005 125.936 173.597 124.791 173.597C123.686 173.597 122.344 172.728 122.344 170.735V165.919H123.509V170.735C123.509 171.84 124.199 172.472 125.166 172.472C126.035 172.472 127.12 171.919 127.12 170.498ZM133.873 165.919V167.005H132.255V171.327C132.255 172.314 132.748 172.472 133.261 172.472C133.518 172.472 133.676 172.432 133.774 172.413L134.011 173.459C133.853 173.518 133.577 173.597 133.143 173.597C132.156 173.597 131.09 172.965 131.09 171.643V167.005H129.946V165.919H131.09V164.301H132.255V165.919H133.873ZM138.897 173.656C136.844 173.656 135.462 172.097 135.462 169.748C135.462 167.38 136.844 165.82 138.897 165.82C140.949 165.82 142.331 167.38 142.331 169.748C142.331 172.097 140.949 173.656 138.897 173.656ZM138.897 172.61C140.456 172.61 141.166 171.268 141.166 169.748C141.166 168.228 140.456 166.866 138.897 166.866C137.337 166.866 136.627 168.228 136.627 169.748C136.627 171.268 137.337 172.61 138.897 172.61ZM149.853 168.741V173.498H148.669V168.544C148.669 167.399 148.136 166.945 147.288 166.945C146.399 166.945 145.551 167.735 145.551 168.978V173.498H144.386V165.919H145.551V167.202H145.63C145.847 166.551 146.636 165.82 147.603 165.82C148.551 165.82 149.222 166.432 149.557 167.182H149.636C149.853 166.551 150.722 165.82 151.827 165.82C153.09 165.82 154.116 166.689 154.116 168.544V173.498H152.952V168.505C152.952 167.32 152.103 166.945 151.472 166.945C150.445 166.945 149.853 167.676 149.853 168.741ZM161.063 173.498V172.472H161.004C160.767 172.965 160.076 173.676 158.754 173.676C157.313 173.676 156.168 172.827 156.168 171.347C156.168 169.63 157.688 169.294 159.109 169.116C160.155 168.978 161.063 169.018 161.063 168.524V168.505C161.063 167.241 160.392 166.847 159.484 166.847C158.359 166.847 157.747 167.439 157.491 167.991L156.385 167.597C156.977 166.215 158.28 165.82 159.425 165.82C160.392 165.82 162.227 166.097 162.227 168.505V173.498H161.063ZM161.063 170.755V169.689C160.866 169.926 159.543 170.064 159.05 170.123C158.142 170.241 157.333 170.518 157.333 171.406C157.333 172.215 158.004 172.63 158.931 172.63C160.313 172.63 161.063 171.702 161.063 170.755ZM167.727 165.919V167.005H166.109V171.327C166.109 172.314 166.602 172.472 167.115 172.472C167.372 172.472 167.53 172.432 167.628 172.413L167.865 173.459C167.707 173.518 167.431 173.597 166.997 173.597C166.01 173.597 164.944 172.965 164.944 171.643V167.005H163.799V165.919H164.944V164.301H166.109V165.919H167.727ZM170.339 164.834C169.826 164.834 169.51 164.478 169.51 164.044C169.51 163.649 169.826 163.255 170.339 163.255C170.852 163.255 171.168 163.649 171.168 164.044C171.168 164.478 170.852 164.834 170.339 164.834ZM170.931 165.919V173.498H169.766V165.919H170.931ZM179.401 168.189H178.236C178.059 167.498 177.447 166.866 176.42 166.866C175.059 166.866 174.151 167.991 174.151 169.709C174.151 171.465 175.039 172.61 176.42 172.61C177.328 172.61 178.019 172.116 178.236 171.288H179.401C179.203 172.63 178.098 173.656 176.42 173.656C174.309 173.656 172.986 172.038 172.986 169.709C172.986 167.439 174.348 165.82 176.401 165.82C177.999 165.82 179.203 166.768 179.401 168.189ZM191.902 172.413V173.498H185.725V163.393H191.823V164.478H186.948V167.893H191.31V168.978H186.948V172.413H191.902ZM199.616 168.741V173.498H198.432V168.544C198.432 167.399 197.899 166.945 197.05 166.945C196.162 166.945 195.313 167.735 195.313 168.978V173.498H194.149V165.919H195.313V167.202H195.392C195.609 166.551 196.399 165.82 197.366 165.82C198.313 165.82 198.984 166.432 199.32 167.182H199.399C199.616 166.551 200.484 165.82 201.59 165.82C202.853 165.82 203.879 166.689 203.879 168.544V173.498H202.715V168.505C202.715 167.32 201.866 166.945 201.234 166.945C200.208 166.945 199.616 167.676 199.616 168.741ZM210.826 173.498V172.472H210.766C210.53 172.965 209.839 173.676 208.516 173.676C207.076 173.676 205.931 172.827 205.931 171.347C205.931 169.63 207.451 169.294 208.872 169.116C209.918 168.978 210.826 169.018 210.826 168.524V168.505C210.826 167.241 210.155 166.847 209.247 166.847C208.122 166.847 207.51 167.439 207.253 167.991L206.148 167.597C206.74 166.215 208.043 165.82 209.187 165.82C210.155 165.82 211.99 166.097 211.99 168.505V173.498H210.826ZM210.826 170.755V169.689C210.628 169.926 209.306 170.064 208.812 170.123C207.905 170.241 207.095 170.518 207.095 171.406C207.095 172.215 207.766 172.63 208.694 172.63C210.076 172.63 210.826 171.702 210.826 170.755ZM214.966 164.834C214.453 164.834 214.137 164.478 214.137 164.044C214.137 163.649 214.453 163.255 214.966 163.255C215.479 163.255 215.795 163.649 215.795 164.044C215.795 164.478 215.479 164.834 214.966 164.834ZM215.558 165.919V173.498H214.393V165.919H215.558ZM219.133 163.393V173.498H217.969V163.393H219.133Z" fill="#0A0819"/>
<rect x="66" y="182.498" width="90" height="10" rx="5" fill="#0A0819" fill-opacity="0.1"/>
<rect x="162" y="182.498" width="46" height="10" rx="5" fill="#0A0819" fill-opacity="0.1"/>
<rect x="214" y="182.498" width="66" height="10" rx="5" fill="#0A0819" fill-opacity="0.1"/>
<rect x="286" y="182.498" width="66" height="10" rx="5" fill="#0A0819" fill-opacity="0.1"/>
</g>
<defs>
<linearGradient id="paint0_linear_1146_7046" x1="379" y1="22.9981" x2="16.9046" y2="285.335" gradientUnits="userSpaceOnUse">
<stop stop-color="white"/>
<stop offset="1" stop-color="#DBCEFF" stop-opacity="0.38"/>
</linearGradient>
</defs>
</svg>
