<svg width="143" height="307" viewBox="0 0 143 307" fill="none" xmlns="http://www.w3.org/2000/svg">
<path d="M-0.00012207 15C-0.00012207 6.71573 6.71561 0 14.9999 0H143V307H14.9999C6.71561 307 -0.00012207 300.284 -0.00012207 292V15Z" fill="url(#paint0_linear_1146_6598)" fill-opacity="0.5"/>
<path d="M61.6506 69.4966C63.4606 69.7205 64.8414 70.3363 65.793 71.3439C66.7446 72.3515 67.2204 73.611 67.2204 75.1224C67.2204 76.2606 66.9312 77.2962 66.3528 78.2291C65.7743 79.1621 64.8973 79.9084 63.7218 80.4682C62.5649 81.0093 61.1468 81.2799 59.4675 81.2799C58.0681 81.2799 56.7153 81.084 55.4092 80.6921C54.1217 80.2816 53.0208 79.7218 52.1065 79.0128L53.6738 76.1859C54.3829 76.783 55.2412 77.2588 56.2488 77.6134C57.2751 77.9492 58.3293 78.1172 59.4115 78.1172C60.699 78.1172 61.7066 77.8559 62.4343 77.3335C63.1807 76.7924 63.5539 76.0647 63.5539 75.1504C63.5539 74.2361 63.1994 73.527 62.4903 73.0232C61.7999 72.5007 60.7363 72.2395 59.2996 72.2395H57.5083V69.7485L61.9585 64.4587H53.0581V61.4079H66.4087V63.8429L61.6506 69.4966ZM85.5045 61.4079V63.8429L77.8916 81H74.0011L81.3622 64.4866H73.6652V67.8173H70.2786V61.4079H85.5045ZM91.7393 74.8361C90.7852 74.8361 90.0155 74.499 89.4302 73.8247C88.845 73.1504 88.5524 72.2662 88.5524 71.1721C88.5524 70.078 88.845 69.1938 89.4302 68.5196C90.0155 67.8453 90.7852 67.5082 91.7393 67.5082C92.6935 67.5082 93.4632 67.8453 94.0484 68.5196C94.6463 69.1811 94.9453 70.0653 94.9453 71.1721C94.9453 72.279 94.6463 73.1695 94.0484 73.8438C93.4632 74.5053 92.6935 74.8361 91.7393 74.8361ZM99.7543 67.6417H101.624L92.5026 81H90.6325L99.7543 67.6417ZM91.7393 73.5003C92.2609 73.5003 92.6617 73.2967 92.9416 72.8896C93.2342 72.4825 93.3805 71.91 93.3805 71.1721C93.3805 70.4342 93.2342 69.8618 92.9416 69.4546C92.6617 69.0475 92.2609 68.844 91.7393 68.844C91.2432 68.844 90.8424 69.0539 90.5371 69.4737C90.2445 69.8808 90.0982 70.447 90.0982 71.1721C90.0982 71.8973 90.2445 72.4698 90.5371 72.8896C90.8424 73.2967 91.2432 73.5003 91.7393 73.5003ZM100.499 81.1336C99.5444 81.1336 98.7747 80.7964 98.1895 80.1222C97.6042 79.4479 97.3116 78.5637 97.3116 77.4696C97.3116 76.3755 97.6042 75.4913 98.1895 74.817C98.7747 74.1428 99.5444 73.8056 100.499 73.8056C101.453 73.8056 102.222 74.1428 102.808 74.817C103.406 75.4913 103.705 76.3755 103.705 77.4696C103.705 78.5637 103.406 79.4479 102.808 80.1222C102.222 80.7964 101.453 81.1336 100.499 81.1336ZM100.499 79.7978C101.007 79.7978 101.408 79.5942 101.701 79.1871C101.993 78.7673 102.14 78.1948 102.14 77.4696C102.14 76.7444 101.993 76.1783 101.701 75.7712C101.408 75.3514 101.007 75.1414 100.499 75.1414C99.9896 75.1414 99.5889 75.345 99.2963 75.7521C99.0037 76.1592 98.8574 76.7317 98.8574 77.4696C98.8574 78.2075 99.0037 78.78 99.2963 79.1871C99.5889 79.5942 99.9896 79.7978 100.499 79.7978Z" fill="#6968A3" fill-opacity="0.85"/>
<path d="M34.2664 62.4512V80.2622" stroke="#91CF7B" stroke-width="1.90832" stroke-linecap="round" stroke-linejoin="round"/>
<path d="M27.9041 68.8116L34.2664 62.4492L40.6288 68.8116" stroke="#91CF7B" stroke-width="1.90832" stroke-linecap="round" stroke-linejoin="round"/>
<rect x="21.9999" y="103" width="104" height="19" rx="7.6333" fill="#6968A3" fill-opacity="0.1"/>
<rect x="21.9999" y="134" width="84" height="19" rx="7.6333" fill="#6968A3" fill-opacity="0.05"/>
<path d="M66.9996 193.909C68.2871 193.909 69.444 194.161 70.4702 194.665C71.4965 195.15 72.2988 195.849 72.8772 196.764C73.4557 197.678 73.7449 198.732 73.7449 199.926C73.7449 201.195 73.4277 202.315 72.7933 203.285C72.1589 204.237 71.3005 204.974 70.2183 205.496C69.1361 206.019 67.9232 206.28 66.5798 206.28C63.8929 206.28 61.803 205.44 60.3103 203.761C58.8362 202.082 58.0992 199.675 58.0992 196.54C58.0992 194.338 58.5004 192.463 59.3027 190.914C60.105 189.347 61.2246 188.162 62.6613 187.359C64.1168 186.538 65.7961 186.128 67.6993 186.128C68.7069 186.128 69.6492 186.24 70.5262 186.464C71.4218 186.669 72.1962 186.977 72.8493 187.387L71.5058 190.13C70.5355 189.496 69.2947 189.179 67.7833 189.179C65.8987 189.179 64.4246 189.757 63.3611 190.914C62.2975 192.071 61.7657 193.741 61.7657 195.924V195.952C62.3441 195.28 63.0812 194.777 63.9768 194.441C64.8725 194.086 65.8801 193.909 66.9996 193.909ZM66.3838 203.425C67.5221 203.425 68.4457 203.126 69.1547 202.529C69.8638 201.914 70.2183 201.102 70.2183 200.094C70.2183 199.068 69.8638 198.256 69.1547 197.659C68.4457 197.062 67.4941 196.764 66.2999 196.764C65.1244 196.764 64.1634 197.081 63.417 197.715C62.6893 198.35 62.3255 199.152 62.3255 200.122C62.3255 201.074 62.68 201.867 63.3891 202.501C64.1168 203.117 65.115 203.425 66.3838 203.425ZM79.6314 199.836C78.6772 199.836 77.9075 199.499 77.3223 198.825C76.7371 198.15 76.4445 197.266 76.4445 196.172C76.4445 195.078 76.7371 194.194 77.3223 193.52C77.9075 192.845 78.6772 192.508 79.6314 192.508C80.5856 192.508 81.3552 192.845 81.9405 193.52C82.5384 194.181 82.8374 195.065 82.8374 196.172C82.8374 197.279 82.5384 198.17 81.9405 198.844C81.3552 199.505 80.5856 199.836 79.6314 199.836ZM87.6464 192.642H89.5165L80.3947 206H78.5246L87.6464 192.642ZM79.6314 198.5C80.153 198.5 80.5537 198.297 80.8336 197.89C81.1262 197.483 81.2726 196.91 81.2726 196.172C81.2726 195.434 81.1262 194.862 80.8336 194.455C80.5537 194.048 80.153 193.844 79.6314 193.844C79.1352 193.844 78.7345 194.054 78.4291 194.474C78.1365 194.881 77.9902 195.447 77.9902 196.172C77.9902 196.897 78.1365 197.47 78.4291 197.89C78.7345 198.297 79.1352 198.5 79.6314 198.5ZM88.3906 206.134C87.4364 206.134 86.6667 205.796 86.0815 205.122C85.4963 204.448 85.2037 203.564 85.2037 202.47C85.2037 201.375 85.4963 200.491 86.0815 199.817C86.6667 199.143 87.4364 198.806 88.3906 198.806C89.3448 198.806 90.1145 199.143 90.6997 199.817C91.2976 200.491 91.5966 201.375 91.5966 202.47C91.5966 203.564 91.2976 204.448 90.6997 205.122C90.1145 205.796 89.3448 206.134 88.3906 206.134ZM88.3906 204.798C88.8995 204.798 89.3002 204.594 89.5928 204.187C89.8855 203.767 90.0318 203.195 90.0318 202.47C90.0318 201.744 89.8855 201.178 89.5928 200.771C89.3002 200.351 88.8995 200.141 88.3906 200.141C87.8817 200.141 87.481 200.345 87.1884 200.752C86.8957 201.159 86.7494 201.732 86.7494 202.47C86.7494 203.207 86.8957 203.78 87.1884 204.187C87.481 204.594 87.8817 204.798 88.3906 204.798Z" fill="#6968A3" fill-opacity="0.85"/>
<g opacity="0.6">
<path d="M37.5344 207.043V185.419" stroke="#CD7293" stroke-width="2.31681" stroke-linecap="round" stroke-linejoin="round"/>
<path d="M29.8101 199.321L37.5343 207.045L45.2586 199.321" stroke="#CD7293" stroke-width="2.31681" stroke-linecap="round" stroke-linejoin="round"/>
</g>
<rect x="21.9999" y="228" width="77" height="19" rx="7.6333" fill="#6968A3" fill-opacity="0.1"/>
<rect x="21.9999" y="259" width="60" height="19" rx="7.6333" fill="#6968A3" fill-opacity="0.05"/>
<path opacity="0.75" d="M26.409 38V26.3636H30.4772C31.2878 26.3636 31.9563 26.5038 32.4828 26.7841C33.0093 27.0606 33.4014 27.4337 33.659 27.9034C33.9165 28.3693 34.0453 28.8864 34.0453 29.4545C34.0453 29.9545 33.9563 30.3674 33.7783 30.6932C33.604 31.0189 33.373 31.2765 33.0851 31.4659C32.801 31.6553 32.4923 31.7955 32.159 31.8864V32C32.515 32.0227 32.873 32.1477 33.2328 32.375C33.5927 32.6023 33.8938 32.928 34.1362 33.3523C34.3787 33.7765 34.4999 34.2955 34.4999 34.9091C34.4999 35.4924 34.3673 36.017 34.1022 36.483C33.837 36.9489 33.4184 37.3182 32.8465 37.5909C32.2745 37.8636 31.5302 38 30.6135 38H26.409ZM27.8181 36.75H30.6135C31.534 36.75 32.1874 36.572 32.5737 36.2159C32.9639 35.8561 33.159 35.4205 33.159 34.9091C33.159 34.5152 33.0586 34.1515 32.8578 33.8182C32.6571 33.4811 32.3711 33.2121 31.9999 33.0114C31.6287 32.8068 31.1893 32.7045 30.6817 32.7045H27.8181V36.75ZM27.8181 31.4773H30.4317C30.8559 31.4773 31.2385 31.3939 31.5794 31.2273C31.9241 31.0606 32.1968 30.8258 32.3976 30.5227C32.6022 30.2197 32.7044 29.8636 32.7044 29.4545C32.7044 28.9432 32.5264 28.5095 32.1703 28.1534C31.8143 27.7936 31.2499 27.6136 30.4772 27.6136H27.8181V31.4773ZM40.6125 38.1818C39.7716 38.1818 39.0462 37.9962 38.4364 37.625C37.8303 37.25 37.3625 36.7273 37.0329 36.0568C36.7072 35.3826 36.5443 34.5985 36.5443 33.7045C36.5443 32.8106 36.7072 32.0227 37.0329 31.3409C37.3625 30.6553 37.8208 30.1212 38.4079 29.7386C38.9989 29.3523 39.6882 29.1591 40.4761 29.1591C40.9307 29.1591 41.3795 29.2348 41.8227 29.3864C42.2659 29.5379 42.6693 29.7841 43.0329 30.125C43.3966 30.4621 43.6864 30.9091 43.9023 31.4659C44.1182 32.0227 44.2261 32.7083 44.2261 33.5227V34.0909H37.4989V32.9318H42.8625C42.8625 32.4394 42.764 32 42.567 31.6136C42.3739 31.2273 42.0973 30.9223 41.7375 30.6989C41.3814 30.4754 40.961 30.3636 40.4761 30.3636C39.942 30.3636 39.4799 30.4962 39.0898 30.7614C38.7034 31.0227 38.4061 31.3636 38.1977 31.7841C37.9894 32.2045 37.8852 32.6553 37.8852 33.1364V33.9091C37.8852 34.5682 37.9989 35.1269 38.2261 35.5852C38.4572 36.0398 38.7773 36.3864 39.1864 36.625C39.5954 36.8598 40.0708 36.9773 40.6125 36.9773C40.9648 36.9773 41.2829 36.928 41.567 36.8295C41.8549 36.7273 42.103 36.5758 42.3114 36.375C42.5197 36.1705 42.6807 35.9167 42.7943 35.6136L44.0898 35.9773C43.9534 36.4167 43.7242 36.803 43.4023 37.1364C43.0803 37.4659 42.6826 37.7235 42.2091 37.9091C41.7356 38.0909 41.2034 38.1818 40.6125 38.1818ZM52.7677 31.2273L51.5632 31.5682C51.4874 31.3674 51.3757 31.1723 51.2279 30.983C51.084 30.7898 50.887 30.6307 50.637 30.5057C50.387 30.3807 50.067 30.3182 49.6768 30.3182C49.1427 30.3182 48.6976 30.4413 48.3416 30.6875C47.9893 30.9299 47.8132 31.2386 47.8132 31.6136C47.8132 31.947 47.9344 32.2102 48.1768 32.4034C48.4192 32.5966 48.798 32.7576 49.3132 32.8864L50.6086 33.2045C51.3889 33.3939 51.9704 33.6837 52.3529 34.0739C52.7355 34.4602 52.9268 34.9583 52.9268 35.5682C52.9268 36.0682 52.7829 36.5152 52.495 36.9091C52.2109 37.303 51.8132 37.6136 51.3018 37.8409C50.7904 38.0682 50.1957 38.1818 49.5177 38.1818C48.6276 38.1818 47.8908 37.9886 47.3075 37.6023C46.7242 37.2159 46.3548 36.6515 46.1995 35.9091L47.4723 35.5909C47.5935 36.0606 47.8226 36.4129 48.1598 36.6477C48.5007 36.8826 48.9457 37 49.495 37C50.12 37 50.6162 36.8674 50.9836 36.6023C51.3548 36.3333 51.5404 36.0114 51.5404 35.6364C51.5404 35.3333 51.4344 35.0795 51.2223 34.875C51.0101 34.6667 50.6844 34.5114 50.245 34.4091L48.7904 34.0682C47.9912 33.8788 47.4041 33.5852 47.0291 33.1875C46.6579 32.786 46.4723 32.2841 46.4723 31.6818C46.4723 31.1894 46.6105 30.7538 46.887 30.375C47.1673 29.9962 47.548 29.6989 48.0291 29.483C48.5139 29.267 49.0632 29.1591 49.6768 29.1591C50.5404 29.1591 51.2185 29.3485 51.7109 29.7273C52.2071 30.1061 52.5594 30.6061 52.7677 31.2273ZM59.0607 29.2727V30.4091H54.538V29.2727H59.0607ZM55.8562 27.1818H57.1971V35.5C57.1971 35.8788 57.252 36.1629 57.3619 36.3523C57.4755 36.5379 57.6194 36.6629 57.7937 36.7273C57.9717 36.7879 58.1592 36.8182 58.3562 36.8182C58.5039 36.8182 58.6251 36.8106 58.7198 36.7955C58.8145 36.7765 58.8903 36.7614 58.9471 36.75L59.2198 37.9545C59.1289 37.9886 59.002 38.0227 58.8391 38.0568C58.6763 38.0947 58.4698 38.1136 58.2198 38.1136C57.841 38.1136 57.4698 38.0322 57.1062 37.8693C56.7463 37.7064 56.4471 37.4583 56.2085 37.125C55.9736 36.7917 55.8562 36.3712 55.8562 35.8636V27.1818ZM67.4233 31.2273L66.2188 31.5682C66.143 31.3674 66.0313 31.1723 65.8836 30.983C65.7396 30.7898 65.5427 30.6307 65.2927 30.5057C65.0427 30.3807 64.7226 30.3182 64.3324 30.3182C63.7983 30.3182 63.3533 30.4413 62.9972 30.6875C62.6449 30.9299 62.4688 31.2386 62.4688 31.6136C62.4688 31.947 62.59 32.2102 62.8324 32.4034C63.0749 32.5966 63.4536 32.7576 63.9688 32.8864L65.2643 33.2045C66.0446 33.3939 66.626 33.6837 67.0086 34.0739C67.3911 34.4602 67.5824 34.9583 67.5824 35.5682C67.5824 36.0682 67.4385 36.5152 67.1506 36.9091C66.8665 37.303 66.4688 37.6136 65.9574 37.8409C65.4461 38.0682 64.8514 38.1818 64.1733 38.1818C63.2832 38.1818 62.5464 37.9886 61.9631 37.6023C61.3798 37.2159 61.0105 36.6515 60.8552 35.9091L62.1279 35.5909C62.2491 36.0606 62.4783 36.4129 62.8154 36.6477C63.1563 36.8826 63.6014 37 64.1506 37C64.7756 37 65.2718 36.8674 65.6393 36.6023C66.0105 36.3333 66.1961 36.0114 66.1961 35.6364C66.1961 35.3333 66.09 35.0795 65.8779 34.875C65.6658 34.6667 65.34 34.5114 64.9006 34.4091L63.4461 34.0682C62.6468 33.8788 62.0597 33.5852 61.6847 33.1875C61.3135 32.786 61.1279 32.2841 61.1279 31.6818C61.1279 31.1894 61.2661 30.7538 61.5427 30.375C61.823 29.9962 62.2036 29.6989 62.6847 29.483C63.1696 29.267 63.7188 29.1591 64.3324 29.1591C65.1961 29.1591 65.8741 29.3485 66.3665 29.7273C66.8627 30.1061 67.215 30.6061 67.4233 31.2273ZM73.58 38.1818C72.7391 38.1818 72.0137 37.9962 71.4039 37.625C70.7978 37.25 70.33 36.7273 70.0004 36.0568C69.6747 35.3826 69.5118 34.5985 69.5118 33.7045C69.5118 32.8106 69.6747 32.0227 70.0004 31.3409C70.33 30.6553 70.7883 30.1212 71.3754 29.7386C71.9664 29.3523 72.6557 29.1591 73.4436 29.1591C73.8982 29.1591 74.347 29.2348 74.7902 29.3864C75.2334 29.5379 75.6368 29.7841 76.0004 30.125C76.3641 30.4621 76.6539 30.9091 76.8698 31.4659C77.0857 32.0227 77.1936 32.7083 77.1936 33.5227V34.0909H70.4664V32.9318H75.83C75.83 32.4394 75.7315 32 75.5345 31.6136C75.3414 31.2273 75.0648 30.9223 74.705 30.6989C74.3489 30.4754 73.9285 30.3636 73.4436 30.3636C72.9095 30.3636 72.4474 30.4962 72.0573 30.7614C71.6709 31.0227 71.3736 31.3636 71.1652 31.7841C70.9569 32.2045 70.8527 32.6553 70.8527 33.1364V33.9091C70.8527 34.5682 70.9664 35.1269 71.1936 35.5852C71.4247 36.0398 71.7448 36.3864 72.1539 36.625C72.5629 36.8598 73.0383 36.9773 73.58 36.9773C73.9323 36.9773 74.2504 36.928 74.5345 36.8295C74.8224 36.7273 75.0705 36.5758 75.2789 36.375C75.4872 36.1705 75.6482 35.9167 75.7618 35.6136L77.0573 35.9773C76.9209 36.4167 76.6917 36.803 76.3698 37.1364C76.0478 37.4659 75.6501 37.7235 75.1766 37.9091C74.7031 38.0909 74.1709 38.1818 73.58 38.1818ZM80.8943 26.3636V38H79.5534V26.3636H80.8943ZM85.0112 26.3636V38H83.6703V26.3636H85.0112ZM91.4462 38.1818C90.6053 38.1818 89.88 37.9962 89.2701 37.625C88.664 37.25 88.1962 36.7273 87.8667 36.0568C87.5409 35.3826 87.3781 34.5985 87.3781 33.7045C87.3781 32.8106 87.5409 32.0227 87.8667 31.3409C88.1962 30.6553 88.6546 30.1212 89.2417 29.7386C89.8326 29.3523 90.522 29.1591 91.3099 29.1591C91.7644 29.1591 92.2133 29.2348 92.6565 29.3864C93.0997 29.5379 93.5031 29.7841 93.8667 30.125C94.2303 30.4621 94.5201 30.9091 94.736 31.4659C94.9519 32.0227 95.0599 32.7083 95.0599 33.5227V34.0909H88.3326V32.9318H93.6962C93.6962 32.4394 93.5978 32 93.4008 31.6136C93.2076 31.2273 92.9311 30.9223 92.5712 30.6989C92.2152 30.4754 91.7947 30.3636 91.3099 30.3636C90.7758 30.3636 90.3137 30.4962 89.9235 30.7614C89.5372 31.0227 89.2398 31.3636 89.0315 31.7841C88.8231 32.2045 88.719 32.6553 88.719 33.1364V33.9091C88.719 34.5682 88.8326 35.1269 89.0599 35.5852C89.2909 36.0398 89.611 36.3864 90.0201 36.625C90.4292 36.8598 90.9046 36.9773 91.4462 36.9773C91.7985 36.9773 92.1167 36.928 92.4008 36.8295C92.6887 36.7273 92.9368 36.5758 93.1451 36.375C93.3534 36.1705 93.5144 35.9167 93.6281 35.6136L94.9235 35.9773C94.7872 36.4167 94.558 36.803 94.236 37.1364C93.914 37.4659 93.5163 37.7235 93.0428 37.9091C92.5693 38.0909 92.0372 38.1818 91.4462 38.1818ZM97.4196 38V29.2727H98.7151V30.5909H98.806C98.9651 30.1591 99.253 29.8087 99.6696 29.5398C100.086 29.2708 100.556 29.1364 101.079 29.1364C101.177 29.1364 101.3 29.1383 101.448 29.142C101.596 29.1458 101.708 29.1515 101.783 29.1591V30.5227C101.738 30.5114 101.634 30.4943 101.471 30.4716C101.312 30.4451 101.143 30.4318 100.965 30.4318C100.541 30.4318 100.162 30.5208 99.8287 30.6989C99.4992 30.8731 99.2378 31.1155 99.0446 31.4261C98.8553 31.733 98.7606 32.0833 98.7606 32.4773V38H97.4196ZM109.875 31.2273L108.67 31.5682C108.594 31.3674 108.483 31.1723 108.335 30.983C108.191 30.7898 107.994 30.6307 107.744 30.5057C107.494 30.3807 107.174 30.3182 106.784 30.3182C106.25 30.3182 105.805 30.4413 105.448 30.6875C105.096 30.9299 104.92 31.2386 104.92 31.6136C104.92 31.947 105.041 32.2102 105.284 32.4034C105.526 32.5966 105.905 32.7576 106.42 32.8864L107.715 33.2045C108.496 33.3939 109.077 33.6837 109.46 34.0739C109.842 34.4602 110.034 34.9583 110.034 35.5682C110.034 36.0682 109.89 36.5152 109.602 36.9091C109.318 37.303 108.92 37.6136 108.409 37.8409C107.897 38.0682 107.303 38.1818 106.625 38.1818C105.734 38.1818 104.998 37.9886 104.414 37.6023C103.831 37.2159 103.462 36.6515 103.306 35.9091L104.579 35.5909C104.7 36.0606 104.93 36.4129 105.267 36.6477C105.608 36.8826 106.053 37 106.602 37C107.227 37 107.723 36.8674 108.09 36.6023C108.462 36.3333 108.647 36.0114 108.647 35.6364C108.647 35.3333 108.541 35.0795 108.329 34.875C108.117 34.6667 107.791 34.5114 107.352 34.4091L105.897 34.0682C105.098 33.8788 104.511 33.5852 104.136 33.1875C103.765 32.786 103.579 32.2841 103.579 31.6818C103.579 31.1894 103.717 30.7538 103.994 30.375C104.274 29.9962 104.655 29.6989 105.136 29.483C105.621 29.267 106.17 29.1591 106.784 29.1591C107.647 29.1591 108.325 29.3485 108.818 29.7273C109.314 30.1061 109.666 30.6061 109.875 31.2273Z" fill="#6968A3" fill-opacity="0.65"/>
<defs>
<linearGradient id="paint0_linear_1146_6598" x1="-50.3149" y1="-150.234" x2="348.503" y2="253.646" gradientUnits="userSpaceOnUse">
<stop stop-color="white"/>
<stop offset="1" stop-color="white"/>
</linearGradient>
</defs>
</svg>
