<svg width="184" height="40" viewBox="0 0 184 40" fill="none" xmlns="http://www.w3.org/2000/svg">
<path fill-rule="evenodd" clip-rule="evenodd" d="M55.2485 8.87997H77.4384V13.2925H60.2801V19.7844H74.8512V23.9272H60.2801V33.6888H55.2485V8.87997ZM81.8351 7.3562H86.5334V33.6888H81.8351V7.3562ZM118.487 12.2185C118.867 12.3455 119.291 12.409 119.756 12.409C120.233 12.409 120.656 12.3455 121.026 12.2185C121.407 12.0809 121.73 11.9011 121.994 11.6788C122.259 11.446 122.46 11.1815 122.598 10.8852C122.746 10.5783 122.82 10.2556 122.82 9.91698C122.82 9.56778 122.746 9.24504 122.598 8.94875C122.46 8.64188 122.259 8.37734 121.994 8.15512C121.73 7.93291 121.407 7.75831 121.026 7.63133C120.656 7.49377 120.233 7.42499 119.756 7.42499C119.291 7.42499 118.867 7.49377 118.487 7.63133C118.116 7.75831 117.799 7.93291 117.534 8.15512C117.27 8.37734 117.063 8.64188 116.915 8.94875C116.778 9.24504 116.709 9.56778 116.709 9.91698C116.709 10.2556 116.778 10.5783 116.915 10.8852C117.063 11.1815 117.27 11.446 117.534 11.6788C117.799 11.9011 118.116 12.0809 118.487 12.2185ZM122.105 14.9645H117.407V31.8209C116.933 28.9258 115.38 26.5335 113.347 24.7092C113.097 24.4849 112.839 24.2686 112.574 24.0603C112.577 23.9922 112.578 23.9237 112.58 23.855C112.648 20.7293 111.777 18.1763 110.203 16.2182C108.649 14.2852 106.532 13.0804 104.336 12.4013C100.045 11.0745 94.9944 11.6113 91.7799 13.2039L91.7689 13.209V17.9629C92.2959 17.5693 92.8764 17.2228 93.5157 16.9322L93.5502 16.9165L93.5841 16.8996C95.825 15.7795 99.8009 15.3035 103.121 16.3302C104.737 16.8301 106.077 17.6493 106.997 18.7947C107.574 19.5114 108.035 20.416 108.28 21.5693C107.091 21.0734 105.864 20.6936 104.646 20.4301C101.568 19.7635 98.3122 19.7905 95.7092 20.7942C94.3897 21.303 93.1676 22.0922 92.27 23.2424C91.3553 24.4145 90.8645 25.8528 90.8645 27.4774C90.8645 30.1377 92.5948 32.1096 94.581 33.2907C96.586 34.4829 99.1588 35.09 101.691 35.0003C104.231 34.9102 106.915 34.1092 109.015 32.2594C110.083 31.3188 110.951 30.1491 111.563 28.755C112.756 30.1576 113.446 31.8083 113.446 33.6943H117.558C117.558 33.6942 117.558 33.6942 117.558 33.6941H122.105V14.9645ZM132.481 14.9645H127.783V33.6941H132.481V22.5516C133.339 21.4087 134.45 20.5252 135.815 19.9008C137.19 19.2659 138.783 18.8585 140.592 18.6786L139.211 14.3772C138.069 14.6735 136.92 15.102 135.767 15.6629C134.614 16.2237 133.518 16.8903 132.481 17.6628V14.9645ZM141.911 24.2658C141.911 22.996 142.17 21.7844 142.689 20.631C143.207 19.467 143.953 18.4406 144.927 17.5517C145.9 16.6628 147.091 15.9539 148.498 15.4248C149.916 14.8957 151.524 14.6311 153.323 14.6311C155.112 14.6311 156.72 14.901 158.149 15.4406C159.588 15.9697 160.805 16.6999 161.799 17.6311C162.805 18.5623 163.572 19.6575 164.101 20.9167C164.641 22.1759 164.91 23.5251 164.91 24.9642C164.91 25.1441 164.905 25.3398 164.895 25.5515C164.895 25.7525 164.884 25.9377 164.863 26.107H147.149C147.35 26.6679 147.673 27.1811 148.117 27.6467C148.572 28.1123 149.138 28.5144 149.816 28.853C150.493 29.1916 151.276 29.4561 152.165 29.6466C153.054 29.8265 154.038 29.9164 155.117 29.9164C156.196 29.9164 157.27 29.8053 158.339 29.5831C159.408 29.3503 160.429 29.0593 161.403 28.7101L162.99 32.2973C162.376 32.583 161.752 32.837 161.117 33.0592C160.493 33.2708 159.836 33.4507 159.149 33.5989C158.471 33.7364 157.757 33.8423 157.006 33.9163C156.265 33.9904 155.482 34.0274 154.657 34.0274C152.551 34.0274 150.704 33.7735 149.117 33.2656C147.53 32.7576 146.202 32.0645 145.133 31.1862C144.064 30.308 143.26 29.2762 142.72 28.0911C142.181 26.9059 141.911 25.6308 141.911 24.2658ZM159.926 22.4405C159.757 21.9219 159.493 21.4405 159.133 20.996C158.784 20.541 158.344 20.1495 157.815 19.8215C157.286 19.4829 156.673 19.2183 155.974 19.0278C155.276 18.8374 154.509 18.7421 153.673 18.7421C152.784 18.7421 151.974 18.8427 151.244 19.0437C150.514 19.2448 149.874 19.5146 149.323 19.8532C148.773 20.1918 148.313 20.5834 147.943 21.0278C147.583 21.4722 147.318 21.9431 147.149 22.4405H159.926ZM103.776 24.4494C105.305 24.7805 106.811 25.3293 108.16 26.0658C107.783 27.4717 107.097 28.4682 106.297 29.1737C105.069 30.2549 103.371 30.8256 101.545 30.8904C99.7106 30.9554 97.9349 30.5004 96.6829 29.7559C95.4122 29.0003 94.977 28.1608 94.977 27.4774C94.977 26.7187 95.1918 26.1828 95.512 25.7725C95.8493 25.3403 96.3913 24.9388 97.1888 24.6313C98.8199 24.0023 101.21 23.8938 103.776 24.4494Z" fill="#222673"/>
<g clip-path="url(#clip0_1155_13483)">
<path fill-rule="evenodd" clip-rule="evenodd" d="M-14.4066 45.5468C-7.50074 25.6769 2.62707 14.3804 10.6496 9.77248C18.2356 5.41528 24.56 6.38274 27.264 9.06609C27.7083 9.02675 28.1519 8.9938 28.5945 8.9672L28.5864 8.97478C28.6846 8.96862 28.7828 8.96277 28.8809 8.95723C31.297 8.82086 33.7033 8.91945 36.0411 9.28309C35.5121 7.38122 34.6792 5.68554 33.602 4.28657L33.6016 4.28695C29.5166 -0.96505 19.4875 -1.93564 9.9445 4.46517C0.0897655 11.0751 -8.54555 23.976 -16.0426 45.5471L-14.4066 45.5468ZM29.0756 21.6166C28.6236 22.9066 27.9952 24.1686 27.1881 25.3511C24.3087 29.5703 19.2661 32.2434 14.5891 32.5996C12.3147 32.7728 10.4396 32.3526 9.24629 31.5214C8.10575 30.7269 7.67527 29.6465 7.81176 28.378L7.8201 28.3758C7.85714 28.0789 7.92039 27.7726 8.01309 27.459C8.61347 25.6504 10.4455 23.4214 13.4098 21.6144C16.8454 19.5202 21.3261 18.7825 26.3464 19.1121C36.248 19.7621 45.7446 26.7802 44.792 44.0464L51.5832 41.7421C51.6456 40.6097 51.6695 39.5147 51.6567 38.4565L52.1597 38.2858C53.2901 17.7972 41.6234 10.4268 29.3137 10.5861C23.2456 10.6646 16.857 12.2089 11.6477 15.4343C7.727 17.8618 4.12046 21.6062 2.26925 25.8913C1.67288 27.2135 1.25835 28.618 1.07424 30.094L1.08565 30.091C1.08496 30.0962 1.08428 30.1015 1.08359 30.1067L1.07435 30.1092C0.607985 33.8481 2.00463 36.4311 4.18204 37.9478C6.32956 39.4437 9.31475 39.9868 12.49 39.745C18.712 39.2713 26.9253 35.6016 32.2155 27.85C33.0596 26.6131 33.774 25.3641 34.3673 24.1162C33.0045 22.8145 31.2767 22.0281 29.466 21.6858C29.3352 21.6611 29.2051 21.638 29.0756 21.6166Z" fill="#222673"/>
</g>
<defs>
<clipPath id="clip0_1155_13483">
<rect width="43.1841" height="39.6883" fill="white"/>
</clipPath>
</defs>
</svg>
