<svg width="170" height="181" viewBox="0 0 170 181" fill="none" xmlns="http://www.w3.org/2000/svg">
<g filter="url(#filter0_f_1024_10941)">
<path d="M99.3918 148.444L119.459 139.253C127.712 135.473 131.838 133.583 134.893 130.677C137.83 127.883 140.051 124.423 141.368 120.59C142.738 116.602 142.738 112.064 142.738 102.987V78.9759C142.738 70.8638 142.738 66.8078 141.607 63.1573C140.519 59.6454 138.676 56.4135 136.209 53.6876C133.645 50.8542 130.155 48.7874 123.175 44.6538L107.622 35.4434C100.733 31.3634 97.2881 29.3234 93.6165 28.4342C90.084 27.5787 86.4084 27.496 82.841 28.1918C79.1331 28.915 75.6002 30.798 68.5342 34.5641L48.9942 44.9788C41.4763 48.9858 37.7173 50.9893 34.9464 53.8607C32.2815 56.6223 30.2813 59.955 29.0977 63.6056C27.8671 67.4014 27.8671 71.661 27.8671 80.1801V104.369C27.8671 112.983 27.8671 117.29 29.1212 121.119C30.3273 124.801 32.3647 128.156 35.0757 130.924C37.8948 133.803 41.7164 135.79 49.3596 139.762L49.3597 139.762L64.3845 147.572L64.3847 147.572C70.5955 150.8 73.701 152.414 76.9697 153.131C80.1171 153.821 83.3674 153.902 86.5452 153.369C89.8457 152.817 93.0277 151.359 99.3918 148.444Z" stroke="url(#paint0_linear_1024_10941)" stroke-width="4"/>
</g>
<path d="M99.3918 148.444L119.459 139.253C127.712 135.473 131.838 133.583 134.893 130.677C137.83 127.883 140.051 124.423 141.368 120.59C142.738 116.602 142.738 112.064 142.738 102.987V78.9759C142.738 70.8638 142.738 66.8078 141.607 63.1573C140.519 59.6454 138.676 56.4135 136.209 53.6876C133.645 50.8542 130.155 48.7874 123.175 44.6538L107.622 35.4434C100.733 31.3634 97.2881 29.3234 93.6165 28.4342C90.084 27.5787 86.4084 27.496 82.841 28.1918C79.1331 28.915 75.6002 30.798 68.5342 34.5641L48.9942 44.9788C41.4763 48.9858 37.7173 50.9893 34.9464 53.8607C32.2815 56.6223 30.2813 59.955 29.0977 63.6056C27.8671 67.4014 27.8671 71.661 27.8671 80.1801V104.369C27.8671 112.983 27.8671 117.29 29.1212 121.119C30.3273 124.801 32.3647 128.156 35.0757 130.924C37.8948 133.803 41.7164 135.79 49.3596 139.762L49.3597 139.762L64.3845 147.572L64.3847 147.572C70.5955 150.8 73.701 152.414 76.9697 153.131C80.1171 153.821 83.3674 153.902 86.5452 153.369C89.8457 152.817 93.0277 151.359 99.3918 148.444Z" stroke="url(#paint1_linear_1024_10941)" stroke-width="4"/>
<path d="M93.5073 117.427L90.9827 107.329" stroke="#485E96" stroke-width="2.94541" stroke-linecap="round" stroke-linejoin="round"/>
<path d="M73.3102 117.427L75.8348 107.329" stroke="#485E96" stroke-width="2.94541" stroke-linecap="round" stroke-linejoin="round"/>
<path fill-rule="evenodd" clip-rule="evenodd" d="M100.892 107.329H65.9256C63.0324 107.329 60.687 104.984 60.687 102.09V77.2226C60.687 74.3294 63.0324 71.984 65.9256 71.984H100.889C103.785 71.984 106.13 74.3294 106.13 77.2226V102.088C106.13 104.984 103.785 107.329 100.892 107.329Z" stroke="#485E96" stroke-width="2.94541" stroke-linecap="round" stroke-linejoin="round"/>
<path d="M72.048 97.2303V90.3381" stroke="#485E96" stroke-width="2.94541" stroke-linecap="round" stroke-linejoin="round"/>
<path d="M79.6218 97.2303V82.0825" stroke="#485E96" stroke-width="2.94541" stroke-linecap="round" stroke-linejoin="round"/>
<path d="M87.1958 97.2304V88.8486" stroke="#485E96" stroke-width="2.94541" stroke-linecap="round" stroke-linejoin="round"/>
<path d="M94.7696 97.2304V83.4711" stroke="#485E96" stroke-width="2.94541" stroke-linecap="round" stroke-linejoin="round"/>
<defs>
<filter id="filter0_f_1024_10941" x="0.620714" y="0.478502" width="169.364" height="180.484" filterUnits="userSpaceOnUse" color-interpolation-filters="sRGB">
<feFlood flood-opacity="0" result="BackgroundImageFix"/>
<feBlend mode="normal" in="SourceGraphic" in2="BackgroundImageFix" result="shape"/>
<feGaussianBlur stdDeviation="12.6232" result="effect1_foregroundBlur_1024_10941"/>
</filter>
<linearGradient id="paint0_linear_1024_10941" x1="53.2596" y1="191.823" x2="97.8576" y2="32.6574" gradientUnits="userSpaceOnUse">
<stop stop-color="#58739F"/>
<stop offset="1" stop-color="#5376AF" stop-opacity="0"/>
</linearGradient>
<linearGradient id="paint1_linear_1024_10941" x1="53.2596" y1="191.823" x2="97.8576" y2="32.6574" gradientUnits="userSpaceOnUse">
<stop stop-color="#58739F"/>
<stop offset="1" stop-color="#5376AF" stop-opacity="0"/>
</linearGradient>
</defs>
</svg>
