<svg width="120" height="133" viewBox="0 0 120 133" fill="none" xmlns="http://www.w3.org/2000/svg">
<path d="M74.3917 124.444L94.4592 115.253C102.712 111.473 106.838 109.583 109.893 106.677C112.83 103.883 115.05 100.423 116.368 96.59C117.738 92.6024 117.738 88.0639 117.738 78.9868V54.9759C117.738 46.8638 117.738 42.8078 116.607 39.1573C115.519 35.6454 113.676 32.4135 111.209 29.6876C108.644 26.8542 105.155 24.7874 98.1747 20.6538L82.6222 11.4434C75.7328 7.3634 72.2881 5.32339 68.6165 4.43419C65.0839 3.57868 61.4084 3.49599 57.8409 4.1918C54.1331 4.91499 50.6001 6.79804 43.5342 10.5641L23.9942 20.9788C16.4762 24.9858 12.7172 26.9893 9.94633 29.8607C7.28147 32.6223 5.28124 35.955 4.09767 39.6056C2.867 43.4014 2.867 47.661 2.867 56.1801V80.3686C2.867 88.9826 2.867 93.2896 4.12115 97.1186C5.32721 100.801 7.36465 104.156 10.0757 106.924C12.8948 109.803 16.7164 111.79 24.3595 115.762L24.3596 115.762L39.3845 123.572L39.3847 123.572C45.5955 126.8 48.7009 128.414 51.9697 129.131C55.117 129.821 58.3674 129.902 61.5452 129.369C64.8456 128.817 68.0276 127.359 74.3917 124.444Z" stroke="url(#paint0_linear_1155_12761)" stroke-width="4"/>
<path d="M68.5069 93.4275L65.9823 83.3289" stroke="#98CFE0" stroke-width="2.94541" stroke-linecap="round" stroke-linejoin="round"/>
<path d="M48.3099 93.4275L50.8345 83.3289" stroke="#98CFE0" stroke-width="2.94541" stroke-linecap="round" stroke-linejoin="round"/>
<path fill-rule="evenodd" clip-rule="evenodd" d="M75.8915 83.3289H40.9253C38.0321 83.3289 35.6867 80.9835 35.6867 78.0903V53.2226C35.6867 50.3294 38.0321 47.984 40.9253 47.984H75.889C78.7848 47.984 81.1301 50.3294 81.1301 53.2226V78.0878C81.1301 80.9835 78.7848 83.3289 75.8915 83.3289Z" stroke="#98CFE0" stroke-width="2.94541" stroke-linecap="round" stroke-linejoin="round"/>
<path d="M47.0476 73.2304V66.3381" stroke="#98CFE0" stroke-width="2.94541" stroke-linecap="round" stroke-linejoin="round"/>
<path d="M54.6214 73.2303V58.0825" stroke="#98CFE0" stroke-width="2.94541" stroke-linecap="round" stroke-linejoin="round"/>
<path d="M62.1954 73.2304V64.8486" stroke="#98CFE0" stroke-width="2.94541" stroke-linecap="round" stroke-linejoin="round"/>
<path d="M69.7693 73.2304V59.4711" stroke="#98CFE0" stroke-width="2.94541" stroke-linecap="round" stroke-linejoin="round"/>
<defs>
<linearGradient id="paint0_linear_1155_12761" x1="90.5866" y1="126.201" x2="1.88506" y2="-86.7669" gradientUnits="userSpaceOnUse">
<stop stop-color="#8FC2CE"/>
<stop offset="1" stop-color="#DDF9FF" stop-opacity="0"/>
</linearGradient>
</defs>
</svg>
