<svg width="32" height="32" viewBox="0 0 32 32" fill="none" xmlns="http://www.w3.org/2000/svg">
<path fill-rule="evenodd" clip-rule="evenodd" d="M27.338 28.005H18.6677C18.2994 28.005 18.0008 27.7064 18.0008 27.338V26.7965C18.0052 25.2557 19.2532 24.0077 20.794 24.0033H25.2118C26.7526 24.0077 28.0006 25.2557 28.005 26.7965V27.338C28.005 27.7064 27.7064 28.005 27.338 28.005Z" stroke="#ABAAC4" stroke-width="2" stroke-linecap="round" stroke-linejoin="round"/>
<path fill-rule="evenodd" clip-rule="evenodd" d="M23.0029 20.6686C21.5309 20.6686 20.3371 19.4763 20.3351 18.0043C20.3332 16.5324 21.5238 15.3369 22.9958 15.333C24.4678 15.3291 25.6648 16.5182 25.6707 17.9901C25.6735 18.6995 25.3937 19.3808 24.8931 19.8834C24.3924 20.386 23.7123 20.6686 23.0029 20.6686Z" stroke="#ABAAC4" stroke-width="2" stroke-linecap="round" stroke-linejoin="round"/>
<path d="M6.66271 28.0051C5.18934 28.0051 3.99493 26.8107 3.99493 25.3373" stroke="#ABAAC4" stroke-width="2" stroke-linecap="round" stroke-linejoin="round"/>
<path d="M3.99498 25.3372V6.66272" stroke="#ABAAC4" stroke-width="2" stroke-linecap="round" stroke-linejoin="round"/>
<path d="M6.66275 28.005H13.3322" stroke="#ABAAC4" stroke-width="2" stroke-linecap="round" stroke-linejoin="round"/>
<path d="M25.3372 3.995C26.8106 3.995 28.005 5.1894 28.005 6.66277" stroke="#ABAAC4" stroke-width="2" stroke-linecap="round" stroke-linejoin="round"/>
<path d="M28.005 6.66272V13.3322" stroke="#ABAAC4" stroke-width="2" stroke-linecap="round" stroke-linejoin="round"/>
<path d="M25.3372 3.99507H6.66275" stroke="#ABAAC4" stroke-width="2" stroke-linecap="round" stroke-linejoin="round"/>
<path d="M6.66271 3.995C5.18934 3.995 3.99493 5.1894 3.99493 6.66277" stroke="#ABAAC4" stroke-width="2" stroke-linecap="round" stroke-linejoin="round"/>
<path fill-rule="evenodd" clip-rule="evenodd" d="M18.0008 27.338V26.7965C18.0052 25.2557 19.2532 24.0077 20.794 24.0033H25.2118C26.7526 24.0077 28.0006 25.2557 28.005 26.7965V27.338C28.005 27.7064 27.7064 28.005 27.338 28.005H18.6677C18.2994 28.005 18.0008 27.7064 18.0008 27.338Z" stroke="#ABAAC4" stroke-width="2" stroke-linecap="round" stroke-linejoin="round"/>
<path fill-rule="evenodd" clip-rule="evenodd" d="M23.0029 20.6686C24.4749 20.6686 25.6687 19.4763 25.6707 18.0043C25.6726 16.5324 24.482 15.3369 23.01 15.333C21.538 15.3291 20.341 16.5182 20.3351 17.9901C20.3323 18.6995 20.6121 19.3808 21.1127 19.8834C21.6134 20.386 22.2935 20.6686 23.0029 20.6686V20.6686Z" stroke="#ABAAC4" stroke-width="2" stroke-linecap="round" stroke-linejoin="round"/>
<path d="M3.99493 10.6645H28.0049" stroke="#ABAAC4" stroke-width="2" stroke-linecap="round" stroke-linejoin="round"/>
</svg>
