<svg width="32" height="32" viewBox="0 0 32 32" fill="none" xmlns="http://www.w3.org/2000/svg">
<path d="M4 29.3334V10.6667C4 9.93033 4.59695 9.33337 5.33333 9.33337H8C8.73638 9.33337 9.33333 9.93033 9.33333 10.6667V29.3334" stroke="#ABAAC4" stroke-width="2" stroke-linecap="round" stroke-linejoin="round"/>
<path d="M29.3333 29.3333H2.66666" stroke="#ABAAC4" stroke-width="2" stroke-linecap="round" stroke-linejoin="round"/>
<path d="M6.66666 5.33329C6.66666 3.86053 7.86056 2.66663 9.33332 2.66663H13.3333" stroke="#ABAAC4" stroke-width="2" stroke-linecap="round" stroke-linejoin="round"/>
<path d="M9.33334 13.3334H26.6667C27.4031 13.3334 28 13.9303 28 14.6667V29.3334" stroke="#ABAAC4" stroke-width="2" stroke-linecap="round" stroke-linejoin="round"/>
<path fill-rule="evenodd" clip-rule="evenodd" d="M17.3333 22.6666H20C20.7364 22.6666 21.3333 23.2636 21.3333 24V29.3333H16V24C16 23.2636 16.597 22.6666 17.3333 22.6666Z" stroke="#ABAAC4" stroke-width="2" stroke-linecap="round" stroke-linejoin="round"/>
<path d="M13.3333 18H24" stroke="#ABAAC4" stroke-width="2" stroke-linecap="round" stroke-linejoin="round"/>
</svg>
