<svg width="249" height="185" viewBox="0 0 249 185" fill="none" xmlns="http://www.w3.org/2000/svg">
<rect y="0.998047" width="249" height="184" rx="18.8636" fill="url(#paint0_linear_1146_7098)" fill-opacity="0.65"/>
<rect x="12.2614" y="69.8496" width="222.591" height="43.3864" rx="9.43182" fill="#AABAF5" fill-opacity="0.2"/>
<g opacity="0.7">
<path fill-rule="evenodd" clip-rule="evenodd" d="M30.6533 101.445H42.1062C44.0038 101.445 45.5421 99.907 45.5421 98.0094V86.9822C45.5421 86.071 45.1801 85.197 44.5357 84.5527L41.8195 81.8364C41.1751 81.1921 40.3012 80.8301 39.3899 80.8301H30.6533C28.7557 80.8301 27.2174 82.3684 27.2174 84.266V98.0094C27.2174 99.907 28.7557 101.445 30.6533 101.445Z" stroke="#A9B8EE" stroke-width="1.71794" stroke-linecap="round" stroke-linejoin="round"/>
<path d="M40.9609 96.8637H31.7986" stroke="#A9B8EE" stroke-width="1.71794" stroke-linecap="round" stroke-linejoin="round"/>
<path d="M40.9609 92.8558H31.7986" stroke="#A9B8EE" stroke-width="1.71794" stroke-linecap="round" stroke-linejoin="round"/>
<path d="M35.2345 88.848H31.7986" stroke="#A9B8EE" stroke-width="1.71794" stroke-linecap="round" stroke-linejoin="round"/>
<path d="M45.542 87.1292H41.5335C40.2684 87.1292 39.2429 86.1037 39.2429 84.8386V80.8301" stroke="#A9B8EE" stroke-width="1.71794" stroke-linecap="round" stroke-linejoin="round"/>
</g>
<rect x="56.5908" y="85.8828" width="83" height="11.3182" rx="5.65909" fill="#859BE9" fill-opacity="0.2"/>
<rect x="150.909" y="85.8828" width="47.1591" height="11.3182" rx="5.65909" fill="#859BE9" fill-opacity="0.2"/>
<rect x="12.2614" y="15.1465" width="222.591" height="43.3864" rx="9.43182" fill="#C89FFD" fill-opacity="0.2"/>
<g opacity="0.7">
<path d="M29.6687 31.1397V28.8594C29.6687 27.6 30.6896 26.5791 31.949 26.5791H43.3505C44.6099 26.5791 45.6308 27.6 45.6308 28.8594V44.8215C45.6308 46.0809 44.6099 47.1019 43.3505 47.1019H31.949C30.6896 47.1019 29.6687 46.0809 29.6687 44.8215V42.5412" stroke="#9A6AFF" stroke-width="1.70952" stroke-linecap="round" stroke-linejoin="round"/>
<rect x="25.1082" y="31.1387" width="11.4015" height="11.4015" rx="2.27936" stroke="#9A6AFF" stroke-width="1.70952" stroke-linecap="round" stroke-linejoin="round"/>
<path d="M45.6307 33.5115H36.5095" stroke="#9A6AFF" stroke-width="1.70952" stroke-linecap="round" stroke-linejoin="round"/>
<path d="M45.6307 40.2595H36.5095" stroke="#9A6AFF" stroke-width="1.70952" stroke-linecap="round" stroke-linejoin="round"/>
<path d="M28.2435 34.8457L28.8136 38.8362H29.1887L30.8089 35.4158L32.429 38.8362H32.8041L33.3742 34.8457" stroke="#9A6AFF" stroke-width="1.70952" stroke-linecap="round" stroke-linejoin="round"/>
</g>
<rect x="56.5908" y="31.1797" width="83" height="11.3182" rx="5.65909" fill="#B796FF" fill-opacity="0.2"/>
<rect x="150.909" y="31.1797" width="47.1591" height="11.3182" rx="5.65909" fill="#B796FF" fill-opacity="0.2"/>
<rect x="12.2614" y="124.555" width="222.591" height="43.3864" rx="9.43182" fill="url(#paint1_linear_1146_7098)" fill-opacity="0.2"/>
<g opacity="0.7">
<path d="M37.5248 139.444H35.2343" stroke="#F09529" stroke-width="1.71794" stroke-linecap="round" stroke-linejoin="round"/>
<path d="M37.5248 142.879H35.2343" stroke="#F09529" stroke-width="1.71794" stroke-linecap="round" stroke-linejoin="round"/>
<path fill-rule="evenodd" clip-rule="evenodd" d="M37.3881 146.314H35.3715C35.088 146.314 34.8472 146.522 34.8052 146.802L34.3884 149.58C34.339 149.91 34.4356 150.245 34.6532 150.498C34.8708 150.75 35.1876 150.896 35.521 150.896H37.2385C37.5719 150.896 37.8888 150.75 38.1063 150.498C38.3239 150.245 38.4206 149.91 38.3711 149.58L37.9544 146.802C37.9124 146.522 37.6716 146.314 37.3881 146.314V146.314Z" stroke="#F09529" stroke-width="1.71794" stroke-linecap="round" stroke-linejoin="round"/>
<path fill-rule="evenodd" clip-rule="evenodd" d="M30.6533 155.477H42.6788C44.2601 155.477 45.542 154.195 45.542 152.613V141.013C45.542 140.102 45.18 139.228 44.5357 138.584L41.8194 135.868C41.1751 135.223 40.3012 134.861 39.3899 134.861H31.2259C29.6446 134.861 28.3627 136.143 28.3627 137.725V153.186C28.3627 154.451 29.3882 155.477 30.6533 155.477Z" stroke="#F09529" stroke-width="1.71794" stroke-linecap="round" stroke-linejoin="round"/>
</g>
<rect x="56.5908" y="140.588" width="109.409" height="11.3182" rx="5.65909" fill="#F09529" fill-opacity="0.2"/>
<rect x="174.489" y="140.588" width="40.5568" height="11.3182" rx="5.65909" fill="#F09529" fill-opacity="0.2"/>
<defs>
<linearGradient id="paint0_linear_1146_7098" x1="280.597" y1="73.8111" x2="-4.46593" y2="207.451" gradientUnits="userSpaceOnUse">
<stop stop-color="#F6F2FF"/>
<stop offset="0.749096" stop-color="white" stop-opacity="0.38"/>
<stop offset="1" stop-color="#62A1FF" stop-opacity="0"/>
</linearGradient>
<linearGradient id="paint1_linear_1146_7098" x1="77.3409" y1="121.725" x2="389.062" y2="198.594" gradientUnits="userSpaceOnUse">
<stop stop-color="#FFC47E"/>
<stop offset="1" stop-color="#E8B579" stop-opacity="0.3"/>
</linearGradient>
</defs>
</svg>
