<svg width="32" height="32" viewBox="0 0 32 32" fill="none" xmlns="http://www.w3.org/2000/svg">
<path fill-rule="evenodd" clip-rule="evenodd" d="M23.3333 28H8.66667C7.19333 28 6 26.8067 6 25.3333V6.66667C6 5.19333 7.19333 4 8.66667 4H23.3333C24.8067 4 26 5.19333 26 6.66667V25.3333C26 26.8067 24.8067 28 23.3333 28Z" stroke="#ABAAC4" stroke-width="2" stroke-linecap="round" stroke-linejoin="round"/>
<path d="M18.6667 10H21.3333" stroke="#ABAAC4" stroke-width="2" stroke-linecap="round" stroke-linejoin="round"/>
<path d="M18.6667 14H21.3333" stroke="#ABAAC4" stroke-width="2" stroke-linecap="round" stroke-linejoin="round"/>
<path d="M10.6667 20H21.3333" stroke="#ABAAC4" stroke-width="2" stroke-linecap="round" stroke-linejoin="round"/>
<path d="M10.6667 24H21.3333" stroke="#ABAAC4" stroke-width="2" stroke-linecap="round" stroke-linejoin="round"/>
<path d="M12.6667 9.00004V8.00004" stroke="#ABAAC4" stroke-width="2" stroke-linecap="round" stroke-linejoin="round"/>
<path d="M12.6667 15V16" stroke="#ABAAC4" stroke-width="2" stroke-linecap="round" stroke-linejoin="round"/>
<path d="M10.9307 14.2853C11.1893 14.7093 11.632 15.0027 12.1667 15.0027H12.6667H13.2627C14.0387 15.0027 14.6667 14.3733 14.6667 13.5987C14.6667 12.9547 14.228 12.3933 13.604 12.236L11.7293 11.7667C11.1053 11.6093 10.6667 11.048 10.6667 10.404C10.6667 9.62933 11.296 9 12.0707 9H12.6667H13.1667C13.7 9 14.1413 9.292 14.4 9.71467" stroke="#ABAAC4" stroke-width="2" stroke-linecap="round" stroke-linejoin="round"/>
</svg>
