<svg width="32" height="32" viewBox="0 0 32 32" fill="none" xmlns="http://www.w3.org/2000/svg">
<path fill-rule="evenodd" clip-rule="evenodd" d="M27.9013 21.3319V10.6679C27.9013 9.71456 27.3933 8.83456 26.568 8.35856L17.3333 3.02656C16.508 2.55056 15.492 2.55056 14.6666 3.02656L5.43197 8.35856C4.60663 8.83456 4.09863 9.71589 4.09863 10.6679V21.3306C4.09863 22.2839 4.60663 23.1639 5.43197 23.6399L14.6666 28.9732C15.492 29.4492 16.508 29.4492 17.3333 28.9732L26.568 23.6412C27.3933 23.1652 27.9013 22.2839 27.9013 21.3319Z" stroke="#ABAAC4" stroke-width="2" stroke-linecap="round" stroke-linejoin="round"/>
<path d="M8.22664 16.84L12.2266 19.16" stroke="#ABAAC4" stroke-width="2" stroke-linecap="round" stroke-linejoin="round"/>
<path d="M4.45598 9.33459L16 15.9999L27.544 9.33459" stroke="#ABAAC4" stroke-width="2" stroke-linecap="round" stroke-linejoin="round"/>
<path d="M16 29.3333V16" stroke="#ABAAC4" stroke-width="2" stroke-linecap="round" stroke-linejoin="round"/>
<path d="M10.2266 12.6666L22.1333 5.79993" stroke="#ABAAC4" stroke-width="2" stroke-linecap="round" stroke-linejoin="round"/>
</svg>
