<svg width="184" height="186" viewBox="0 0 184 186" fill="none" xmlns="http://www.w3.org/2000/svg">
<g filter="url(#filter0_f_1024_10957)">
<path d="M73.5848 153.818L119.41 148.763C126.247 148.009 132.179 143.704 135.016 137.438L151.047 102.034C153.253 97.1622 153.359 91.5978 151.34 86.6459L134.061 44.2746C130.734 36.1149 122.342 31.2059 113.599 32.3042L67.4121 38.1062C61.0811 38.9015 55.5412 42.7475 52.5829 48.401L33.863 84.1764C30.9805 89.685 30.9012 96.2388 33.6495 101.816L53.9789 143.068C57.6017 150.42 65.4387 154.716 73.5848 153.818Z" stroke="url(#paint0_linear_1024_10957)" stroke-width="4"/>
</g>
<path opacity="0.7" d="M73.5847 153.818L119.41 148.763C126.247 148.009 132.179 143.704 135.016 137.438L151.047 102.034C153.253 97.1622 153.359 91.5978 151.34 86.6459L134.061 44.2746C130.734 36.1149 122.342 31.2059 113.599 32.3042L67.4121 38.1062C61.0811 38.9015 55.5412 42.7475 52.5829 48.401L33.863 84.1764C30.9805 89.685 30.9012 96.2388 33.6495 101.816L53.9789 143.068C57.6017 150.42 65.4387 154.716 73.5847 153.818Z" stroke="url(#paint1_linear_1024_10957)" stroke-width="4"/>
<path fill-rule="evenodd" clip-rule="evenodd" d="M73.9102 81.4059V81.4059C73.9102 82.7577 74.5861 83.8841 75.7126 84.7853L89.2301 94.0222C92.3842 96.0499 96.2141 96.0499 99.3682 94.0222L112.886 85.0106C113.787 83.8841 114.463 82.7577 114.463 81.4059V81.4059C114.463 79.153 112.66 77.3506 110.408 77.3506H77.9655C75.7126 77.3506 73.9102 79.153 73.9102 81.4059Z" stroke="#635764" stroke-width="3.02252" stroke-linecap="round" stroke-linejoin="round"/>
<path d="M73.9102 81.8564V104.386C73.9102 106.864 75.9378 108.891 78.4161 108.891H109.957C112.435 108.891 114.463 106.864 114.463 104.386V81.8564" stroke="#635764" stroke-width="3.02252" stroke-linecap="round" stroke-linejoin="round"/>
<path d="M75.2281 107.567L88.9574 93.8375" stroke="#635764" stroke-width="3.02252" stroke-linecap="round" stroke-linejoin="round"/>
<path d="M99.5005 93.9321L113.135 107.567" stroke="#635764" stroke-width="3.02252" stroke-linecap="round" stroke-linejoin="round"/>
<defs>
<filter id="filter0_f_1024_10957" x="0.428526" y="0.936644" width="183.568" height="184.214" filterUnits="userSpaceOnUse" color-interpolation-filters="sRGB">
<feFlood flood-opacity="0" result="BackgroundImageFix"/>
<feBlend mode="normal" in="SourceGraphic" in2="BackgroundImageFix" result="shape"/>
<feGaussianBlur stdDeviation="14.6074" result="effect1_foregroundBlur_1024_10957"/>
</filter>
<linearGradient id="paint0_linear_1024_10957" x1="145.671" y1="174.555" x2="61.0406" y2="33.101" gradientUnits="userSpaceOnUse">
<stop stop-color="#FCB8B7"/>
<stop offset="1" stop-color="#A17472" stop-opacity="0"/>
</linearGradient>
<linearGradient id="paint1_linear_1024_10957" x1="156.552" y1="184.832" x2="58.0144" y2="-5.34223" gradientUnits="userSpaceOnUse">
<stop stop-color="#D1A79E"/>
<stop offset="1" stop-color="#A17472" stop-opacity="0"/>
</linearGradient>
</defs>
</svg>
