<svg width="406" height="424" viewBox="0 0 406 424" fill="none" xmlns="http://www.w3.org/2000/svg">
<path d="M0 0.998047H382C395.255 0.998047 406 11.7432 406 24.998V399.998C406 413.253 395.255 423.998 382 423.998H0V0.998047Z" fill="white"/>
<path d="M0 0.998047H382C395.255 0.998047 406 11.7432 406 24.998V399.998C406 413.253 395.255 423.998 382 423.998H0V0.998047Z" fill="url(#paint0_linear_1146_6978)" fill-opacity="0.15"/>
<rect x="19" y="19.6348" width="368" height="67" rx="15" fill="#A9B8EE" fill-opacity="0.15"/>
<g opacity="0.3">
<path d="M357.286 52.8492C357.286 56.2021 354.567 58.9206 351.214 58.9206C347.861 58.9206 345.143 56.2021 345.143 52.8492C345.143 49.4962 347.861 46.7778 351.214 46.7778V46.7778C354.567 46.7778 357.286 49.4962 357.286 52.8492V55.126C357.286 57.2221 358.984 58.9206 361.08 58.9206C363.177 58.9206 364.875 57.2221 364.875 55.126V52.8492C364.875 45.3039 358.76 39.1885 351.214 39.1885C343.669 39.1885 337.554 45.3039 337.554 52.8492C337.554 60.3944 343.669 66.5099 351.214 66.5099C352.958 66.5099 354.731 66.179 356.442 65.4701C357.365 65.0876 358.218 64.608 359.005 64.0601" stroke="#4157A9" stroke-width="2.27678" stroke-linecap="round" stroke-linejoin="round"/>
</g>
<rect x="86" y="36.6348" width="209" height="12" rx="6" fill="#5D6EAA" fill-opacity="0.2"/>
<rect x="86" y="58.6348" width="134" height="12" rx="6" fill="#5D6EAA" fill-opacity="0.2"/>
<rect x="35" y="33.6348" width="39" height="39" rx="19.5" fill="#5D6EAA" fill-opacity="0.2"/>
<rect x="35" y="108.635" width="298" height="12" rx="6" fill="#A9B8EE" fill-opacity="0.2"/>
<rect opacity="0.85" x="35" y="134.998" width="152" height="12" rx="6" fill="#A9B8EE" fill-opacity="0.2"/>
<rect opacity="0.85" x="203" y="134.998" width="152" height="12" rx="6" fill="#A9B8EE" fill-opacity="0.2"/>
<rect opacity="0.7" x="35" y="160.635" width="245.364" height="12" rx="6" fill="#A9B8EE" fill-opacity="0.2"/>
<rect opacity="0.6" x="35" y="186.998" width="106" height="12" rx="6" fill="#A9B8EE" fill-opacity="0.2"/>
<rect opacity="0.6" x="158" y="186.998" width="164" height="12" rx="6" fill="#A9B8EE" fill-opacity="0.2"/>
<rect opacity="0.5" x="35" y="212.635" width="252.652" height="12" rx="6" fill="#A9B8EE" fill-opacity="0.2"/>
<rect opacity="0.4" x="35" y="238.635" width="236.457" height="12" rx="6" fill="#A9B8EE" fill-opacity="0.2"/>
<rect opacity="0.3" x="215" y="264.998" width="109" height="12" rx="6" fill="#A9B8EE" fill-opacity="0.2"/>
<rect opacity="0.3" x="35" y="264.998" width="168" height="12" rx="6" fill="#A9B8EE" fill-opacity="0.2"/>
<rect opacity="0.2" x="35" y="290.635" width="221.071" height="12" rx="6" fill="#A9B8EE" fill-opacity="0.2"/>
<path d="M0 350.635H406V399.635C406 412.89 395.255 423.635 382 423.635H0V350.635Z" fill="#594BAF" fill-opacity="0.06"/>
<rect x="287" y="363.635" width="103" height="45" rx="12" fill="#A428C4" fill-opacity="0.1"/>
<path d="M320.562 391.779C319.614 391.779 318.696 391.635 317.808 391.347C316.932 391.047 316.242 390.663 315.738 390.195L316.404 388.791C316.884 389.223 317.496 389.577 318.24 389.853C318.996 390.117 319.77 390.249 320.562 390.249C321.606 390.249 322.386 390.075 322.902 389.727C323.418 389.367 323.676 388.893 323.676 388.305C323.676 387.873 323.532 387.525 323.244 387.261C322.968 386.985 322.62 386.775 322.2 386.631C321.792 386.487 321.21 386.325 320.454 386.145C319.506 385.917 318.738 385.689 318.15 385.461C317.574 385.233 317.076 384.885 316.656 384.417C316.248 383.937 316.044 383.295 316.044 382.491C316.044 381.819 316.218 381.213 316.566 380.673C316.926 380.133 317.466 379.701 318.186 379.377C318.906 379.053 319.8 378.891 320.868 378.891C321.612 378.891 322.344 378.987 323.064 379.179C323.784 379.371 324.402 379.647 324.918 380.007L324.324 381.447C323.796 381.111 323.232 380.859 322.632 380.691C322.032 380.511 321.444 380.421 320.868 380.421C319.848 380.421 319.08 380.607 318.564 380.979C318.06 381.351 317.808 381.831 317.808 382.419C317.808 382.851 317.952 383.205 318.24 383.481C318.528 383.745 318.882 383.955 319.302 384.111C319.734 384.255 320.316 384.411 321.048 384.579C321.996 384.807 322.758 385.035 323.334 385.263C323.91 385.491 324.402 385.839 324.81 386.307C325.23 386.775 325.44 387.405 325.44 388.197C325.44 388.857 325.26 389.463 324.9 390.015C324.54 390.555 323.994 390.987 323.262 391.311C322.53 391.623 321.63 391.779 320.562 391.779ZM336.44 386.919C336.44 387.051 336.428 387.225 336.404 387.441H328.664C328.772 388.281 329.138 388.959 329.762 389.475C330.398 389.979 331.184 390.231 332.12 390.231C333.26 390.231 334.178 389.847 334.874 389.079L335.828 390.195C335.396 390.699 334.856 391.083 334.208 391.347C333.572 391.611 332.858 391.743 332.066 391.743C331.058 391.743 330.164 391.539 329.384 391.131C328.604 390.711 327.998 390.129 327.566 389.385C327.146 388.641 326.936 387.801 326.936 386.865C326.936 385.941 327.14 385.107 327.548 384.363C327.968 383.619 328.538 383.043 329.258 382.635C329.99 382.215 330.812 382.005 331.724 382.005C332.636 382.005 333.446 382.215 334.154 382.635C334.874 383.043 335.432 383.619 335.828 384.363C336.236 385.107 336.44 385.959 336.44 386.919ZM331.724 383.463C330.896 383.463 330.2 383.715 329.636 384.219C329.084 384.723 328.76 385.383 328.664 386.199H334.784C334.688 385.395 334.358 384.741 333.794 384.237C333.242 383.721 332.552 383.463 331.724 383.463ZM343.933 382.005C345.145 382.005 346.105 382.359 346.813 383.067C347.533 383.763 347.893 384.789 347.893 386.145V391.635H346.165V386.343C346.165 385.419 345.943 384.723 345.499 384.255C345.055 383.787 344.419 383.553 343.591 383.553C342.655 383.553 341.917 383.829 341.377 384.381C340.837 384.921 340.567 385.701 340.567 386.721V391.635H338.839V382.095H340.495V383.535C340.843 383.043 341.311 382.665 341.899 382.401C342.499 382.137 343.177 382.005 343.933 382.005ZM360.144 378.279V391.635H358.488V390.123C358.104 390.651 357.618 391.053 357.03 391.329C356.442 391.605 355.794 391.743 355.086 391.743C354.162 391.743 353.334 391.539 352.602 391.131C351.87 390.723 351.294 390.153 350.874 389.421C350.466 388.677 350.262 387.825 350.262 386.865C350.262 385.905 350.466 385.059 350.874 384.327C351.294 383.595 351.87 383.025 352.602 382.617C353.334 382.209 354.162 382.005 355.086 382.005C355.77 382.005 356.4 382.137 356.976 382.401C357.552 382.653 358.032 383.031 358.416 383.535V378.279H360.144ZM355.23 390.231C355.83 390.231 356.376 390.093 356.868 389.817C357.36 389.529 357.744 389.133 358.02 388.629C358.296 388.113 358.434 387.525 358.434 386.865C358.434 386.205 358.296 385.623 358.02 385.119C357.744 384.603 357.36 384.207 356.868 383.931C356.376 383.655 355.83 383.517 355.23 383.517C354.618 383.517 354.066 383.655 353.574 383.931C353.094 384.207 352.71 384.603 352.422 385.119C352.146 385.623 352.008 386.205 352.008 386.865C352.008 387.525 352.146 388.113 352.422 388.629C352.71 389.133 353.094 389.529 353.574 389.817C354.066 390.093 354.618 390.231 355.23 390.231Z" fill="#421A55" fill-opacity="0.48"/>
<rect x="19" y="363.635" width="99.5713" height="43.7142" rx="12" fill="#A9B8EE" fill-opacity="0.06"/>
<g opacity="0.5">
<path fill-rule="evenodd" clip-rule="evenodd" d="M42.0714 396.42H54.2143C56.2262 396.42 57.8571 394.789 57.8571 392.777V381.085C57.8571 380.119 57.4733 379.193 56.7902 378.509L53.9103 375.629C53.2271 374.946 52.3006 374.563 51.3344 374.562H42.0714C40.0595 374.562 38.4286 376.193 38.4286 378.205V392.777C38.4286 394.789 40.0595 396.42 42.0714 396.42Z" stroke="#A2AED9" stroke-width="1.82143" stroke-linecap="round" stroke-linejoin="round"/>
<path d="M52.9999 391.562H43.2856" stroke="#A2AED9" stroke-width="1.82143" stroke-linecap="round" stroke-linejoin="round"/>
<path d="M52.9999 387.312H43.2856" stroke="#A2AED9" stroke-width="1.82143" stroke-linecap="round" stroke-linejoin="round"/>
<path d="M46.9285 383.062H43.2856" stroke="#A2AED9" stroke-width="1.82143" stroke-linecap="round" stroke-linejoin="round"/>
<path d="M57.8572 381.241H53.6072C52.2659 381.241 51.1786 380.154 51.1786 378.812V374.562" stroke="#A2AED9" stroke-width="1.82143" stroke-linecap="round" stroke-linejoin="round"/>
</g>
<g opacity="0.5">
<path d="M90.6426 379.42H88.214" stroke="#A2AED9" stroke-width="1.82143" stroke-linecap="round" stroke-linejoin="round"/>
<path d="M90.6426 383.062H88.214" stroke="#A2AED9" stroke-width="1.82143" stroke-linecap="round" stroke-linejoin="round"/>
<path fill-rule="evenodd" clip-rule="evenodd" d="M90.4976 386.705H88.3594C88.0589 386.705 87.8036 386.925 87.759 387.222L87.3172 390.168C87.2647 390.517 87.3672 390.872 87.5979 391.14C87.8286 391.408 88.1645 391.562 88.518 391.562H90.3389C90.6924 391.562 91.0284 391.408 91.259 391.14C91.4897 390.872 91.5922 390.517 91.5398 390.168L91.098 387.222C91.0534 386.925 90.7981 386.705 90.4976 386.705V386.705Z" stroke="#A2AED9" stroke-width="1.82143" stroke-linecap="round" stroke-linejoin="round"/>
<path fill-rule="evenodd" clip-rule="evenodd" d="M83.357 396.42H96.107C97.7836 396.42 99.1427 395.06 99.1427 393.384V381.085C99.1427 380.119 98.7589 379.193 98.0758 378.509L95.1959 375.629C94.5127 374.946 93.5861 374.563 92.62 374.562H83.9642C82.2876 374.562 80.9285 375.922 80.9285 377.598V393.991C80.9285 395.332 82.0158 396.42 83.357 396.42Z" stroke="#A2AED9" stroke-width="1.82143" stroke-linecap="round" stroke-linejoin="round"/>
</g>
<g opacity="0.5">
<path d="M258.853 381.804L252.191 388.465C251.188 389.468 251.188 391.095 252.191 392.098V392.098C253.194 393.101 254.822 393.101 255.825 392.098L264.606 383.317C266.446 381.477 266.446 378.495 264.606 376.655V376.655C262.767 374.815 259.784 374.815 257.945 376.655L249.163 385.437C246.487 388.113 246.487 392.451 249.163 395.127V395.127C251.839 397.803 256.177 397.803 258.853 395.127L264.182 389.797" stroke="#421A55" stroke-width="1.82143" stroke-linecap="round" stroke-linejoin="round"/>
</g>
<defs>
<linearGradient id="paint0_linear_1146_6978" x1="22.5" y1="0.998017" x2="207.487" y2="199.181" gradientUnits="userSpaceOnUse">
<stop stop-color="#8FCFF2"/>
<stop offset="1" stop-color="#646FCC" stop-opacity="0"/>
</linearGradient>
</defs>
</svg>
