<svg width="51" height="51" viewBox="0 0 51 51" fill="none" xmlns="http://www.w3.org/2000/svg">
<path d="M39.2539 24.5663V10.1094C39.2539 8.50255 37.9513 7.19995 36.3445 7.19995H13.0691C11.4623 7.19995 10.1597 8.50255 10.1597 10.1094V23.7896" stroke="white" stroke-width="2" stroke-linecap="round" stroke-linejoin="round"/>
<path fill-rule="evenodd" clip-rule="evenodd" d="M43.9177 25.2035C43.9176 24.4126 43.4687 23.6903 42.7595 23.3402C42.0503 22.9901 41.2039 23.0728 40.576 23.5537L27.7942 33.3417C26.2714 34.5078 24.1558 34.5078 22.633 33.3417C22.633 33.3417 14.5668 27.1648 9.84515 23.5494C9.21703 23.0696 8.37088 22.9883 7.66288 23.3397C6.95487 23.691 6.50796 24.4141 6.51026 25.2045V40.4507C6.51026 42.7462 8.37111 44.6071 10.6666 44.6071H39.7608C42.0563 44.6071 43.9172 42.7462 43.9172 40.4507C43.9172 40.4507 43.9172 30.9246 43.9177 25.2035Z" stroke="white" stroke-width="2" stroke-linecap="round" stroke-linejoin="round"/>
<path d="M28.3312 18.6306L24.1748 21.7479L22.0967 20.1892" stroke="#68E07B" stroke-width="2" stroke-linecap="round" stroke-linejoin="round"/>
</svg>
