<svg width="298" height="367" viewBox="0 0 298 367" fill="none" xmlns="http://www.w3.org/2000/svg">
<g clip-path="url(#clip0_1146_6750)">
<path d="M-0.00012207 17.7105C-0.00012207 8.19464 7.71401 0.480469 17.2299 0.480469H280.774C290.288 0.480469 298 8.19256 298 17.7059V349.295C298 358.809 290.288 366.521 280.774 366.521H17.1999C7.70059 366.521 -0.00012207 358.82 -0.00012207 349.321V17.7105Z" fill="white" fill-opacity="0.4"/>
<path d="M-0.00012207 17.7105C-0.00012207 8.19464 7.71401 0.480469 17.2299 0.480469H280.774C290.288 0.480469 298 8.19256 298 17.7059V349.295C298 358.809 290.288 366.521 280.774 366.521H17.1999C7.70059 366.521 -0.00012207 358.82 -0.00012207 349.321V17.7105Z" fill="url(#paint0_linear_1146_6750)" fill-opacity="0.05"/>
<path d="M48.5511 8.49552L50.4544 10.7795L46.7746 11.7946L43.7293 13.1903L36.2431 14.2054L29.518 15.855L26.4727 19.4078L28.8836 22.8337L30.66 26.8941L28.1223 30.3201L29.1373 33.4923L27.9954 36.4107L21.3972 36.1569L25.3307 41.4862L21.3972 43.6432L19.6207 48.465L21.0166 53.4136L18.7326 55.6975L16.068 54.9362L10.9925 56.0782L10.7386 58.2352H5.53629L2.61798 62.9301L3.63298 69.782L-4.74154 73.208L-9.69017 72.4466L-10.8322 74.223L-15.1462 73.208L-21.8713 74.4768L-34.0524 70.2895L-29.1038 62.9301L-30.4997 57.7277L-35.9557 56.3319L-37.4785 51.1296L-40.9044 44.6583L-38.8742 40.2173L-42.0464 38.9484L-41.412 32.9847L-40.6507 22.8337L-33.1643 26.0059L-28.2157 24.8639L-27.7081 21.1842L-22.6326 20.0423L-19.3336 17.5045L-19.5873 11.0333L-14.2581 9.3837L-13.8773 6.59221L-10.1977 8.74927L-8.16743 9.00306H-4.36082L1.09524 10.7795L3.37927 11.6677L7.69346 9.12995L10.3581 10.6526L11.5001 6.97286L15.5604 7.09975L16.3217 5.95777L16.068 2.6587L18.225 -0.132812L22.4123 1.64362L22.2855 4.18136L24.4425 4.56201L25.5845 11.4139L29.0104 14.0785L30.9137 12.3021L33.7053 11.5408L36.8775 7.86108L41.6991 8.49552H48.5511Z" fill="#C9BEF8" fill-opacity="0.6" stroke="white" stroke-width="0.253774" stroke-linecap="round" stroke-linejoin="round"/>
<path d="M197.771 133.733L198.532 139.57L195.867 138.301L197.263 144.899L194.598 140.712L193.583 136.525L191.68 132.591L188.127 127.896L181.529 127.516L182.671 130.942L181.148 135.383L177.849 133.733L177.088 135.256L174.931 134.368L172.139 133.606L170.109 126.881L166.81 120.791L167.191 115.842L162.496 113.685L163.638 110.767L167.444 107.721L161.608 103.407L163.13 97.8242L169.348 101.377L172.774 101.758L174.296 107.468L181.148 108.61L187.62 108.483L191.934 109.878L189.904 116.73L186.858 117.238L185.336 121.806L189.904 126.12L190.284 120.791H192.187L197.771 133.733Z" fill="#C9BEF8" fill-opacity="0.6" stroke="white" stroke-width="0.253774" stroke-linecap="round" stroke-linejoin="round"/>
<path d="M182.798 87.0388L186.097 89.7035L186.731 94.6521L181.021 94.9058L175.058 94.3983L170.997 95.6671L164.018 92.495L163.511 90.9723L166.81 84.8817L170.109 82.8516L175.565 84.628L179.245 84.8817L182.798 87.0388Z" fill="#C9BEF8" fill-opacity="0.6" stroke="white" stroke-width="0.253774" stroke-linecap="round" stroke-linejoin="round"/>
<path d="M356.378 -88.0652L367.798 -82.3553L375.411 -74.9958H385.055L388.354 -78.0411L397.109 -80.452L398.759 -73.2194L398.378 -70.301L401.931 -61.6727L402.692 -53.8057L393.937 -55.2014L390.257 -52.4099L396.221 -45.558L401.169 -36.0415L397.997 -35.9146L400.408 -31.7273L393.429 -36.549V-31.9811L385.309 -28.5551L388.861 -24.2409L383.024 -24.6216L378.457 -27.1593L377.061 -21.3225L372.112 -17.0084L369.448 -11.806L361.454 -9.52204L358.408 -5.71543L352.318 -3.43146L353.967 -7.23807L351.049 -10.4102L353.587 -15.8664L347.877 -20.0537L343.563 -17.2621L338.995 -11.5522L337.345 -6.34987L331.001 -5.9692L329.351 -2.16258L335.442 3.29356L341.532 4.68933L343.309 8.24216L349.78 10.653L354.602 4.81623L362.088 7.9884L366.529 8.24216L369.448 12.4295L360.946 14.7134L359.677 19.1545L354.856 23.2149L353.714 28.9248L362.723 33.3658L368.559 41.3597L375.538 48.8461L382.517 55.0635L384.547 61.1541L380.994 63.4381L384.04 67.7522L388.988 70.29L390.003 76.8881L390.13 83.3594L386.577 84.1207L383.913 92.8759L380.994 103.661L376.68 113.305L368.559 120.791L360.185 127.77L352.445 128.658L348.765 132.211L345.847 129.673L342.674 133.607L333.539 137.794L326.179 138.936L325.291 147.564L321.357 148.072L318.566 142.108L319.708 139.063L309.811 136.398L306.765 137.794L299.279 135.637L295.345 132.338L295.726 127.643L289.001 126.12L285.068 123.075L279.865 127.389L273.14 128.404L267.557 128.277L264.131 130.308L260.705 131.45L263.243 140.839L259.436 140.585L258.421 138.682L257.787 135.256L252.965 137.667L249.666 136.144L243.956 133.099L244.971 126.374L240.276 124.725L237.231 117.238L230.125 118.634L229.237 108.991L234.567 102.139L233.425 95.4137L231.775 89.1962L228.349 87.2929L224.923 82.4711L220.99 83.1056L213.25 81.8367L214.772 78.4108L210.204 73.3353L206.144 76.7612L199.926 74.8579L193.074 79.9334L188.126 86.024L182.797 87.0391L179.244 84.882L175.564 84.6282L170.108 82.8518L166.809 84.882L163.51 90.9726L161.606 84.5013L157.673 86.2778L149.425 85.3896L141.178 83.6131L134.833 79.9334L129.123 78.4108L125.951 74.4773L121.764 73.3353L113.643 68.006L107.553 65.4683L105.142 67.3716L94.2294 61.6617L86.3624 56.5862L82.302 47.5772L87.5043 48.7191L86.743 44.5319L82.9364 40.3446L81.9214 33.7465L72.151 24.1031L60.0967 20.9309L56.4169 14.5865L50.4533 10.7799L48.55 8.49594L46.266 3.928L45.6315 0.755821L40.9368 -1.14748L39.0335 -0.259277L35.1 -7.87251L36.4957 -9.64892L34.9731 -11.5522L40.1755 -15.3588L44.2358 -17.0084L51.5953 -15.8664L52.3566 -21.0688L60.4774 -21.957L61.7463 -25.256L70.5015 -29.5702L70.7553 -31.3466L68.5982 -36.0415L72.2778 -38.0717L61.1119 -52.0292L72.6586 -55.2014L75.1963 -56.9778L73.9274 -71.3161L87.6313 -68.6514L89.6615 -72.3312L86.4893 -80.1982L91.3109 -80.9595L93.7218 -86.2888L95.879 -86.9232L100.066 -81.3402L107.299 -77.1529L117.703 -74.2345L125.063 -67.7632L126.839 -58.5005L130.646 -54.9476L138.894 -53.5519L148.03 -52.5368L158.181 -47.4613L162.495 -46.5731L168.839 -39.2136L174.803 -34.3919L181.908 -34.6457L196.247 -32.7424L204.367 -33.8844L211.473 -32.7424L223.401 -27.7938H231.267L235.455 -25.3829L241.038 -29.6971L250.174 -32.4886L259.817 -32.7424L266.035 -35.5339L268.572 -39.8481L271.618 -42.6396L269.207 -45.3042L265.527 -48.3495L266.161 -53.5519L270.222 -52.7906L277.708 -51.141L281.769 -55.4552L289.889 -58.5005L291.539 -63.8297L294.711 -66.1137L303.339 -67.1288L308.922 -66.2406L307.907 -69.0321L298.771 -74.6151L292.173 -77.1529L289.001 -74.2345L282.022 -75.5034L279.104 -74.4883L275.551 -77.6604L275.17 -85.6543L274.409 -91.618L283.799 -88.5727L289.382 -93.5213L286.971 -97.0742L286.717 -105.322L288.367 -107.86L285.195 -112.174L280.5 -113.95L282.657 -117.884L289.128 -119.279L296.995 -119.533L307.907 -117.122L315.521 -114.331L325.291 -106.464L330.113 -103.038L335.823 -98.2162L343.689 -90.6029L356.378 -88.0652Z" fill="#C9BEF8" fill-opacity="0.6" stroke="white" stroke-width="0.253774" stroke-linecap="round" stroke-linejoin="round"/>
<path d="M305.116 360.987L297.249 361.114L291.539 354.389L282.53 347.664L279.612 342.715L274.409 336.117L270.984 330.027L265.654 318.607L259.437 311.755L257.28 304.776L254.488 298.432L247.89 293.356L243.957 286.377L238.373 281.81L230.507 272.801L229.745 268.613L234.313 268.994L245.606 270.517L252.204 278.51L258.041 284.093L262.101 287.393L269.08 296.148L276.44 296.275L282.53 301.858L286.844 308.71L292.301 312.516L289.382 319.114L293.569 321.906L296.107 322.16L297.249 327.87L299.66 332.311L304.862 333.072L308.161 338.274L306.004 348.425L305.116 360.987Z" fill="#C9BEF8" fill-opacity="0.6" stroke="white" stroke-width="0.253774" stroke-linecap="round" stroke-linejoin="round"/>
<path d="M105.142 67.3701L101.589 71.1767L100.447 78.7899L107.807 81.8352L115.166 85.7687L125.063 90.3367L134.834 91.4786L139.656 95.539L145.112 96.3003L153.867 98.2036L159.704 98.0768L159.83 94.9046L157.927 89.7022L157.673 86.2763L161.607 84.4998L163.51 90.9711L164.018 92.4937L170.997 95.6659L175.057 94.397L181.021 94.9046L186.731 94.6508L186.096 89.7022L182.797 87.0376L188.126 86.0225L193.075 79.9319L199.927 74.8564L206.144 76.7597L210.205 73.3338L214.773 78.4093L213.25 81.8352L220.99 83.1041L222.259 86.1494L220.102 87.672L221.878 92.6206L216.549 91.2248L208.682 96.8079L209.824 101.503L207.286 108.355L207.667 112.288L205.637 119.013L199.8 117.11L200.942 125.611L199.673 128.403L200.942 131.829L197.77 133.732L192.187 120.79H190.283L189.903 126.119L185.335 121.805L186.857 117.237L189.903 116.729L191.933 109.877L187.619 108.482L181.148 108.608L174.296 107.466L172.773 101.757L169.347 101.376L163.13 97.823L161.607 103.406L167.444 107.72L163.637 110.765L162.495 113.684L167.19 115.841L166.809 120.79L170.108 126.88L172.139 133.605L171.504 136.65L166.682 136.524L158.308 138.173L159.45 144.264L156.405 149.085L146.888 154.668L140.163 164.185L135.341 169.387L128.997 174.717L129.378 178.396L126.078 180.427L119.988 183.345L116.689 183.726L115.166 189.943L117.577 200.602L118.465 207.327L116.054 215.067L116.943 228.897L113.263 229.278L110.344 235.496L112.755 238.287L106.284 240.571L104.127 246.027L101.336 248.438L94.2299 240.825L90.2964 229.405L87.1242 221.157L84.3326 217.351L80.0186 209.484L77.4808 199.333L75.7044 194.257L68.218 183.091L63.7769 167.23L60.4779 156.826L59.4627 146.928L57.3057 139.315L47.5353 144.264L42.4598 143.249L32.182 133.351L35.2273 130.433L32.8165 127.261L23.8075 120.282L27.8678 114.826H43.2213L40.9373 107.847L36.4962 103.787L34.7198 97.4423L29.6443 93.8895L35.8618 85.2612L44.1094 85.8956L49.8194 77.3942L52.6108 69.1465L57.5594 60.8988L56.2906 55.062L61.1123 50.3672L54.6411 46.4337L50.9614 40.8507L46.774 33.745L49.3118 30.1922L60.0972 32.2223L67.3298 30.9535L72.1515 24.1016L81.9219 33.745L82.9369 40.3431L86.7435 44.5304L87.5048 48.7177L82.3024 47.5757L86.3629 56.5847L94.2299 61.6602L105.142 67.3701Z" fill="#C9BEF8" fill-opacity="0.6" stroke="white" stroke-width="0.253774" stroke-linecap="round" stroke-linejoin="round"/>
<path d="M310.953 197.557L313.237 203.013L313.364 212.784L301.944 219.128L305.497 223.95L298.01 224.584L292.174 227.883L286.083 226.741L282.784 222.427L278.343 214.052L275.678 204.155L279.612 197.43L288.621 195.908L295.346 197.05L301.69 200.222L304.228 194.639L310.953 197.557Z" fill="#C9BEF8" fill-opacity="0.6" stroke="white" stroke-width="0.253774" stroke-linecap="round" stroke-linejoin="round"/>
<path d="M310.954 197.557L304.228 194.638L301.691 200.221L295.346 197.049L297.25 193.37L296.742 186.518L290.017 179.412L288.368 171.291L282.023 164.693L276.567 164.185L275.552 166.977L271.491 167.231L269.081 165.835L262.356 170.657L261.087 163.297L261.594 154.796L256.773 154.415L255.631 149.467L252.205 146.929L253.22 144.01L258.422 138.681L259.437 140.585L263.244 140.838L260.706 131.449L264.132 130.307L269.208 136.778L273.649 144.137H282.277L286.084 151.243L281.896 153.4L280.374 156.319L289.636 161.267L296.869 170.911L302.452 178.016L308.669 183.726L311.207 189.436L310.954 197.557Z" fill="#C9BEF8" fill-opacity="0.6" stroke="white" stroke-width="0.253774" stroke-linecap="round" stroke-linejoin="round"/>
<path d="M128.363 262.778L122.272 264.681L118.593 258.21L116.816 246.536L119.354 233.34L124.556 237.781L128.109 243.491L132.043 251.992L131.281 260.494L128.363 262.778Z" fill="#C9BEF8" fill-opacity="0.6" stroke="white" stroke-width="0.253774" stroke-linecap="round" stroke-linejoin="round"/>
<path d="M258.422 138.682L253.22 144.011L252.205 146.929L248.398 148.833L244.845 152.386L239.897 152.766L237.994 161.521L235.202 163.044L239.643 170.15L244.845 176.113L248.525 181.57L246.749 188.548L244.465 190.071L246.749 194.131L252.205 200.603L253.474 205.171L253.727 208.977L257.153 216.464L253.854 224.077L251.063 232.451L249.921 226.361L251.57 220.143L248.779 215.322L248.525 206.439L245.226 202.125L241.8 192.482L239.262 182.204L235.329 175.352L231.268 179.539L223.909 185.249L219.722 184.615L215.154 182.712L216.296 172.561L213.758 164.947L207.033 155.558L207.414 152.639L203.1 151.497L197.263 144.899L195.867 138.301L198.532 139.57L197.77 133.733L200.942 131.83L199.674 128.404L200.942 125.612L199.8 117.111L205.637 119.014L207.668 112.289L207.287 108.356L209.825 101.504L208.683 96.809L216.55 91.2259L221.879 92.6217L220.102 87.6731L222.26 86.1504L220.991 83.1051L224.924 82.4707L228.35 87.2924L231.776 89.1957L233.426 95.4132L234.568 102.138L229.238 108.99L230.126 118.634L237.232 117.238L240.277 124.724L244.972 126.374L243.957 133.099L249.667 136.144L252.966 137.667L257.788 135.256L258.422 138.682Z" fill="#C9BEF8" fill-opacity="0.6" stroke="white" stroke-width="0.253774" stroke-linecap="round" stroke-linejoin="round"/>
<path d="M278.597 262.651L280.373 263.412L284.814 268.36L287.987 273.817L288.748 279.273L288.114 282.952L288.875 285.744L289.509 290.566L292.174 292.85L295.092 300.082V302.747L290.017 303.381L283.038 297.291L274.41 290.819L273.395 286.632L269.081 281.176L267.812 274.451L265.02 270.01L265.528 264.046L263.751 260.62L264.893 259.225L270.984 262.777L271.745 266.965L276.44 265.95L278.597 262.651Z" fill="#C9BEF8" fill-opacity="0.6" stroke="white" stroke-width="0.253774" stroke-linecap="round" stroke-linejoin="round"/>
<path d="M157.674 86.2763L157.927 89.7022L159.831 94.9046L159.704 98.0768L153.867 98.2037L145.112 96.3004L139.656 95.5391L134.834 91.4787L125.064 90.3367L115.167 85.7687L107.807 81.8352L100.448 78.7899L101.59 71.1767L105.142 67.3701L107.553 65.4668L113.644 68.0045L121.765 73.3338L125.952 74.4758L129.124 78.4093L134.834 79.9319L141.178 83.6116L149.426 85.3881L157.674 86.2763Z" fill="#C9BEF8" fill-opacity="0.6" stroke="white" stroke-width="0.253774" stroke-linecap="round" stroke-linejoin="round"/>
<path d="M72.152 24.1024L67.3304 30.9543L60.0977 32.2232L49.3123 30.1931L46.7746 33.7459L50.9619 40.8516L54.6416 46.4346L61.1129 50.3681L56.2911 55.0629L57.56 60.8997L52.6113 69.1474L49.8199 77.3951L44.11 85.8965L35.8623 85.2621L29.6448 93.8904L34.7203 97.4432L36.4967 103.788L40.9378 107.848L43.2218 114.827H27.8683L23.808 120.283L18.4788 118.253L15.6872 112.416L9.4697 106.198L-3.21901 107.721L-14.6389 107.848L-24.2822 108.99L-22.8865 99.6003L-13.37 95.2861L-14.5118 91.6064L-17.9379 90.2107L-19.2068 83.105L-26.4393 79.5521L-29.9922 74.6036L-34.0525 70.2894L-21.8714 74.4767L-15.1463 73.2078L-10.8322 74.2229L-9.69022 72.4465L-4.74159 73.2078L3.63293 69.7818L2.61792 62.9299L5.53623 58.2351H10.7386L10.9924 56.078L16.0679 54.936L18.7325 55.6973L21.0166 53.4134L19.6207 48.4648L21.3971 43.6431L25.3306 41.486L21.3971 36.1567L27.9953 36.4105L29.1372 33.4921L28.1222 30.3199L30.6599 26.894L28.8835 22.8336L26.4726 19.4076L29.5179 15.8548L36.243 14.2053L43.7292 13.1901L46.7746 11.7944L50.4543 10.7793L56.4179 14.5859L60.0977 20.9303L72.152 24.1024Z" fill="#C9BEF8" fill-opacity="0.6" stroke="white" stroke-width="0.253774" stroke-linecap="round" stroke-linejoin="round"/>
<path d="M295.346 197.05L288.621 195.908L279.612 197.431L275.679 204.156L278.343 214.053L271.618 210.246L265.528 210.5L265.908 204.029H259.691L259.945 213.038L257.153 224.965L255.377 232.198L256.265 238.035L260.96 238.288L264.386 245.775L266.035 252.754L270.349 257.448L274.664 258.337L278.597 262.651L276.44 265.95L271.745 266.965L270.984 262.778L264.893 259.225L263.751 260.621L260.833 257.575L259.31 253.515L255.25 248.947L251.57 245.013L250.682 249.835L249.032 245.267L249.54 240.192L251.063 232.452L253.854 224.077L257.153 216.464L253.727 208.977L253.473 205.171L252.205 200.603L246.748 194.132L244.464 190.071L246.748 188.549L248.525 181.57L244.845 176.114L239.643 170.15L235.202 163.044L237.993 161.522L239.897 152.766L244.845 152.386L248.398 148.833L252.205 146.93L255.63 149.467L256.772 154.416L261.594 154.797L261.087 163.298L262.356 170.658L269.081 165.836L271.491 167.232L275.552 166.978L276.567 164.186L282.023 164.694L288.367 171.292L290.017 179.413L296.742 186.518L297.249 193.37L295.346 197.05Z" fill="#C9BEF8" fill-opacity="0.6" stroke="white" stroke-width="0.253774" stroke-linecap="round" stroke-linejoin="round"/>
<path d="M15.5595 -14.3448L13.783 -11.934L6.1698 -13.2028L6.93109 -8.6349L13.9099 -9.26934L22.919 -6.60472L35.1001 -7.87359L39.0336 -0.260363L40.9369 -1.14857L45.6317 0.754738L46.2661 3.92692L48.5501 8.49486H41.6982L36.8766 7.86043L33.7044 11.5401L30.9128 12.3015L29.0095 14.0779L25.5836 11.4132L24.4416 4.56135L22.2846 4.18071L22.4114 1.64296L18.2241 -0.133469L16.0671 2.65804L16.3208 5.95712L15.5595 7.09909L11.4991 6.9722L10.3571 10.6519L7.69253 9.1293L3.37834 11.667L1.09431 10.7788L2.74391 2.53115L-0.301417 -3.55942L-5.63062 -5.46272L-4.86932 -9.01557L0.713742 -8.6349L2.61705 -13.076L3.25148 -18.2783L11.4991 -20.1816L11.2453 -16.375L12.8949 -14.2179L15.5595 -14.3448Z" fill="#C9BEF8" fill-opacity="0.6" stroke="white" stroke-width="0.253774" stroke-linecap="round" stroke-linejoin="round"/>
<path d="M10.1036 -30.7131L12.2608 -29.9517L8.45418 -24.7494L14.291 -21.7041L18.3513 -23.7343L27.4872 -19.4201L20.7622 -13.5833L15.5598 -14.3446L12.8952 -14.2177L11.2456 -16.3748L11.4995 -20.1814L3.25183 -18.2781L2.6174 -13.0758L0.714088 -8.6347L-4.86897 -9.01537L-5.63026 -5.46252L-0.301064 -3.55922L2.74426 2.53135L1.09466 10.779L-4.36139 9.0026H-8.16801L-9.18317 4.05401L-18.9534 0.501171L-26.9474 -3.43234L-32.2766 -7.23895L-41.2857 -12.822L-46.7417 -21.1965L-49.4063 -22.7192L-56.3851 -22.3385L-59.3036 -23.9881L-61.7145 -30.3324L-71.7386 -34.6466L-76.0526 -29.9517L-80.8744 -27.1602L-78.7174 -23.0998L-86.2036 -22.9729L-94.0707 -52.6646L-78.8442 -57.3594L-77.4485 -56.7249L-65.7748 -51.015L-59.6843 -47.9697L-51.3096 -40.7372L-44.0771 -41.8791L-33.1649 -42.5136L-23.5215 -36.6768L-21.6182 -28.556L-18.319 -28.4291L-15.1468 -21.831L-6.64542 -21.5772L-3.72696 -17.7706H-1.18922L-0.0473557 -23.6074L6.80458 -29.1904L10.1036 -30.7131Z" fill="#C9BEF8" fill-opacity="0.6" stroke="white" stroke-width="0.253774" stroke-linecap="round" stroke-linejoin="round"/>
<path d="M306.766 137.793L298.518 144.645L293.823 152.385L293.062 158.095L299.787 166.597L308.035 177.255L315.267 182.331L320.47 188.802L325.545 203.901L326.053 218.24L320.596 223.569L312.856 228.898L307.527 235.623L299.153 243.236L296.234 238.034L297.757 232.451L292.174 227.883L298.011 224.584L305.497 223.949L301.944 219.128L313.364 212.783L313.237 203.013L310.953 197.557L311.207 189.436L308.669 183.726L302.452 178.016L296.868 170.911L289.636 161.267L280.373 156.319L281.896 153.4L286.083 151.243L282.276 144.137H273.648L269.207 136.778L264.132 130.307L267.558 128.277L273.141 128.403L279.866 127.388L285.068 123.074L289.002 126.12L295.727 127.642L295.346 132.337L299.279 135.636L306.766 137.793Z" fill="#C9BEF8" fill-opacity="0.6" stroke="white" stroke-width="0.253774" stroke-linecap="round" stroke-linejoin="round"/>
<path d="M73.8025 279.018V279.272L73.5481 279.145L73.8025 278.891V279.018Z" fill="#C9BEF8" fill-opacity="0.6" stroke="white" stroke-width="0.253774" stroke-linecap="round" stroke-linejoin="round"/>
</g>
<defs>
<linearGradient id="paint0_linear_1146_6750" x1="16.5147" y1="0.480443" x2="176.24" y2="145.625" gradientUnits="userSpaceOnUse">
<stop stop-color="#8FCFF2"/>
<stop offset="1" stop-color="#646FCC" stop-opacity="0"/>
</linearGradient>
<clipPath id="clip0_1146_6750">
<path d="M-0.00012207 17.7105C-0.00012207 8.19464 7.71401 0.480469 17.2299 0.480469H280.774C290.288 0.480469 298 8.19256 298 17.7059V349.295C298 358.809 290.288 366.521 280.774 366.521H17.1999C7.70059 366.521 -0.00012207 358.82 -0.00012207 349.321V17.7105Z" fill="white"/>
</clipPath>
</defs>
</svg>
