<svg width="117" height="108" viewBox="0 0 117 108" fill="none" xmlns="http://www.w3.org/2000/svg">
<g clip-path="url(#clip0_1155_13614)">
<path fill-rule="evenodd" clip-rule="evenodd" d="M-38.8852 123.013C-20.2443 69.3783 7.09382 38.8857 28.7491 26.4474C49.2263 14.6858 66.2981 17.2975 73.5969 24.541C74.7948 24.4349 75.9909 24.3461 77.1842 24.2743L77.1638 24.2933C77.4283 24.2767 77.6927 24.261 77.957 24.2461C84.4791 23.878 90.9747 24.1441 97.2856 25.1258C95.9557 20.345 93.9145 16.0468 91.2917 12.4287C80.6664 -2.43414 53.0757 -5.472 26.8458 12.1214C0.244846 29.9636 -23.0645 64.7871 -43.3014 123.014L-38.8852 123.013ZM78.4835 58.4182C77.2634 61.9003 75.5672 65.3068 73.3888 68.4988C65.6163 79.8876 52.0049 87.1033 39.3801 88.0646C33.2409 88.5321 28.1792 87.398 24.9582 85.1543C21.8797 83.0098 20.7176 80.0935 21.0859 76.6697L21.1097 76.6633C21.2097 75.8615 21.3805 75.0345 21.631 74.1876C23.252 69.3059 28.197 63.2896 36.198 58.4124C45.4716 52.7593 57.5665 50.7681 71.1178 51.6577C97.8452 53.4124 123.48 72.3563 120.908 118.963L139.24 112.743C139.408 109.686 139.473 106.731 139.438 103.874L140.796 103.414C143.847 48.1086 112.355 28.2134 79.1275 28.6434C62.7479 28.8554 45.5031 33.024 31.4414 41.7303C20.859 48.2824 11.1243 58.3891 6.12708 69.9551C4.5168 73.5245 3.39751 77.3164 2.90046 81.3014L2.93131 81.2932C2.92947 81.3072 2.92763 81.3212 2.9258 81.3353L2.89962 81.3423C1.64075 91.4347 5.41072 98.407 11.2882 102.501C17.085 106.539 25.143 108.005 33.7138 107.352C50.5091 106.074 72.6794 96.168 86.9593 75.244C89.2376 71.9055 91.1658 68.5343 92.7673 65.1661C89.0885 61.6518 84.4245 59.5288 79.5364 58.605C79.1838 58.5383 78.8328 58.4761 78.4835 58.4182Z" fill="#1D1558"/>
</g>
<defs>
<clipPath id="clip0_1155_13614">
<rect width="117" height="107.559" fill="white" transform="translate(0 0.0678711)"/>
</clipPath>
</defs>
</svg>
